<?xml version="1.0" encoding="utf-8"?>
<!-- Generator: Adobe Illustrator 25.2.0, SVG Export Plug-In . SVG Version: 6.00 Build 0)  -->
<svg version="1.1" id="Layer_1" xmlns="http://www.w3.org/2000/svg" xmlns:xlink="http://www.w3.org/1999/xlink" x="0px" y="0px"
	 viewBox="0 0 512 512" style="enable-background:new 0 0 512 512;" xml:space="preserve">
<style type="text/css">
	.st0{fill:#4CA82C;}
</style>
<path class="st0" d="M143.9,513c-10.4,0-20.6-4.1-28.3-11.7l-98-97.8C6.3,392.2,0,377.1,0,361s6.3-31.2,17.6-42.5l98-97.8
	c11.5-11.5,28.7-14.9,43.7-8.7c15,6.2,24.7,20.7,24.7,37V341c158.8,0,288-129.2,288-288V21c0-11,9-20,20-20s20,9,20,20v32
	c0,87.6-34.1,170-96.1,231.9C354,346.9,271.6,381,184,381c-22.1,0-40-17.9-40-40v-91.9c0,0,0,0,0,0c0,0-0.1,0-0.1,0c0,0,0,0,0,0
	l-98,97.8c-3.8,3.8-5.9,8.8-5.9,14.2s2.1,10.4,5.9,14.2l98,97.8l0,0c0,0,0.1,0,0.1,0c0,0,0,0,0,0V451c0-11,9-20,20-20
	c11,0,20,9,20,20v21.9c0,16.2-9.7,30.8-24.7,37C154.3,512,149.1,513,143.9,513z"/>
</svg>
