<svg xmlns="http://www.w3.org/2000/svg" width="796.498" height="417.673" viewBox="0 0 796.498 417.673">
  <g id="Group_3644" data-name="Group 3644" transform="translate(-136.856 -134.249)">
    <path id="Path_9787" data-name="Path 9787" d="M280.248,134.249v120.22L136.856,134.249V300.565L280.248,420.77V300.565L423.641,420.77v-166.3" fill="#fa0"/>
    <path id="Path_9788" data-name="Path 9788" d="M546.436,177.109v46.93h-.22l-34.992-46.93H495.337v77.358h17.394v-46.7h.219l35.094,46.7h15.8V177.109" fill="#30120b"/>
    <g id="Group_3639" data-name="Group 3639">
      <path id="Path_9789" data-name="Path 9789" d="M663.416,242.649c-4.916,0-5.691-3.555-5.691-9.348V211.548h14.834V200.181H657.827V183.812l-16.721,3.657v12.712h-7.68v11.367h7.563v21.4c0,9.143.234,13.722,3.8,17.95,3.014,3.569,8.017,5.017,14.278,5.017a34.963,34.963,0,0,0,14.277-2.9l2.136-1.009-2.223-11.381c-2.5.775-6.525,2.018-9.845,2.018" fill="#30120b"/>
      <path id="Path_9790" data-name="Path 9790" d="M689.812,193.709c-4.243,0-9.041-3-9.041-8.352,0-5.457,4.462-8.588,9.041-8.588,4.476,0,8.923,3.131,8.923,8.471s-4.681,8.469-8.923,8.469" fill="#30120b"/>
    </g>
    <rect id="Rectangle_2607" data-name="Rectangle 2607" width="16.735" height="54.288" transform="translate(681.577 200.178)" fill="#30120b"/>
    <g id="Group_3640" data-name="Group 3640">
      <path id="Path_9791" data-name="Path 9791" d="M803.611,198.614a28.739,28.739,0,0,0-17.832,6.262l-.966-4.7H770.038v54.288h16.736V218.013a18.778,18.778,0,0,1,11.381-4.345c5.12,0,6.349,3.13,6.349,7.8v33h16.764v-36c0-12.157-5.368-19.852-17.657-19.852" fill="#30120b"/>
    </g>
    <path id="Path_9792" data-name="Path 9792" d="M895.033,177.7v76.758h16.75V174.076" fill="#30120b"/>
    <g id="Group_3641" data-name="Group 3641">
      <path id="Path_9793" data-name="Path 9793" d="M610.2,237.737c-1.331,1.682-5.354,4.681-9.362,4.681-8.471,0-10.27-8.251-10.27-15.156,0-10.357,5.135-14.8,10.621-14.8,3.335,0,7.021,1.975,9.011,3.774Zm18.418,5.471c-1.215,0-1.668-.79-1.668-1.9V200.185H612.479l-1.156,4.681c-2.34-3.35-7.373-6.247-13.6-6.247-12.273,0-24.547,10.035-24.547,29.77,0,14.819,7.476,27.532,23.538,27.532,5.471,0,12.61-3.117,15.624-6.584h.219c1.434,3.233,4.111,5.135,10.708,5.135h8.6V243.208" fill="#30120b"/>
      <path id="Path_9794" data-name="Path 9794" d="M866.036,237.737c-1.332,1.682-5.34,4.681-9.363,4.681-8.47,0-10.269-8.251-10.269-15.156,0-10.357,5.135-14.8,10.606-14.8a14.99,14.99,0,0,1,9.026,3.774Zm18.417,5.471c-1.229,0-1.667-.79-1.667-1.9V200.185H868.3l-1.141,4.681c-2.341-3.35-7.373-6.247-13.619-6.247-12.259,0-24.548,10.035-24.548,29.77,0,14.819,7.49,27.532,23.553,27.532,5.456,0,12.61-3.117,15.623-6.584h.22c1.448,3.233,4.125,5.135,10.708,5.135h8.573V243.208" fill="#30120b"/>
      <path id="Path_9795" data-name="Path 9795" d="M733.953,242.77c-8.251,0-10.606-7.475-10.606-15.726,0-8.133,2.677-15.272,10.928-15.272s10.62,7.256,10.62,15.506c0,8.134-2.677,15.492-10.942,15.492m.571-44.15c-18.1,0-28.454,12.142-28.454,28.541,0,16.6,8.807,28.761,27.664,28.761,18.081,0,28.438-12.157,28.438-28.541,0-16.619-8.807-28.761-27.648-28.761" fill="#30120b"/>
      <path id="Path_9796" data-name="Path 9796" d="M528.918,340.275a28.977,28.977,0,0,1-9.143,1.112h-6.92V320.54c1.77,0,4.228-.1,5.574-.1,4.344,0,7.592.1,10.825,1.55s5.471,4.565,5.471,9.246c0,4.462-2.355,7.695-5.807,9.041M512.855,290.9h5.471c6.8,0,10.928,2.663,10.928,8.017,0,7.022-3.8,9.377-12.171,9.377h-4.228Zm21.753,21.739v-.117c7.71-1.683,12.04-8.485,12.04-16.048,0-13.166-9.7-18.959-29.565-18.959H495.344v77.357h25.645c16.062,0,31.686-4.344,31.686-22.85,0-11.132-7.578-18.286-18.067-19.383" fill="#30120b"/>
    </g>
    <path id="Path_9797" data-name="Path 9797" d="M718.376,323.664l16.735-23.07h-18.1l-13.6,21.739h-.2v-47.88l-16.736,3.642v76.773h16.736V330.013h.2l13.912,24.855h19.969" fill="#30120b"/>
    <g id="Group_3642" data-name="Group 3642">
      <path id="Path_9798" data-name="Path 9798" d="M658.016,299.023a28.845,28.845,0,0,0-17.876,6.246L639.2,300.6H624.428v54.273h16.736V318.421a18.784,18.784,0,0,1,11.381-4.345c5.12,0,6.363,3.131,6.363,7.812v32.988h16.721v-36c0-12.143-5.339-19.852-17.613-19.852" fill="#30120b"/>
      <path id="Path_9799" data-name="Path 9799" d="M595.419,338.159c-1.331,1.668-5.34,4.682-9.362,4.682-8.485,0-10.27-8.251-10.27-15.156,0-10.372,5.135-14.834,10.606-14.834,3.335,0,7.036,2.019,9.026,3.789Zm18.418,5.457c-1.215,0-1.668-.775-1.668-1.887V300.607H597.686l-1.141,4.681c-2.34-3.35-7.373-6.261-13.6-6.261-12.288,0-24.561,10.035-24.561,29.77,0,14.819,7.475,27.517,23.537,27.517,5.472,0,12.611-3.116,15.639-6.569h.219c1.448,3.248,4.111,5.135,10.708,5.135h8.588V343.616" fill="#30120b"/>
    </g>
    <g id="Group_3643" data-name="Group 3643">
      <path id="Path_9800" data-name="Path 9800" d="M172.042,538.91l-4-11.553H149.3l-4,11.553h-3.431l15.249-42.339h3.3l15.313,42.339ZM158.7,500.443h-.063L150.5,524.056h16.329Z" fill="#1a1818"/>
      <path id="Path_9801" data-name="Path 9801" d="M208.64,539.608a23.86,23.86,0,0,1-10.675-2.412l.191-3.872a21.01,21.01,0,0,0,10.23,2.793c6.989,0,10.483-3.555,10.483-8.062s-4.13-7.046-9.022-8.95l-1.461-.571c-5.4-2.095-10.1-4.824-10.1-11.934,0-6.728,5.21-10.727,13.153-10.727a19.414,19.414,0,0,1,9.212,2.031l-.254,3.682a21.054,21.054,0,0,0-8.705-2.222c-5.718,0-9.721,2.031-9.721,7.236,0,4.507,3.3,6.538,8.578,8.57l1.461.571c6.227,2.412,10.548,5.776,10.548,12.378C222.555,534.784,217.472,539.608,208.64,539.608Z" fill="#1a1818"/>
      <path id="Path_9802" data-name="Path 9802" d="M243.141,539.671c-9.277,0-11.945-5.268-11.945-13.139V507.171h3.367v19.488c0,5.9,2.224,9.839,8.642,9.839,6.734,0,8.514-3.872,8.514-9.839V507.171h3.367v19.361C255.086,534.657,251.655,539.671,243.141,539.671Z" fill="#1a1818"/>
      <path id="Path_9803" data-name="Path 9803" d="M278.786,539.608a10.628,10.628,0,0,1-9.658-5.586h-.064l-.253,4.888h-3.177a89.956,89.956,0,0,0,.254-9.141v-35.61h3.367V512h.064c1.97-2.666,4.257-5.523,10.1-5.523,8.959,0,11.691,7.554,11.691,16.314C291.112,531.483,288.189,539.608,278.786,539.608Zm8.768-18.789c0-6.729-3.494-11.172-8.959-11.172-5.083,0-9.34,4.824-9.34,9.9v6.538c0,6.031,4.7,10.347,9.213,10.347,6.481,0,9.086-5.332,9.086-11.68Z" fill="#1a1818"/>
      <path id="Path_9804" data-name="Path 9804" d="M306.361,539.608a16.392,16.392,0,0,1-8.386-2.222l.254-3.3a15.85,15.85,0,0,0,8.26,2.412c5.528,0,7.815-2.539,7.815-5.65,0-3.618-2.86-5.014-6.99-6.665l-2.033-.825c-4-1.65-7.243-3.936-7.243-8.7,0-4.253,2.8-8.189,10.42-8.189a14.939,14.939,0,0,1,7.752,2.031l-.254,3.428a14.413,14.413,0,0,0-7.625-2.348c-4.765,0-6.8,1.967-6.8,4.824,0,3.047,2.287,4.507,6.862,6.347l2.033.826c4.384,1.84,7.37,4.062,7.37,8.886C317.8,535.863,314.177,539.608,306.361,539.608Z" fill="#1a1818"/>
      <path id="Path_9805" data-name="Path 9805" d="M328.472,500.57a2.764,2.764,0,0,1-2.795-2.73,2.764,2.764,0,1,1,5.528,0A2.752,2.752,0,0,1,328.472,500.57Zm-1.715,38.34V507.171h3.368V538.91Z" fill="#1a1818"/>
      <path id="Path_9806" data-name="Path 9806" d="M361.067,538.91l-.317-4.824h-.063c-1.843,2.729-4.321,5.522-9.913,5.522-9.022,0-11.817-7.554-11.817-16.313,0-8.7,2.922-16.822,12.326-16.822a10.383,10.383,0,0,1,9.4,5.269h.063V494.159h3.367v36.054a77.8,77.8,0,0,0,.318,8.7Zm-.317-18.916c0-6.031-4.7-10.347-9.022-10.347-6.481,0-9.213,5.332-9.213,11.68v3.935c0,6.729,3.494,11.172,8.958,11.172,4.956,0,9.277-4.824,9.277-9.839Z" fill="#1a1818"/>
      <path id="Path_9807" data-name="Path 9807" d="M376.952,500.57a2.765,2.765,0,0,1-2.8-2.73,2.764,2.764,0,1,1,5.528,0A2.751,2.751,0,0,1,376.952,500.57Zm-1.716,38.34V507.171H378.6V538.91Z" fill="#1a1818"/>
      <path id="Path_9808" data-name="Path 9808" d="M409.483,538.91l-.254-5.015h-.063c-1.906,2.984-4.194,5.713-9.849,5.713-8.895,0-11.881-7.554-11.881-16.313,0-8.7,3.113-16.822,12.39-16.822a10.113,10.113,0,0,1,9.4,5.586h.064l.19-4.888h3.241a89.879,89.879,0,0,0-.318,9.078v13.964c0,5.332.318,8.7.318,8.7Zm-.444-18.916c0-6.031-4.321-10.347-8.768-10.347-6.545,0-9.277,5.332-9.277,11.68v3.935c0,6.729,3.558,11.172,9.023,11.172,5.019,0,9.022-4.824,9.022-9.839Z" fill="#1a1818"/>
      <path id="Path_9809" data-name="Path 9809" d="M436.932,510.028a14.115,14.115,0,0,0-1.716-.127,9.224,9.224,0,0,0-9.022,8.887V538.91h-3.367V507.171h3.3v5.269h.063a10.866,10.866,0,0,1,9.722-5.967,8.347,8.347,0,0,1,1.207.127Z" fill="#1a1818"/>
      <path id="Path_9810" data-name="Path 9810" d="M451.165,551.922h-3.94c3.177-6.03,6.163-13.012,6.163-13.012l-12.58-31.739h3.749l10.42,27.994h.063l10.484-27.994h3.622S459.806,532.943,451.165,551.922Z" fill="#1a1818"/>
      <path id="Path_9811" data-name="Path 9811" d="M502.376,539.608c-9.467,0-12.834-6.475-12.834-16.44,0-9.712,3.621-16.7,13.088-16.7s12.835,6.475,12.835,16.441C515.465,532.689,511.843,539.608,502.376,539.608Zm9.531-18.726c0-7.172-3.5-11.3-9.341-11.3-5.908,0-9.466,4.379-9.466,11.552V525.2c0,7.173,3.43,11.3,9.339,11.3,5.846,0,9.468-4.38,9.468-11.553Z" fill="#1a1818"/>
      <path id="Path_9812" data-name="Path 9812" d="M530.65,510.218V538.91h-3.367V510.218H519.4v-3.047h7.879V502.6c0-5.4,2.478-9.14,8.069-9.14a25.11,25.11,0,0,1,3.622.38l-.191,3.047a16.231,16.231,0,0,0-3.24-.317c-3.558,0-4.893,2.6-4.893,6.221v4.379h9.023v3.047Z" fill="#1a1818"/>
      <path id="Path_9813" data-name="Path 9813" d="M583.323,538.91C575,529.9,564.58,517.772,564.58,517.772V538.91h-3.495V496.571h3.495v19.8l17.219-19.8h4.574L568.456,517.01s7.434,8.506,19.887,21.9Z" fill="#1a1818"/>
      <path id="Path_9814" data-name="Path 9814" d="M607.6,539.608c-13.407,0-15.249-10.728-15.249-21.709,0-10.347,1.906-22.026,16.011-22.026a19.041,19.041,0,0,1,8.9,2.094l-.192,3.619a18.816,18.816,0,0,0-8.513-2.222c-8.2,0-12.58,5.141-12.58,14.917v6.855c0,10.41,4.764,14.981,12.58,14.981,3.367,0,6.1-1.46,8.959-3.111l.254,3.746A18.859,18.859,0,0,1,607.6,539.608Z" fill="#1a1818"/>
      <path id="Path_9815" data-name="Path 9815" d="M636,538.91H625.386V496.571h10.928c6.1,0,12.454,1.968,12.454,10.029,0,5.967-3.05,8.379-7.5,9.712v.064c4.256.7,8.832,3.11,8.832,10.156C650.1,534.974,645.02,538.91,636,538.91Zm.127-39.038h-7.243v15.171h6.48c6.29,0,9.785-2.857,9.785-8.062C645.146,501.459,641.4,499.872,636.124,499.872Zm-.509,18.535h-6.734v17.2h6.862c6.544,0,10.737-2.285,10.737-8.633C646.48,520.819,642.351,518.407,635.615,518.407Z" fill="#1a1818"/>
      <path id="Path_9816" data-name="Path 9816" d="M688.035,539.608c-13.407,0-14.995-10.791-14.995-21.709,0-10.093,1.651-22.026,16.71-22.026a22.079,22.079,0,0,1,10.484,2.475l-.255,3.682a21.238,21.238,0,0,0-10.039-2.666c-8.958,0-13.279,5.2-13.279,15.107v6.792c0,11.045,5.147,14.854,11.755,14.854a21.255,21.255,0,0,0,9.149-2.158V520.438h-8.386v-3.491H701.06v18.916A23.507,23.507,0,0,1,688.035,539.608Z" fill="#1a1818"/>
      <path id="Path_9817" data-name="Path 9817" d="M725.141,510.028a14.115,14.115,0,0,0-1.716-.127,9.225,9.225,0,0,0-9.023,8.887V538.91h-3.367V507.171h3.3v5.269h.063a10.867,10.867,0,0,1,9.722-5.967,8.347,8.347,0,0,1,1.207.127Z" fill="#1a1818"/>
      <path id="Path_9818" data-name="Path 9818" d="M743.5,539.608c-9.467,0-12.835-6.475-12.835-16.44,0-9.712,3.622-16.7,13.089-16.7s12.835,6.475,12.835,16.441C756.592,532.689,752.97,539.608,743.5,539.608Zm9.53-18.726c0-7.172-3.494-11.3-9.34-11.3-5.909,0-9.466,4.379-9.466,11.552V525.2c0,7.173,3.43,11.3,9.339,11.3,5.846,0,9.467-4.38,9.467-11.553Z" fill="#1a1818"/>
      <path id="Path_9819" data-name="Path 9819" d="M777.179,539.671c-9.277,0-11.946-5.268-11.946-13.139V507.171H768.6v19.488c0,5.9,2.224,9.839,8.641,9.839,6.736,0,8.514-3.872,8.514-9.839V507.171h3.368v19.361C789.124,534.657,785.692,539.671,777.179,539.671Z" fill="#1a1818"/>
      <path id="Path_9820" data-name="Path 9820" d="M812.125,539.608a10.378,10.378,0,0,1-9.4-5.269h-.064v17.583H799.29V507.171h3.24v5.079h.064c1.906-2.984,4.447-5.777,10.1-5.777,8.959,0,11.755,7.554,11.755,16.314C824.451,531.483,821.528,539.608,812.125,539.608Zm8.768-18.789c0-6.729-3.431-11.172-8.959-11.172-4.893,0-9.277,4.824-9.277,9.839v6.6c0,6.031,4.7,10.347,9.023,10.347,6.48,0,9.213-5.332,9.213-11.68Z" fill="#1a1818"/>
      <path id="Path_9821" data-name="Path 9821" d="M858.571,521.708h-6.353v17.2h-3.495V496.571h10.865c8.514,0,13.66,3.682,13.66,12.187C873.248,517.518,868.1,521.708,858.571,521.708Zm.763-21.836h-7.18v18.535h6.1c8.959,0,11.309-3.682,11.309-9.395C869.563,502.665,866.323,499.872,859.334,499.872Z" fill="#1a1818"/>
      <path id="Path_9822" data-name="Path 9822" d="M881.381,538.91V496.571h3.431v38.848l17.41.063v3.428Z" fill="#1a1818"/>
      <path id="Path_9823" data-name="Path 9823" d="M923.189,539.608c-13.406,0-15.249-10.728-15.249-21.709,0-10.347,1.907-22.026,16.012-22.026a19.044,19.044,0,0,1,8.9,2.094l-.192,3.619a18.823,18.823,0,0,0-8.513-2.222c-8.2,0-12.581,5.141-12.581,14.917v6.855c0,10.41,4.765,14.981,12.581,14.981,3.367,0,6.1-1.46,8.959-3.111l.253,3.746A18.857,18.857,0,0,1,923.189,539.608Z" fill="#1a1818"/>
    </g>
  </g>
</svg>
