<?xml version="1.0" encoding="utf-8"?>
<!-- Generator: Adobe Illustrator 26.0.0, SVG Export Plug-In . SVG Version: 6.00 Build 0)  -->
<svg version="1.1" id="Layer_1" xmlns="http://www.w3.org/2000/svg" xmlns:xlink="http://www.w3.org/1999/xlink" x="0px" y="0px"
	 viewBox="0 0 352.96 205.71" style="enable-background:new 0 0 352.96 205.71;" xml:space="preserve">
<style type="text/css">
	.st0{fill:#BE292C;}
	.st1{fill:#BD2A2C;}
	.st2{fill:#BB2B2D;}
	.st3{fill:#B93131;}
	.st4{fill:#AD393A;}
	.st5{fill:#B93A3B;}
	.st6{fill:#F2BDBF;}
	.st7{fill:#EDA1A7;}
	.st8{fill:#DB6B6D;}
	.st9{fill:#C22429;}
	.st10{fill:#F2D2D4;}
</style>
<g>
	<path class="st0" d="M238.99,13.84c1.61-0.36,3.22-0.71,4.82-1.07c2.53-0.18,4.94-1.89,7.61,0.41c1.3,1.11,3.43-0.18,4.85-1.35
		c3.08-2.53,6.24-4.17,10.1-1.49c1.03,0.72,2.61,0.97,3.02-0.27c1.59-4.83,3.79-0.04,3.81,0.12c0.28,2.17,2.63,3.19,3.11,5.17
		c-3.03,1.43-4.64-0.63-6.85-1.58c-2.81-1.2-1.05,4.79-4.59,4.16c-0.31-0.06-0.66,0.04-0.98,0.12c-9.97,2.44-19.86,5.39-29.95,7.08
		c-4.27,0.72-8.65,4.96-13.38,0.97c-0.35-0.29-1.09,0.06-1,0.66c0.44,2.92-2.79,2.39-3.7,4.01c-3.2,0.81-6.39,1.67-9.61,2.43
		C149.91,46.46,93.56,59.77,37.15,72.83c-7.91,1.83-14.7,4.95-19.97,11.16c-1.08,0.15-2.1,1.18-3.25,0.24
		c-0.91-0.74-1.66-0.95-2.28,0.36c-0.5,1.07-1.01,3.08-0.44,3.14c3.46,0.35,1.04,2.98,1.88,4.24l0.03,0.09
		c-1.78,0.47-2.09,1.82-2.14,3.42c-0.21,6.09,0.27,12.16,2.13,17.93c1.17,3.64,0.94,6.33-2.22,8.57c-0.31,0.63-0.62,1.26-0.92,1.89
		c-0.64,0.28-1.28,0.56-1.91,0.84c-4.74-2.06-2.48-6.37-3.12-9.75c0.15-1.75,3.11-4.85-1.97-4.08c0-0.66-0.01-1.33-0.01-1.99
		c0.53-0.3,1.09-0.58,0.65-1.34c-0.23,0.15-0.46,0.29-0.69,0.44c-2.69-3.72-1.81-7.99-1.86-12.12c1.12-0.73,0.9-1.89,0.94-2.96
		c0.12-0.12,0.3-0.22,0.34-0.36C7.87,72.09,15.82,65.54,37.3,63.71c0.74-0.06,1.25-0.36,1.52-1.04c1-2.47,3.4-2.34,5.41-2.83
		c13.96-3.38,27.93-6.72,41.9-10.08c0.3-0.04,0.59,0,0.86,0.1c4.08,0.36,7.7-1.68,11.51-2.54c20.97-4.7,41.82-9.95,62.7-15.07
		c3.38-0.83,6.38-0.81,8.61,3c-1.4-6.07,3.02-5.02,6-5.89c13.21-3.88,26.82-6.1,40.07-9.75C223.55,17.52,231.58,16.92,238.99,13.84z
		"/>
	<path class="st1" d="M10.89,121.97c3.16-2.24,3.39-4.93,2.22-8.57c-1.86-5.77-2.34-11.84-2.13-17.93c0.06-1.6,0.36-2.95,2.14-3.42
		c-0.55,4.6-1.3,9.17-0.2,13.81c5.14,21.67,10.45,43.31,15.28,65.05c3.67,16.54,19.58,27.99,38.44,20.77
		c9.16-0.09,17.69-3.71,26.62-4.85c4.22-0.54,8.78-5.53,13.14,0.42c1.02,1.39,3.54,0.31,3.07-1.97c-0.52-2.57,1.09-3.05,2.62-3.24
		c1.36-0.16,3.86-1.71,3.8,1.88c-0.01,0.85,2.19,1.19,2.38,0.33c0.71-3.2,3.24-4.13,5.65-5.33c0.34-0.01,0.67-0.03,1.01-0.04
		c2.52,3.18,2.91,0.24,3.78-1.32l0.06-0.06c1.05,0.12,2.1,0.23,3.15,0.35c0.33,2.66,0.66,5.32,0.99,7.98c0,0.34,0,0.68,0,1.01
		c-9.56,2.34-19.2,4.43-28.66,7.13c-5.42,1.55-11.61,0.5-16.27,4.67c-1.72,0.4-3.44,0.79-5.15,1.19c-6.24-0.21-12.04,2.1-18.02,3.27
		c-10.02,1.97-19.53,1.59-28.76-3.53c-3.18-1.76-5.47-4.84-9.13-5.72c0,0,0.01,0,0.01,0c-0.33-0.34-0.67-0.68-1-1.02
		c0,0,0.01,0.01,0.01,0.01c-2.56-5.11-5.96-9.8-7.34-15.51c-3.09-12.86-6.66-25.62-9.29-38.57c-0.91-4.47-4.83-10.15,1.88-14.01
		C11.52,124.56,11.01,122.93,10.89,121.97z"/>
	<path class="st1" d="M348.52,121.17c-0.54,2.72-0.76,5.49-4.34,6.36c-2.67,0.65,1.16,2.96-1.09,4.85
		c-4.68,3.93-9.18,7.85-15.19,9.56c-0.05-0.38-0.1-0.76-0.14-1.13c0.04-0.32,0.07-0.64,0.07-0.96c1.23-0.75,3.06-0.96,2.83-3.06
		c0.09-0.31,0.16-0.62,0.19-0.94c1.44,0,2.43-0.67,2.98-1.99c2.46-0.23,5.75,0.97,5.95-3.26c0.18-3.67-0.78-6.62-5.13-7.05
		c1.54-2.69,2.64-5.68,5.2-7.68c0.88-0.5,1.59-1.06,1.7-2.21c0.8-8.55-0.47-16.79-3.65-24.74c-1.8-1.41-0.77-3.31-0.88-5.01
		c1.16-2.83,2.49-5.61,3.42-8.52c0.75-2.35,1.21-4.89-1.61-6.48c0.02-0.65,0.03-1.3,0.05-1.95c0.62-0.38,0.62-0.73-0.05-1.04
		c-0.14-0.08-0.28-0.15-0.42-0.23c0.14,0.08,0.28,0.15,0.42,0.23c0,0.31-0.02,0.63-0.06,0.94c-0.71,0.19-1.7,0.24-1.43,1.29
		c0.09,0.36,0.97,0.53,1.49,0.78c-0.01,0.82-0.19,1.56-0.99,1.99l0,0c-5.93-3.48-5.21-8.96-4.72-14.61
		c0.41-4.73,4.28-3.25,6.71-4.37c1.2,1.83,1.03,3.91,1.1,5.95c-0.97,0.17-2.23,0.35-1.89,1.62c0.49,1.84,1.89-0.01,2.8,0.42
		c2.03,8.93,3.96,17.88,6.13,26.77c1.95,7.98,4.42,15.86,3.89,24.23c0,0,0.01-0.02,0.01-0.02c-0.35,0.29-0.7,0.59-1.05,0.88
		c-1.17,1.54-2.35,3.07-3.52,4.61c-0.53,0.69-1.93,0.9-1.29,2.23c0.09,0.19,0.54,0.2,0.83,0.29
		C347.4,119.65,347.96,120.41,348.52,121.17z"/>
	<path class="st2" d="M339.84,51.91c-2.43,1.12-6.3-0.36-6.71,4.37c-0.49,5.65-1.22,11.14,4.72,14.61
		c-1.19,0.76-2.59,1.36-2.57,3.41c2.14-0.34,2.73-1.58,2.57-3.41c0.8-0.43,0.98-1.17,0.99-1.99c0,0,0.02-0.02,0.02-0.02
		c2.82,1.59,2.36,4.14,1.61,6.48c-0.93,2.91-2.26,5.69-3.42,8.52c-1.43-4.71-3.06-9.36-4.24-14.13
		c-3.01-12.18-5.81-24.42-8.69-36.63c-1.82-7.7-6.08-13.55-13.1-17.33c-0.7-2.24-2.74-4.66,1.77-5.65c1.02-0.22,2.68-2.86,2.08-5.13
		c7.29,0.97,11.16,6.35,15.06,11.69C334.96,27.96,337.15,40,339.84,51.91z"/>
	<path class="st2" d="M131.94,177.84c-1.05-0.12-2.1-0.23-3.15-0.35c2.45-1.47,5.18-2.15,7.93-2.64c16.01-2.84,31.3-9.2,47.79-9.66
		c4.59-4.5,10.99-3.26,16.39-5.2c2.28,2.52,2.4,6.03,4.02,8.86l-0.04-0.06c-0.34,0.96-0.68,1.91-1.02,2.87
		c-14.63,3.43-29.25,6.85-43.88,10.28c-1.74-2.07,2.81-5.05-0.98-6.82c-0.95-3.27-3.38-0.72-5.02-1.28
		C146.7,175.53,138.99,174.88,131.94,177.84z"/>
	<path class="st0" d="M327.76,140.8c0.05,0.38,0.1,0.76,0.15,1.13c-4.63,2.89-10.06,3.04-15.14,4.25
		c-30.66,7.33-61.36,14.43-92.06,21.6c-0.31,0.07-0.66,0-0.99,0c-1.33,0.08-2.8-0.37-3.83,0.94l-0.43,0.22c0,0-0.47-0.08-0.47-0.08
		c-1.12-0.08-2.28-0.26-3.09,0.82c-0.35,0.05-0.71,0.09-1.06,0.14c-1.02-0.03-2.08-0.24-2.87,0.68c-0.33,0.13-0.65,0.26-0.98,0.38
		c-0.7-0.7-1.4-1.39-2.11-2.09c0,0,0.04,0.06,0.04,0.06c-0.27-1.76,0.43-3.33,0.94-4.94c0.36-1.27,0.72-2.54,1.08-3.81
		c0.91-0.59,2.64,0.63,2.95-1.32c8.47-4.21,17.84-4.99,26.87-7.06c-0.39,1.97-1.69,3.64-1.49,5.88c0.1,1.17-2.33,2.46-0.47,3.78
		c1.37,0.98,3.32,0.76,4.83,0.18c5.63-2.16,11.79-2.14,17.34-3.98c5.93-1.98,13.1-1.14,17.66-6.76c0.82-1.01,2.3-1.41,3.15-0.66
		c2.72,2.39,4.64,1.77,6.44-1.04c0.29-0.45,1.42-0.94,1.65-0.76c5.26,4.25,10.08-1.22,15.21-0.82c1.24,0.1,6.94,0.12,3.58-5.08
		c-0.85-1.31,1.64-1.48,2.85-1.67c1.13-0.18,2.99-1.33,2.67,1.2c-0.5,3.92,1.57,2.32,3.57,2.1c3.08-0.35,4.37-4.85,8.12-3.27
		c0.66-0.32,1.32-0.65,1.98-0.97C324.87,141.29,326.39,140.74,327.76,140.8z M211.62,163.22c-0.12,0.28-0.24,0.55-0.36,0.83
		c0.28,0.12,0.61,0.39,0.81,0.32c0.2-0.08,0.41-0.57,0.34-0.77C212.33,163.4,211.9,163.34,211.62,163.22z M232.27,154.37
		c-0.25-0.02-0.5-0.04-0.75-0.06c0.12,0.1,0.23,0.26,0.35,0.27C231.99,154.58,232.13,154.44,232.27,154.37z"/>
	<path class="st3" d="M215.88,30.8c0.91-1.63,4.14-1.09,3.7-4.01c-0.09-0.61,0.65-0.95,1-0.66c4.73,3.98,9.11-0.26,13.38-0.97
		c10.1-1.69,19.98-4.64,29.95-7.08c0.32-0.08,0.67-0.18,0.98-0.12c3.53,0.63,1.78-5.36,4.59-4.16c2.2,0.94,3.82,3,6.85,1.58
		c-0.48-1.98-2.83-3-3.11-5.17c-0.02-0.16-2.22-4.95-3.81-0.12c-0.41,1.24-2,0.99-3.02,0.27c-3.86-2.69-7.02-1.04-10.1,1.49
		c-1.43,1.17-3.56,2.46-4.85,1.35c-2.68-2.29-5.09-0.58-7.61-0.41c4.29-3.25,9.63-2.93,14.49-4.14c11.88-2.97,23.85-5.56,35.81-8.21
		c3.96-0.87,7.92-0.23,11.88,0.4c1.33,0.21,2.16,0.67,2.27,2.07c-0.39,0.24-0.77,0.49-1.16,0.73c-0.21,0.31-0.42,0.63-0.62,0.94
		c0,0-0.09,0.07-0.09,0.07c-2.75,1.54-4.85,3.79-6.85,6.16c-0.99,0.53-1.92,1.37-2.96,1.56c-15.09,2.72-29.78,7.12-44.74,10.42
		C239.85,25.42,227.87,28.12,215.88,30.8z"/>
	<path class="st4" d="M10.89,121.97c0.12,0.96,0.63,2.6,0.31,2.78c-6.71,3.86-2.78,9.54-1.88,14.01c2.63,12.95,6.2,25.71,9.29,38.57
		c1.37,5.71,4.78,10.4,7.34,15.51c-4.71-4.08-7.3-9.56-8.7-15.32c-5.7-23.47-11.38-46.97-16.39-70.59
		C-3.4,86.86,8.63,67.54,28.37,62.39c18.44-4.81,37.09-8.85,55.64-13.23c0.82-0.19,1.64-0.36,2.12,0.61
		c-13.97,3.35-27.94,6.69-41.9,10.08c-2.01,0.49-4.41,0.36-5.41,2.83c-0.28,0.68-0.78,0.98-1.52,1.04
		C15.82,65.54,7.87,72.09,2.33,92.53c-0.04,0.14-0.22,0.24-0.34,0.36c-1.15,0.72-0.92,1.88-0.94,2.97c0.05,4.13-0.83,8.4,1.86,12.12
		c0.02,0.3,0.03,0.6,0.04,0.9c0,0.66,0.01,1.33,0.02,1.99c0.17,1.59-0.57,3.63,1.97,4.08c0.64,3.38-1.62,7.68,3.12,9.75
		c0.81,0.12,1.5-0.06,1.91-0.84C10.28,123.23,10.59,122.6,10.89,121.97z"/>
	<path class="st4" d="M238.99,13.84c-7.41,3.08-15.44,3.67-23.11,5.79c-13.25,3.65-26.86,5.87-40.07,9.75
		c-2.98,0.88-7.4-0.18-6,5.89c-2.23-3.82-5.22-3.83-8.61-3c-20.88,5.12-41.73,10.37-62.7,15.07c-3.81,0.85-7.42,2.9-11.51,2.54
		c1.18-2.66,3.93-2.24,6-2.73c47.11-11.13,94.25-22.15,141.41-33.1C235.82,13.71,237.41,12.3,238.99,13.84z"/>
	<path class="st4" d="M339.84,51.91c-2.69-11.9-4.87-23.95-9.91-35.2c3.05,3.23,4.72,7.27,5.71,11.42
		c5.57,23.22,10.92,46.5,16.38,69.75c1,4.26,1.15,8.54,0.7,12.87c-0.28,0.06-0.57,0.11-0.86,0.15c0.53-8.37-1.94-16.25-3.89-24.23
		c-2.17-8.89-4.1-17.84-6.13-26.77c-0.3-0.68-0.6-1.36-0.9-2.04C340.86,55.82,341.04,53.74,339.84,51.91z"/>
	<path class="st4" d="M26.93,193.85c3.66,0.88,5.96,3.96,9.13,5.72c9.23,5.12,18.73,5.5,28.76,3.53c5.99-1.18,11.79-3.48,18.02-3.27
		c-11.99,2.92-23.72,7.88-36.46,5.03C38.83,203.18,32.01,200,26.93,193.85z"/>
	<path class="st4" d="M88,198.64c4.66-4.16,10.85-3.12,16.27-4.67c9.46-2.71,19.1-4.79,28.66-7.13c0.33,0.01,0.66,0,1-0.03
		c2.9-1.12,6.25-0.46,8.99-2.21l0.02,0.25c-0.65,1.04-1.66,1.51-2.8,1.79C122.79,190.76,105.52,195.23,88,198.64z"/>
	<path class="st5" d="M153.98,173.85c1.64,0.55,4.07-2,5.02,1.28c-1.8,2.34-3.46,4.75-4,7.74c-2.27,1.17-4.58,1.94-7.1,0.78
		c-0.02-0.28-0.03-0.56-0.03-0.85c0.05-0.32,0.06-0.65,0.04-0.97c0.02-0.32,0.05-0.64,0.07-0.95c0.65-0.09,1.31-0.18,1.96-0.27
		c0.98,0.07,1.97,0.14,2.95,0.22c0.36-0.33,0.71-0.65,1.07-0.98c0.11-1.97-1.45-0.53-2.07-1.01c0.01-0.66,0.03-1.32,0.04-1.98
		c0.67-0.34,0.7-0.7,0.04-1.09C152.65,175.12,153.32,174.48,153.98,173.85z"/>
	<path class="st6" d="M314.86,5.02c0.6,2.27-1.06,4.91-2.08,5.13c-4.52,0.98-2.47,3.4-1.77,5.65c-1.68-0.58-3.55-0.91-2.53-3.57
		c0.39-1.03-0.82-1.13-1.61-1.26c3.05-2.36,0.85-4.31-0.48-6.33c0,0,0.09-0.07,0.1-0.06c0.95,0.37,1.8,0.39,2.37-0.63l0.13-0.13
		c1.07,0.26,2.36-0.08,2.98,1.29C312.96,7.37,313.9,5.62,314.86,5.02z"/>
	<path class="st6" d="M155,182.86c0.54-2.99,2.2-5.4,4-7.74c3.79,1.78-0.76,4.75,0.98,6.82C158.56,183.57,156.5,181.65,155,182.86z"
		/>
	<path class="st4" d="M348.52,121.17c-0.56-0.76-1.12-1.52-1.68-2.28c1.84-1.62,2.46-4.49,5.28-5.1
		C351.3,116.44,352,119.82,348.52,121.17z"/>
	<path class="st7" d="M352.12,113.8c-2.81,0.61-3.44,3.48-5.28,5.1c-0.28-0.09-0.74-0.1-0.83-0.29c-0.64-1.33,0.76-1.53,1.29-2.23
		c1.17-1.54,2.35-3.07,3.52-4.61c0.35-0.29,0.7-0.59,1.05-0.88c0,0-0.01,0.02-0.01,0.02c0.29-0.04,0.57-0.09,0.86-0.15
		C352.75,111.81,353.29,112.97,352.12,113.8z"/>
	<path class="st2" d="M147.88,182.8c0,0.28,0.01,0.56,0.03,0.85c-1.52,0.95-3.07,1.77-4.96,1.19c0,0-0.02-0.25-0.02-0.24
		C144.06,182.57,146.02,182.82,147.88,182.8z"/>
	<path class="st8" d="M204.88,168.8c0.7,0.7,1.4,1.39,2.11,2.09c-0.92,0.76-2,0.84-3.12,0.78
		C204.2,170.71,204.54,169.76,204.88,168.8z"/>
	<path class="st3" d="M215.89,168.73c1.03-1.31,2.5-0.86,3.83-0.94C218.54,168.51,217.29,168.95,215.89,168.73z"/>
	<path class="st3" d="M211.89,169.68c0.82-1.08,1.97-0.9,3.09-0.82C214.04,169.49,213.05,169.89,211.89,169.68z"/>
	<path class="st3" d="M207.96,170.51c0.79-0.92,1.85-0.72,2.87-0.68C209.87,170.05,208.92,170.28,207.96,170.51z"/>
	<path class="st4" d="M25.94,192.83c0.33,0.34,0.67,0.68,1,1.02C26.61,193.52,26.28,193.18,25.94,192.83z"/>
	<path class="st6" d="M307.1,3.63c0.39-0.24,0.77-0.49,1.16-0.73c0.24,0.31,0.48,0.61,0.72,0.92c0,0-0.13,0.13-0.13,0.13
		C308.27,3.84,307.68,3.74,307.1,3.63z"/>
	<path class="st1" d="M17.19,83.99c-1.67,2.5-3.41,4.97-4.09,7.98c-0.84-1.26,1.58-3.89-1.88-4.24c-0.57-0.06-0.06-2.07,0.44-3.14
		c0.62-1.32,1.37-1.1,2.28-0.36C15.09,85.17,16.11,84.14,17.19,83.99z"/>
	<path class="st1" d="M4.94,114.95c-2.54-0.45-1.79-2.49-1.97-4.08C8.04,110.1,5.09,113.2,4.94,114.95z"/>
	<path class="st1" d="M1.05,95.85c0.02-1.08-0.21-2.24,0.94-2.97C1.95,93.96,2.17,95.12,1.05,95.85z"/>
	<path class="st1" d="M9.97,123.86c-0.42,0.78-1.1,0.96-1.91,0.84C8.69,124.42,9.33,124.14,9.97,123.86z"/>
	<path class="st1" d="M2.95,108.88c-0.01-0.3-0.02-0.6-0.04-0.9c0.23-0.15,0.46-0.29,0.69-0.44C4.04,108.3,3.48,108.58,2.95,108.88z
		"/>
	<path class="st9" d="M147.88,182.8c-1.86,0.02-3.82-0.23-4.96,1.79c-2.75,1.75-6.09,1.09-8.99,2.21c-0.33-0.33-0.66-0.65-1-0.98
		c-0.33-2.66-0.66-5.32-0.99-7.98c7.05-2.96,14.76-2.31,22.04-4c-0.67,0.64-1.33,1.28-2,1.92c-0.01,0.36-0.03,0.73-0.04,1.09
		c-0.01,0.66-0.03,1.32-0.04,1.98c-0.65,0.59-1.3,1.19-1.95,1.78c-0.65,0.09-1.31,0.18-1.96,0.27c-0.76,0.26-0.74,0.58-0.07,0.95
		C147.93,182.15,147.92,182.48,147.88,182.8z"/>
	<path class="st2" d="M66.64,191.68c12.1-3.92,24.64-6,36.98-8.95c6.69-1.6,13.19-4.45,20.32-3.82c-2.41,1.2-4.95,2.12-5.65,5.33
		c-0.19,0.86-2.4,0.52-2.38-0.33c0.06-3.59-2.44-2.04-3.8-1.88c-1.53,0.18-3.14,0.67-2.62,3.24c0.46,2.29-2.05,3.37-3.07,1.97
		c-4.37-5.95-8.92-0.96-13.14-0.42C84.33,187.97,75.8,191.59,66.64,191.68z"/>
	<path class="st2" d="M124.94,178.87c1.05-1.03,2.24-1.67,3.78-1.32C127.85,179.11,127.47,182.05,124.94,178.87z"/>
	<path class="st2" d="M132.93,185.82c0.33,0.33,0.66,0.65,1,0.98c-0.33,0.03-0.66,0.04-1,0.03
		C132.93,186.5,132.93,186.16,132.93,185.82z"/>
	<path class="st9" d="M334.66,123.54c4.35,0.43,5.31,3.38,5.13,7.05c-0.2,4.23-3.49,3.03-5.95,3.26c0-0.33,0.01-0.66,0.01-0.99
		c1.76-2.62-0.51-2.56-2.01-3.01c-0.02-2.51,2.23-4,2.79-6.25L334.66,123.54z"/>
	<path class="st0" d="M314.6,133.4c2.38-0.55,4.75-1.09,7.13-1.64c0.82,0.08,1.57-0.03,2.09-0.78c0.99-0.39,1.98-0.79,2.97-1.18
		c-0.07,1.46,0.35,2.79,1.06,4.05c-0.17,2.05,0.54,3.24,2.82,2.93c0.23,2.1-1.6,2.31-2.83,3.06c-0.71-1.18-1.9-0.97-2.99-1
		c0-0.33,0-0.67,0-1c0.69-1.43,1.3-2.74-1.18-3.05C320.63,134.43,317.62,133.87,314.6,133.4z"/>
	<path class="st4" d="M339.86,115.86c-0.32-0.56-1.05-1.3-0.89-1.64c3.45-7.49,0.85-14.66-0.99-21.9c-0.27-1.08-0.05-2.28-0.06-3.42
		c3.17,7.96,4.45,16.2,3.65,24.75C341.46,114.8,340.74,115.36,339.86,115.86z"/>
	<path class="st0" d="M333.85,132.86c0,0.33-0.01,0.66-0.01,0.99c-0.56,1.32-1.55,1.99-2.98,1.99c-0.05-1.29-0.71-1.96-2.01-1.99
		c0.02-0.83,0.2-1.57,1.01-2c0.66,0,1.32,0,1.98,0C332.5,132.18,333.18,132.52,333.85,132.86z"/>
	<path class="st9" d="M328.84,133.85c1.3,0.03,1.96,0.7,2.01,1.99c-0.03,0.32-0.09,0.63-0.19,0.94c-2.28,0.31-2.99-0.89-2.82-2.93
		c0,0,0.5,0,0.5,0L328.84,133.85z"/>
	<path class="st9" d="M324.85,138.85c1.1,0.03,2.28-0.18,2.99,1c-0.01,0.32-0.03,0.64-0.08,0.96c-1.37-0.06-2.9,0.49-3.93-0.95
		C324.17,139.52,324.51,139.18,324.85,138.85z"/>
	<path class="st2" d="M340.94,57.86c0.3,0.68,0.6,1.36,0.9,2.04c-0.91-0.43-2.31,1.42-2.8-0.42
		C338.71,58.21,339.97,58.03,340.94,57.86z"/>
	<path class="st2" d="M338.89,66.94c-0.02,0.65-0.03,1.3-0.05,1.95c0,0-0.02,0.02-0.02,0.02c-0.52-0.25-1.39-0.42-1.49-0.78
		c-0.27-1.05,0.72-1.1,1.43-1.29C338.78,66.84,338.89,66.94,338.89,66.94z"/>
	<path class="st4" d="M351.87,110.88c-0.35,0.29-0.7,0.59-1.05,0.88C351.17,111.47,351.52,111.18,351.87,110.88z"/>
	<path class="st2" d="M338.84,65.9c-0.14-0.08-0.28-0.15-0.42-0.23C338.56,65.75,338.7,65.82,338.84,65.9
		C338.84,65.9,338.84,65.9,338.84,65.9z"/>
	<path class="st2" d="M338.84,65.9c0.68,0.31,0.68,0.66,0.05,1.04c0,0-0.11-0.1-0.11-0.1C338.81,66.52,338.84,66.21,338.84,65.9
		L338.84,65.9z"/>
	<path class="st1" d="M337.84,70.9c0.16,1.84-0.44,3.08-2.57,3.41C335.25,72.26,336.64,71.65,337.84,70.9
		C337.84,70.89,337.84,70.9,337.84,70.9z"/>
	<path class="st8" d="M200.9,160c2.85-1.46,5.94-1.17,8.99-1.21c-0.3,1.95-2.03,0.73-2.95,1.32c-3.52,0.37-2.14,2.13-1.08,3.81
		c-0.51,1.61-1.21,3.18-0.94,4.94C203.29,166.03,203.18,162.53,200.9,160z"/>
	<path class="st9" d="M314.6,133.4c3.02,0.47,6.03,1.03,9.06,1.4c2.48,0.3,1.87,1.61,1.18,3.05c-3.9-1.92-2.75,1.23-2.99,2.98
		c-3.75-1.58-5.04,2.93-8.12,3.27c-1.99,0.22-4.06,1.82-3.57-2.1c0.32-2.54-1.54-1.38-2.67-1.2c-1.21,0.19-3.69,0.36-2.85,1.67
		c3.36,5.2-2.34,5.17-3.58,5.08c-5.14-0.4-9.95,5.08-15.21,0.82c-0.22-0.18-1.36,0.31-1.65,0.76c-1.79,2.81-3.72,3.43-6.44,1.04
		c-0.85-0.75-2.33-0.35-3.15,0.66c-4.56,5.63-11.73,4.79-17.66,6.76c-5.55,1.85-11.71,1.82-17.34,3.98
		c-1.51,0.58-3.47,0.79-4.83-0.18c-1.86-1.33,0.57-2.62,0.47-3.78c-0.19-2.24,1.11-3.9,1.49-5.88c0,0,0.06,0.03,0.06,0.03
		c2.73,0.14,5.33,0.69,8.21,0.5c4.96-0.32,8.69-3.74,13.59-3.93c4.05-0.16,8.05-1.08,11.88-2.97c1.55-0.76,4.49-2.3,6.38,0.49
		l-0.41,0.23l0.19,0.19l0.23-0.41c0.81-0.11,1.82,0.06,2.41-0.36c7.42-5.18,16.21-5.81,24.63-7.76c3.7-0.85,8.51,0.56,10.66-4.3
		L314.6,133.4z M254.39,154.53c-0.4-0.17-0.8-0.47-0.93-0.37c-0.38,0.26-0.66,0.68-0.97,1.03c0.28,0.12,0.65,0.41,0.81,0.32
		C253.7,155.29,254.01,154.9,254.39,154.53z"/>
	<path class="st1" d="M321.85,140.82c0.24-1.75-0.91-4.9,2.99-2.98c0,0.33,0,0.67,0,1c-0.34,0.33-0.68,0.67-1.02,1
		C323.17,140.17,322.51,140.5,321.85,140.82z"/>
	<path class="st3" d="M205.85,163.92c-1.06-1.67-2.43-3.44,1.08-3.81C206.57,161.38,206.21,162.65,205.85,163.92z"/>
	<path class="st3" d="M211.63,163.22c0.28,0.12,0.71,0.18,0.79,0.38c0.08,0.2-0.14,0.69-0.34,0.77c-0.2,0.08-0.54-0.2-0.81-0.32
		C211.38,163.77,211.5,163.49,211.63,163.22z"/>
	<path class="st9" d="M232.27,154.37c-0.13,0.07-0.27,0.21-0.4,0.2c-0.12-0.01-0.23-0.17-0.35-0.27
		C231.77,154.32,232.02,154.35,232.27,154.37z"/>
	<path class="st10" d="M306.87,10.97c-0.45,2.6-1.54,3.72-3.86,1.55c-1.01-0.94-2.12-1.53-3.46-1.72c2-2.37,4.1-4.62,6.85-6.16
		C307.72,6.66,309.92,8.61,306.87,10.97z"/>
	<path class="st10" d="M307.1,3.63c0.58,0.1,1.17,0.21,1.75,0.31c-0.57,1.02-1.43,1-2.37,0.63C306.68,4.26,306.89,3.95,307.1,3.63z"
		/>
	<path class="st2" d="M149.95,180.61c0.65-0.59,1.3-1.19,1.95-1.78c0.62,0.48,2.18-0.96,2.07,1.01c-0.36,0.33-0.71,0.65-1.07,0.98
		C151.91,180.75,150.93,180.68,149.95,180.61z"/>
	<path class="st9" d="M152.9,180.82c0.36-0.33,0.71-0.65,1.07-0.98C153.61,180.17,153.26,180.49,152.9,180.82z"/>
	<path class="st2" d="M147.91,181.83c-0.67-0.37-0.68-0.69,0.07-0.95C147.96,181.19,147.94,181.51,147.91,181.83z"/>
	<path class="st2" d="M151.94,176.85c0.01-0.36,0.03-0.73,0.04-1.09C152.65,176.15,152.62,176.51,151.94,176.85z"/>
	<path class="st0" d="M194.01,53.9c-0.63-2.67,0.25-3.97,3.01-5.07c4.96-1.98,10.2-2.7,15.23-4.23c2.68-0.81,3.5,0.22,4.37,2.35
		c11.35,27.83,22.73,55.65,34.19,83.45c1.02,2.49,0.91,3.61-2.03,4.37c-11.25,2.9-11.5,3.1-15.5-7.94c-1.68-4.63-3.63-6.35-8.42-4.5
		c-3.9,1.51-9.78,0.01-11.7,3.54c-1.61,2.98,0.36,7.86,0.64,11.9c0.4,5.86-0.47,6.58-5.83,5.03c0.54-2.05-1.06-3.6-1.27-5.48
		c-0.32-0.46-0.63-0.93-0.95-1.39l0.03,0.05c-0.18-1.08,0.04-2.8-1.84-1.14c-0.03,0.66-0.07,1.32-0.1,1.99
		c-1.77,2.2-0.28,3.56,1.27,4.89l0.01-0.01c-0.28,0.97-0.55,2.07-1.85,1.93c-1.29-0.14-1.22-1.27-1.42-2.26
		c-0.93-4.73,0.28-9.51-0.84-14.33c-1.07-4.61-0.84-9.52-1.21-14.3c-1.4-18.47-3.37-36.91-2.91-55.48
		C196.95,55.26,195.94,54.19,194.01,53.9z M208.84,66.04c-0.34,0.02-0.67,0.04-1.01,0.05c0.98,11.72,1.96,23.43,2.93,35.15
		c1,12.04,0.98,12.01,12.41,8.26c1.93-0.63,2.6-1.24,1.73-3.38C219.48,92.79,214.18,79.4,208.84,66.04z M206.55,58.85
		c1.04-0.8,3.14,1.24,3.46-1.05c0.21-1.54-0.88-2.88-2.61-2.93c-1.87-0.06-3.2,1.25-3.37,2.88
		C203.82,59.57,205.5,58.85,206.55,58.85z"/>
	<path class="st1" d="M34.97,132.78c2.51-2.89-1.86-1.67-2.04-3.4c-0.3-2.99-1.55-5.87-2.25-8.84c-1.73-7.43-3.36-14.89-5.06-22.34
		c-0.63-2.77-0.3-4.94,2.93-5.85c0.95-0.27,2.35-0.43,2.27-2.15c-0.14-3.07,0.77-3.68,4.55-4.33c3.73-0.64,3.07,2.37,3.46,4.1
		c3.85,17.19,8.22,34.25,11.56,51.57c0.97,5.02,2.48,10.2,4.13,15.19c3.27,9.87,3.97,10.05,13.16,7.01c0.41-0.33,0.81-0.66,1.22-1
		c0,0-0.03,0.02-0.03,0.02c0.95-0.18,2.11,0.65,2.41-1.41c0.69-4.68-0.14-9.08-1.48-13.49c-1.01-3.32-2.5-6.82,2.6-8.41
		c1.62-0.51,1.41-1.93,0.67-3.29c-1.37-2.52-3.36-4.01-6.28-4.13c0,0,0.01,0.02,0.01,0.02c-3.78-8.57-3.87-18.14-7.23-26.83
		c-0.95-2.45,0.82-2.32,2.37-2.32c0.14,0.07,0.27,0.14,0.41,0.21c-0.13-0.08-0.26-0.15-0.39-0.23c-4.88-4.46-4.87-10.92-6.72-16.6
		c-0.9-2.75-0.18-4.57,3.21-4.45c0.96,0.03,1.94-0.37,2.9-0.61c3.28-0.82,5-0.23,5.85,3.73c1.39,6.45,2.13,13.01,3.95,19.4
		c3.01,10.57,4.99,21.42,7.97,32c1.17,4.16,0.76,8.92,4.01,12.42c5.67,19.29-7.6,33.98-27.22,29.98c-4.83-0.98-8.8-3.21-11.02-8.25
		c-1.11-2.51-3.49-4.46-3.07-7.61c0.02-3.65,0.04-7.29,0.05-10.94c-0.35-1.41,0.25-4.65-0.73-4.01c-3.47,2.29-3.32-1.05-3.53-2.11
		C36.76,141.48,35.01,137.29,34.97,132.78z"/>
	<path class="st0" d="M155.71,150.96c-2.73-2.07-2.13-5.39-2.79-8.12c-6.11-25.33-11.97-50.71-18.03-76.06
		c-0.65-2.72-0.59-4.18,2.64-4.79c6.52-1.25,12.94-2.99,19.45-4.34c12.32-2.57,21.05,2.22,24.77,14.16
		c2.16,6.95,3.81,14.13,4.89,21.33c1.61,10.76-3.36,18.29-13.7,21.93c-2.18,0.77-4.44,1.44-6.72,1.77c-3.03,0.44-3.7,1.72-3.03,4.72
		c1.74,7.71,4.33,15.28,4.36,23.32C164.79,149.21,161.07,151.68,155.71,150.96z M171.88,94.63c-0.94-4.06-2.12-9.39-3.39-14.69
		c-2.19-9.09-4.92-10.58-13.79-7.88c-2.14,0.65-2.88,1.42-2.25,3.85c2.16,8.32,4,16.73,6.04,25.09c0.25,1.04,0.06,2.4,1.37,3
		C164.03,105.89,171.85,100.64,171.88,94.63z"/>
	<path class="st1" d="M106.78,118.15c-3.57-4.35-4.42-10.48-9.79-13.93c2.55,10.4,5.14,20.78,7.64,31.19
		c2.21,9.21,4.19,18.48,6.53,27.66c0.67,2.65,0.33,3.7-2.44,4.46c-9.73,2.65-9.76,2.77-12.03-6.86
		c-6.41-27.17-12.71-54.37-19.24-81.51c-0.59-2.44,0.28-2.97,2.05-3.4c4.65-1.13,9.33-2.12,13.95-3.36c2.15-0.58,2.6,0.91,3.27,2.18
		c7.46,14.04,14.9,28.08,22.34,42.13c-3.13-0.4-2.56-3.85-4.38-5.36c-0.64-0.53-1.11-1.31-2.03-1.09c-0.86,0.21-1.68,0.98-1.33,1.77
		C113.42,116.83,111.37,118.39,106.78,118.15z"/>
	<path class="st2" d="M270.73,66.97c-0.39-4.69-4.5-8.87-1.63-14.1c0.86-1.56-2.11,0.71-2.46-1.63c-0.82-5.51-2.41-10.91-3.72-16.34
		c-0.45-1.86,0.77-2.27,2.12-2.63c10.8-2.94,21.74-5.3,32.96-4.99c4.44,0.12,8.1,3.23,10.32,7.09c5.02,8.73,7.13,18.34,7.62,28.33
		c0.34,0.37,0.68,0.74,1.02,1.12c0,0-0.01,0.02-0.01,0.02c-0.07,8.8,3.19,16.94,5.15,25.33c0.4,1.73,0.8,3.16-0.33,4.63
		c-1.33,1.73-2.56,0.79-3.79-0.18c-0.68-0.54-1.46-0.9-2.26-0.4c-1.01,0.63-0.53,1.62-0.04,2.13c1.49,1.55-0.98,3.08,0.11,4.55
		c-2.37-0.31-3.61,0.98-4.47,3c-0.51,1.21-0.42,3.21-2.72,2.67c1.53-2.55,1.6-5.42,1.06-8.12c-1.14-5.71-3.51-11.26-1.9-17.25
		c0.71-2.65-1.99-3.04-2.88-4.62c0.76-4.75-1.46-9.02-2.35-13.49c-0.81-4.09,1.62-8.88-2.79-12.33c-1.65-1.29-0.2-4.72-2.95-5.82
		c-0.98-0.99-1.96-1.98-2.94-2.98c-4.68-2.94-9.28,0.29-13.92,0.25c-0.86-0.01-1.13,1.25-0.73,2.03c2.93,5.8-1.32,13.29,4.34,18.47
		c0.37,0.34,0.3,1.27,0.29,1.92c-0.14,6.45-6.28,4.49-9.51,6.53C271.25,72.1,272.75,67.19,270.73,66.97z"/>
	<path class="st1" d="M237.63,40.85c-0.04-0.16-0.16-0.38-0.09-0.48c2.77-4.46,7.92-2.65,11.73-4.4c2.24-1.03,2.79,0.77,3.19,2.49
		c2.09,8.89,4.22,17.77,6.24,26.67c0.23,1.02,1.28,2.57-1.2,2.87c-2.16,0.26-0.21,0.83,0.1,1.14c2.52,2.6,3.69,5.44,2.73,9.21
		c-0.69,2.71,2.47,4.15,3.03,6.57c3.21,13.74,6.37,27.49,9.67,41.2c0.52,2.19-0.27,3.06-2.19,3.44c-3.38,0.67-6.79,1.22-10.14,2.01
		c-2.94,0.68-2.3-1.86-2.57-3c-4.84-20.33-9.55-40.68-14.3-61.03c-2.07-8.89-4.18-17.77-6.27-26.65
		C237.58,40.86,237.61,40.86,237.63,40.85z"/>
	<path class="st0" d="M106.78,118.15c4.59,0.24,6.64-1.32,4.53-6.12c-0.35-0.79,0.47-1.56,1.33-1.77c0.92-0.22,1.4,0.56,2.03,1.09
		c1.82,1.51,1.25,4.96,4.38,5.36c0,0,0.01,0.04,0.01,0.04c0.05,1.15-0.36,2.81,0.24,3.36c3.72,3.41,1.15,5.39-2.63,7.84
		c3.75-0.17,6.02-1.08,8.25-2.12c0.92-0.43,2.21-1.63,1.6-2.12c-4.15-3.37-2.37-9.18-5.56-12.85c0.27-9.01-3.32-17.28-5.18-25.86
		c-0.57-2.62,0.2-6.23-3.05-8c0,0,0.06,0.03,0.06,0.03c0.05-1.33,0.15-2.66,0.15-3.99c0-3.72,2.61-4.65,5.54-5.12
		c2.99-0.48,4.38,0.52,4.74,3.9c0.39,3.74,1.95,7.34,2.82,11.04c2.36,10.06,4.27,20.24,7.11,30.16c1.12,3.91,0.16,8.69,3.93,11.74
		c0,0-0.04-0.04-0.04-0.04c-1.14,5.56,2.27,10.84,1,16.4c-1.58,5.31-4.32,10.04-7.22,14.7c-2.09,3-2.68-1.69-4.34-0.85
		C119.78,142.78,112.8,130.72,106.78,118.15z"/>
	<path class="st5" d="M61.96,102.88c-1.55,0-3.32-0.12-2.37,2.32c3.36,8.69,3.45,18.25,7.23,26.83c-1.98-0.37-2.5-1.84-2.9-3.57
		c-3.29-14.24-6.55-28.5-10.03-42.7c-0.77-3.15-0.08-4.27,3.13-4.95c10.05-2.14,9.96-2.26,12.32,7.83
		c4.37,18.74,8.82,37.46,13.21,56.2c0.3,1.28,0.41,2.61,0.61,3.92c-3.25-3.5-2.84-8.27-4.01-12.42c-2.98-10.58-4.96-21.43-7.97-32
		c-1.82-6.4-2.56-12.96-3.95-19.4c-0.86-3.96-2.57-4.55-5.85-3.73c-0.96,0.24-1.94,0.64-2.9,0.61c-3.39-0.12-4.1,1.7-3.21,4.45
		c1.85,5.69,1.84,12.14,6.72,16.6L61.96,102.88z"/>
	<path class="st5" d="M270.73,66.97c2.02,0.23,0.52,5.14,3.6,3.19c3.23-2.04,9.36-0.08,9.51-6.53c0.01-0.65,0.09-1.57-0.29-1.92
		c-5.66-5.18-1.41-12.67-4.34-18.47c-0.39-0.78-0.13-2.04,0.73-2.03c4.64,0.04,9.24-3.19,13.92-0.25
		c-3.71-0.79-7.21,0.26-10.73,1.18c-1.29,0.34-2.63,0.56-2.31,2.5c1.26,7.76,3.24,15.39,4.84,23.07c1.54,7.4,4.08,14.65,5.29,22.19
		c-0.33-0.03-0.67-0.06-1-0.1c-0.7-2.96-1.4-5.93-2.1-8.89c-0.37-1.06-0.54-2.27-1.16-3.16c-2.02-2.94-6.89-3.88-8.82-1.84
		c-0.33,0.01-0.66,0-0.99-0.03c-0.67-0.86-1.68-1.4-2.37-0.43c-1.12,1.57,1.33,2.32,1.22,3.77c-2.69,0.39-2.8-1.81-3.21-3.42
		C271.78,72.88,271.31,69.91,270.73,66.97z"/>
	<path class="st0" d="M276.87,145.84c-1.89-2.79-4.83-1.25-6.38-0.49c-3.83,1.89-7.83,2.81-11.88,2.97
		c-4.9,0.2-8.63,3.62-13.59,3.93c-2.88,0.18-5.48-0.36-8.21-0.5c23.54-5.61,47.07-11.23,70.61-16.83c2.37-0.56,4.76-0.99,7.14-1.49
		c-2.15,4.86-6.96,3.44-10.66,4.3c-8.43,1.94-17.22,2.58-24.63,7.76C278.68,145.9,277.68,145.74,276.87,145.84z"/>
	<path class="st5" d="M194.01,53.9c1.93,0.29,2.94,1.36,2.89,3.37c-0.46,18.57,1.51,37.01,2.91,55.48c0.36,4.78,0.13,9.69,1.21,14.3
		c1.12,4.82-0.09,9.61,0.84,14.33c0.19,0.99,0.13,2.12,1.42,2.26c1.3,0.14,1.57-0.95,1.85-1.93c0.45,0.4,0.9,0.8,1.36,1.2
		c-0.22,3.41-3.23,2.39-4.9,2.56c-1.49,0.15-1.09-2.08-1.17-3.28c-1.87-26.14-3.69-52.27-5.53-78.41
		C194.64,60.49,194.3,57.19,194.01,53.9z"/>
	<path class="st2" d="M126.48,154.98c1.67-0.83,2.25,3.86,4.34,0.85c2.3,2.27,3.04-0.01,3.73-1.46c0.73-1.53,0.88-3.34,2.08-4.68
		c1,0.06,2,0.12,3,0.18c0.79,1.86,3.69-0.31,4.38,2.86c1.3,6,1.72,5.91-4.37,7.44C130.69,162.44,129.79,162.08,126.48,154.98z"/>
	<path class="st1" d="M137.08,124.77c-3.77-3.05-2.81-7.83-3.93-11.74c-2.84-9.92-4.75-20.1-7.11-30.16
		c-0.87-3.7-2.43-7.3-2.82-11.04c-0.36-3.38-1.75-4.38-4.74-3.9c-2.94,0.48-5.54,1.4-5.54,5.12c0,1.33-0.1,2.66-0.15,3.99
		c-1.18-1.17-0.71-2.85-1.29-4.21c-1.4-3.3-0.18-4.66,3.25-5.46c8.66-2.03,8.68-2.21,10.68,6.44
		C129.36,90.78,133.2,107.78,137.08,124.77z"/>
	<path class="st4" d="M315.8,99.89c-1.1-1.47,1.37-3-0.11-4.55c-0.49-0.51-0.97-1.51,0.04-2.13c0.81-0.5,1.58-0.13,2.26,0.4
		c1.22,0.97,2.46,1.91,3.79,0.18c1.12-1.47,0.73-2.89,0.33-4.63c-1.96-8.39-5.23-16.53-5.15-25.33c2.58,10.48,5.33,20.93,7.67,31.47
		c0.92,4.14,1.16,8.51-0.76,12.61c-0.1-0.32-0.19-0.65-0.28-0.98c0.08-1.69,0.16-3.37,0.24-5.05c0.04-0.33,0.04-0.66,0.02-0.99
		c0.47-3.13-0.84-4.48-3.99-4c-0.33,0.33-0.67,0.66-1,0.99C317.88,98.62,318.39,101.6,315.8,99.89z"/>
	<path class="st4" d="M155.71,150.96c5.36,0.72,9.08-1.74,11.84-6.08c2.04,1.55,2.15,3.89,2.57,6.14c0.28,1.5-0.41,2.51-1.66,2.42
		c-3.8-0.27-7.03,1.63-10.51,2.3C153.6,156.59,156.72,152.5,155.71,150.96z"/>
	<path class="st5" d="M66.8,132.01c2.92,0.12,4.91,1.62,6.28,4.13c0.74,1.36,0.95,2.78-0.67,3.29c-5.09,1.6-3.6,5.09-2.6,8.41
		c1.34,4.41,2.16,8.81,1.48,13.49c-0.3,2.06-1.46,1.23-2.41,1.41c1.64-2.71,1.68-5.65,1.02-8.61c-1.29-5.79-2.59-11.58-4.09-17.31
		c-0.46-1.75-2.36-3.56,1.66-2.69C68.35,134.33,66.8,132.84,66.8,132.01z M70.37,138.57c-0.33-1.47-1.09-2.24-2.33-2.38
		c-0.53-0.06-0.92,0.39-0.74,0.96C67.7,138.42,68.59,138.94,70.37,138.57z"/>
	<path class="st2" d="M323.57,106.93c0.1,0.32,0.19,0.65,0.29,0.97c-2.33,7.32-7.88,10.61-14.96,12.01c0,0-0.13-0.19-0.13-0.19
		c0.66-2.57,7.12-1.26,4.21-6.08c-1.12-1.86-0.92-3.27,0.59-4.27c1.45-0.95,3.19-0.91,4.39,0.79c1.62,2.3,2.42,1.28,3.34-0.64
		C321.76,108.52,322.79,107.78,323.57,106.93z"/>
	<path class="st2" d="M280.61,109.07c-2.57-7.95-3.9-16.2-5.91-24.29c-0.56-2.25,0.55-3.37,1.89-4.61c0.12-0.13,0.24-0.26,0.37-0.38
		c0.49,0.03,0.99,0.05,1.48,0.1c1.63,0.16,3.74,0.27,3.85,2.18c0.12,1.95-2.04,1.55-3.4,1.9c-3.31,0.86-1.85,3.17-1.42,5.14
		c1.41,6.51,3.6,12.87,3.53,19.65L280.61,109.07z"/>
	<path class="st2" d="M308.9,119.92c-7.25,3.26-15.22,3.78-22.77,5.93c-1.93,0.55-2.08-1.01-2.36-2.32
		c-1.04-4.82-2.1-9.63-3.16-14.45c0,0,0.38-0.32,0.38-0.32c3.29,3.2,2.78,7.78,3.6,11.66c0.83,3.91,2.46,3.59,5.06,2.89
		c6.27-1.71,12.61-3.06,19.1-3.58L308.9,119.92z"/>
	<path class="st1" d="M112.73,77c3.25,1.77,2.48,5.38,3.05,8c1.86,8.58,5.46,16.85,5.18,25.86l-0.17,0.12
		c-0.24-0.12-0.49-0.24-0.75-0.35c-1.78-7.98-3.59-15.95-5.34-23.94C114,83.48,113.38,80.24,112.73,77z"/>
	<path class="st1" d="M120.96,110.87c3.19,3.67,1.41,9.48,5.56,12.85c0.6,0.49-0.68,1.69-1.6,2.12c-2.23,1.03-4.5,1.95-8.25,2.12
		c3.78-2.45,6.34-4.43,2.63-7.84c-0.6-0.55-0.18-2.21-0.24-3.36c0.35,0.34,0.69,0.68,1.04,1.02c0.08,0.82,0.38,1.75,1.19,1.77
		c1.2,0.02,0.83-1.13,0.71-1.77c-0.19-1.05-0.62-2.06-0.96-3.09c-0.1-0.59-0.21-1.17-0.31-1.76c0.02-0.64,0.05-1.29,0.07-1.93
		L120.96,110.87z"/>
	<path class="st4" d="M34.97,132.78c0.04,4.52,1.79,8.7,2.66,13.06c0.21,1.06,0.06,4.4,3.53,2.11c0.98-0.64,0.38,2.6,0.73,4.01
		c-2.03-0.26-2.04,1.18-1.75,2.41c0.36,1.55,0.65,3-0.25,4.44c-2.69-7.96-4-16.26-6.03-24.38
		C33.61,133.49,33.86,132.83,34.97,132.78z"/>
	<path class="st6" d="M136.63,149.7c-1.2,1.34-1.35,3.15-2.08,4.68c-0.69,1.45-1.43,3.72-3.73,1.46c2.9-4.66,5.64-9.4,7.22-14.7
		c1.81-1.36,2.34-3.2,2.04-5.36c1.27,1.92,1.95,4,1.67,6.33c-0.61-0.34-1.23-1.31-1.82,0.04
		C138.84,144.67,137.73,147.18,136.63,149.7z"/>
	<path class="st5" d="M136.63,149.7c1.1-2.52,2.21-5.04,3.31-7.56c0.58-1.34,1.2-0.38,1.82-0.04c0.56,2.94,1.36,5.94-2.12,7.77
		C138.63,149.82,137.63,149.76,136.63,149.7z"/>
	<path class="st1" d="M328.84,133.85l-0.5,0c0,0-0.5,0-0.5,0c-0.71-1.26-1.13-2.59-1.06-4.05c2.62-2.07,5.23-4.13,7.85-6.2
		c-0.57,2.25-2.81,3.74-2.79,6.25c0,0,0,0,0,0c-1.3,0.03-1.96,0.7-1.99,1.99C329.04,132.28,328.86,133.03,328.84,133.85z"/>
	<path class="st1" d="M140.08,135.78c0.3,2.16-0.22,4-2.04,5.36c1.27-5.56-2.14-10.84-1-16.4
		C138.05,128.42,139.07,132.1,140.08,135.78z"/>
	<path class="st6" d="M206.47,142.92c-0.45-0.4-0.9-0.8-1.36-1.2c0,0-0.01,0.01-0.01,0.01c-0.43-1.63-0.85-3.26-1.27-4.89
		c0.03-0.66,0.07-1.32,0.1-1.98c0.61,0.38,1.22,0.76,1.84,1.14c0,0-0.03-0.05-0.03-0.05c0.32,0.46,0.63,0.93,0.95,1.39
		c0.21,1.88,1.8,3.43,1.27,5.48C207.47,142.84,206.97,142.88,206.47,142.92z"/>
	<path class="st7" d="M39.88,158.81c0.9-1.44,0.61-2.89,0.25-4.44c-0.28-1.23-0.28-2.67,1.75-2.41c-0.02,3.64-0.04,7.29-0.05,10.94
		C41.06,161.58,39.66,160.58,39.88,158.81z"/>
	<path class="st2" d="M275.72,79.21c0.11-1.45-2.34-2.2-1.22-3.77c0.69-0.97,1.7-0.43,2.37,0.43c0.03,1.31,0.06,2.62,0.09,3.93
		c-0.12,0.13-0.25,0.25-0.37,0.38C276.3,79.85,276.01,79.53,275.72,79.21z"/>
	<path class="st6" d="M121.04,114.68c0.33,1.03,0.76,2.03,0.96,3.09c0.12,0.64,0.5,1.79-0.71,1.77c-0.81-0.01-1.11-0.95-1.19-1.77
		C121.23,116.99,120.63,115.68,121.04,114.68z"/>
	<path class="st1" d="M323.82,130.99c-0.52,0.75-1.27,0.85-2.09,0.78C322.43,131.51,323.12,131.25,323.82,130.99z"/>
	<path class="st6" d="M120.8,110.99c-0.02,0.64-0.05,1.29-0.07,1.93c-0.83-0.58-0.92-1.38-0.67-2.28
		C120.3,110.75,120.55,110.87,120.8,110.99z"/>
	<path class="st4" d="M316.96,63.81c-0.34-0.37-0.68-0.74-1.02-1.12C316.51,62.85,317.02,63.07,316.96,63.81z"/>
	<path class="st5" d="M68.9,162.74c-0.41,0.33-0.81,0.66-1.22,1C68.09,163.4,68.5,163.07,68.9,162.74z"/>
	<path class="st1" d="M333.85,132.86c-0.67-0.34-1.35-0.68-2.02-1.01c0-0.66,0.01-1.33,0.01-1.99c0,0,0,0,0,0
		C333.34,130.3,335.61,130.24,333.85,132.86z"/>
	<path class="st9" d="M331.84,129.86c0,0.66-0.01,1.33-0.01,1.99c-0.66,0-1.32,0-1.98,0C329.88,130.55,330.54,129.88,331.84,129.86z
		"/>
	<path class="st0" d="M254.39,154.53c-0.39,0.36-0.69,0.76-1.09,0.98c-0.16,0.09-0.53-0.2-0.81-0.32c0.32-0.35,0.59-0.77,0.97-1.03
		C253.6,154.07,253.99,154.36,254.39,154.53z"/>
	<polygon class="st0" points="276.87,145.84 276.64,146.26 276.45,146.07 	"/>
	<path class="st10" d="M206.55,58.85c-1.05,0-2.72,0.72-2.53-1.1c0.17-1.63,1.51-2.94,3.37-2.88c1.73,0.06,2.83,1.39,2.61,2.93
		C209.69,60.1,207.59,58.06,206.55,58.85z"/>
	<path class="st5" d="M203.83,136.84c0.42,1.63,0.85,3.26,1.27,4.89C203.55,140.4,202.06,139.04,203.83,136.84z"/>
	<path class="st5" d="M205.77,135.99c-0.61-0.38-1.22-0.76-1.84-1.14C205.81,133.19,205.59,134.91,205.77,135.99z"/>
	<path class="st5" d="M206.69,137.33c-0.32-0.46-0.63-0.93-0.95-1.39C206.06,136.4,206.38,136.86,206.69,137.33z"/>
	<path class="st5" d="M61.97,102.87c0.13,0.08,0.26,0.15,0.39,0.23c-0.14-0.07-0.27-0.14-0.41-0.21
		C61.96,102.88,61.97,102.87,61.97,102.87z"/>
	<path class="st9" d="M276.96,79.79c-0.03-1.31-0.06-2.62-0.09-3.93c0.33,0.03,0.66,0.04,0.99,0.03c3.66,1.01,7.35,1.94,9.98,5
		c0.7,2.96,1.4,5.93,2.1,8.89c0.37,0.32,0.74,0.65,1.1,0.97c0,0-0.04-0.03-0.04-0.03c-0.58,2.78,1.35,6.68-3.63,7.53
		c-0.63,0.11-2.8,1.83-1.36,3.57c1.47,1.77,2.67,0.07,3.67-0.79c1.89-1.62,2.63-1.66,2.78,1.17c0.11,2.06,0.43,4.32,2.57,5.58
		c0,0-0.07-0.09-0.07-0.09c0.32,0.38,0.63,0.77,0.95,1.15l-0.03-0.02c3.3,2.29,6.24,1.9,8.82-1.19c0,0-0.04,0.05-0.04,0.05
		c1.62-0.09,3.98,1.24,3.91-2.06c0,0,0.04-0.06,0.04-0.06c2.3,0.55,2.2-1.45,2.72-2.67c0.86-2.02,2.1-3.31,4.47-3
		c2.59,1.7,2.08-1.28,3.04-2.02c0.33-0.33,0.67-0.66,1-0.99c3.15-0.48,4.46,0.87,3.99,4c-0.13,0.09-0.39,0.22-0.38,0.27
		c0.08,0.25,0.23,0.49,0.35,0.73c-0.08,1.68-0.16,3.37-0.24,5.05c-0.78,0.85-1.81,1.59-2.28,2.59c-0.91,1.92-1.72,2.94-3.34,0.64
		c-1.19-1.7-2.94-1.74-4.39-0.79c-1.51,1-1.72,2.41-0.59,4.27c2.91,4.82-3.55,3.51-4.21,6.08c-6.5,0.51-12.83,1.87-19.1,3.58
		c-2.61,0.71-4.23,1.02-5.06-2.89c-0.83-3.88-0.31-8.46-3.6-11.66c0.07-6.77-2.12-13.14-3.53-19.65c-0.43-1.97-1.88-4.27,1.42-5.14
		c1.37-0.36,3.52,0.05,3.4-1.9c-0.11-1.91-2.22-2.02-3.85-2.18C277.95,79.84,277.45,79.82,276.96,79.79z M306.23,113.27
		c-0.19,0.28-0.45,0.66-0.7,1.04c0.28,0.14,0.62,0.46,0.82,0.39c0.39-0.14,0.94-0.45,1-0.77
		C307.47,113.37,306.95,113.18,306.23,113.27z"/>
	<path class="st5" d="M304.89,75.57c-2.88-8.29-4.02-17-6.28-25.44c-0.56-2.08-1.21-4.13-1.81-6.2c2.76,1.1,1.3,4.53,2.95,5.82
		c4.42,3.45,1.98,8.24,2.79,12.33C303.43,66.55,305.66,70.82,304.89,75.57z"/>
	<path class="st2" d="M287.85,80.89c-2.63-3.06-6.32-4-9.98-5c1.93-2.04,6.8-1.1,8.82,1.84C287.3,78.63,287.47,79.83,287.85,80.89z"
		/>
	<path class="st2" d="M291.05,90.75c-0.37-0.32-0.74-0.65-1.1-0.97c0.33,0.03,0.67,0.06,1,0.1
		C291.12,90.15,291.15,90.45,291.05,90.75z"/>
	<path class="st2" d="M323.81,101.88c-0.12-0.24-0.27-0.47-0.35-0.73c-0.01-0.04,0.24-0.18,0.38-0.27
		C323.86,101.21,323.85,101.55,323.81,101.88z"/>
	<path class="st2" d="M319.85,96.88c-0.33,0.33-0.67,0.66-1,0.99C319.18,97.55,319.51,97.21,319.85,96.88z"/>
	<path class="st1" d="M70.37,138.57c-1.78,0.37-2.67-0.15-3.07-1.41c-0.18-0.57,0.21-1.02,0.74-0.96
		C69.29,136.33,70.04,137.1,70.37,138.57z"/>
	<path class="st2" d="M295.04,107.78c-2.14-1.26-2.46-3.52-2.57-5.58c-0.15-2.83-0.88-2.79-2.78-1.17c-1,0.85-2.2,2.56-3.67,0.79
		c-1.44-1.73,0.73-3.46,1.36-3.57c4.98-0.85,3.05-4.76,3.63-7.53C293.19,96.21,294.39,101.93,295.04,107.78z"/>
	<path class="st2" d="M304.71,107.63c-2.58,3.09-5.52,3.48-8.82,1.19C298.95,109.35,301.74,107.86,304.71,107.63z"/>
	<path class="st2" d="M308.58,105.62c0.07,3.3-2.29,1.97-3.91,2.06C305.97,106.99,307.27,106.31,308.58,105.62z"/>
	<path class="st2" d="M295.92,108.84c-0.32-0.38-0.63-0.77-0.95-1.15C295.29,108.07,295.6,108.46,295.92,108.84z"/>
	<path class="st2" d="M306.23,113.27c0.72-0.09,1.23,0.1,1.12,0.65c-0.06,0.32-0.61,0.64-1,0.77c-0.2,0.07-0.54-0.25-0.82-0.39
		C305.79,113.93,306.04,113.55,306.23,113.27z"/>
</g>
</svg>
