<?xml version="1.0" encoding="utf-8"?>
<!-- Generator: Adobe Illustrator 24.0.0, SVG Export Plug-In . SVG Version: 6.00 Build 0)  -->
<svg version="1.1" id="Capa_1" xmlns="http://www.w3.org/2000/svg" xmlns:xlink="http://www.w3.org/1999/xlink" x="0px" y="0px"
	 viewBox="0 0 477.9 477.9" style="enable-background:new 0 0 477.9 477.9;" xml:space="preserve">
<style type="text/css">
	.st0{fill:#FFFFFF;}
</style>
<g>
	<g>
		<path class="st0" d="M460.8,119.5h-85.3V17.1c0-9.4-7.6-17.1-17.1-17.1H119.5c-9.4,0-17.1,7.6-17.1,17.1v102.4H17.1
			c-9.4,0-17.1,7.6-17.1,17.1v221.9c0,9.4,7.6,17.1,17.1,17.1h85.3v85.3c0,9.4,7.6,17.1,17.1,17.1h238.9c9.4,0,17.1-7.6,17.1-17.1
			v-85.3h85.3c9.4,0,17.1-7.6,17.1-17.1V136.5C477.9,127.1,470.2,119.5,460.8,119.5z M136.5,34.1h204.8v85.3H136.5V34.1z
			 M341.3,443.7H136.5V290.1h204.8V443.7z M443.7,341.3h-68.3v-51.2h17.1c9.4,0,17.1-7.6,17.1-17.1S402,256,392.5,256H85.3
			c-9.4,0-17.1,7.6-17.1,17.1s7.6,17.1,17.1,17.1h17.1v51.2H34.1V153.6h409.6V341.3z"/>
	</g>
</g>
<g>
	<g>
		<path class="st0" d="M409.6,187.7h-17.1c-9.4,0-17.1,7.6-17.1,17.1s7.6,17.1,17.1,17.1h17.1c9.4,0,17.1-7.6,17.1-17.1
			S419,187.7,409.6,187.7z"/>
	</g>
</g>
<g>
	<g>
		<path class="st0" d="M290.1,324.3H187.7c-9.4,0-17.1,7.6-17.1,17.1s7.6,17.1,17.1,17.1h102.4c9.4,0,17.1-7.6,17.1-17.1
			S299.6,324.3,290.1,324.3z"/>
	</g>
</g>
<g>
	<g>
		<path class="st0" d="M290.1,375.5H187.7c-9.4,0-17.1,7.6-17.1,17.1s7.6,17.1,17.1,17.1h102.4c9.4,0,17.1-7.6,17.1-17.1
			S299.6,375.5,290.1,375.5z"/>
	</g>
</g>
</svg>
