<svg xmlns="http://www.w3.org/2000/svg" width="41.141" height="41.141" viewBox="0 0 41.141 41.141">
  <g id="Group_188" data-name="Group 188" transform="translate(-724.645 -873.685)">
    <g id="Outline" transform="translate(724.645 873.685)">
      <path id="Path_105" data-name="Path 105" d="M26.285,39.313H18.743A2.746,2.746,0,0,1,16,36.571V18.743A2.746,2.746,0,0,1,18.743,16H36.571a2.746,2.746,0,0,1,2.743,2.743V30.4H37.942V18.743a1.373,1.373,0,0,0-1.371-1.371H18.743a1.373,1.373,0,0,0-1.371,1.371V36.571a1.373,1.373,0,0,0,1.371,1.371h7.543Z" transform="translate(-16 -16)" fill="#262626"/>
      <path id="Path_106" data-name="Path 106" d="M68.8,65.828H64.686A.686.686,0,0,1,64,65.142V48.686A.686.686,0,0,1,64.686,48h8.228a6.171,6.171,0,0,1,0,12.342H69.486v4.8A.686.686,0,0,1,68.8,65.828Zm-3.428-1.371h2.743v-4.8a.686.686,0,0,1,.686-.686h4.114a4.8,4.8,0,1,0,0-9.6H65.371Zm7.543-8.228H68.8a.686.686,0,0,1-.686-.686V52.8a.686.686,0,0,1,.686-.686h4.114a2.057,2.057,0,1,1,0,4.114Zm-3.428-1.371h3.428a.686.686,0,0,0,0-1.371H69.486Z" transform="translate(-59.886 -45.257)" fill="#262626"/>
      <path id="Path_107" data-name="Path 107" d="M144.027,211.172a3,3,0,0,0-2.047-.884l-2.8-8.412a2.74,2.74,0,0,0-2.6-1.875H120.34a2.74,2.74,0,0,0-2.6,1.875l-2.8,8.412A3.026,3.026,0,0,0,112,213.312v5.2a2.746,2.746,0,0,0,2.743,2.743h4.8V224h-4.114v-1.371h-1.371V224a1.373,1.373,0,0,0,1.371,1.371h4.114A1.373,1.373,0,0,0,120.914,224v-2.743H136V224a1.373,1.373,0,0,0,1.371,1.371h4.114A1.373,1.373,0,0,0,142.856,224v-2.83a2.748,2.748,0,0,0,2.057-2.656v-5.2A3.007,3.007,0,0,0,144.027,211.172Zm-23.687-9.8h16.234a1.37,1.37,0,0,1,1.3.938l.145.434H118.894l.145-.434A1.37,1.37,0,0,1,120.34,201.371Zm-1.9,2.743h20.039l2.057,6.171H116.38ZM141.485,224h-4.114v-2.743h4.114V224Zm2.057-5.486a1.373,1.373,0,0,1-1.371,1.371H114.743a1.373,1.373,0,0,1-1.371-1.371v-5.2a1.655,1.655,0,0,1,1.655-1.655h26.86a1.655,1.655,0,0,1,1.655,1.655Z" transform="translate(-103.772 -184.229)" fill="#262626"/>
      <path id="Path_108" data-name="Path 108" d="M146.743,352a2.743,2.743,0,1,0,2.743,2.743A2.743,2.743,0,0,0,146.743,352Zm0,4.114a1.371,1.371,0,1,1,1.371-1.371A1.371,1.371,0,0,1,146.743,356.114Z" transform="translate(-133.029 -323.201)" fill="#262626"/>
      <path id="Path_109" data-name="Path 109" d="M402.743,352a2.743,2.743,0,1,0,2.743,2.743A2.743,2.743,0,0,0,402.743,352Zm0,4.114a1.371,1.371,0,1,1,1.371-1.371A1.371,1.371,0,0,1,402.743,356.114Z" transform="translate(-367.087 -323.201)" fill="#262626"/>
      <path id="Path_110" data-name="Path 110" d="M224,360h13.714v1.371H224Z" transform="translate(-206.172 -330.515)" fill="#262626"/>
      <path id="Path_111" data-name="Path 111" d="M224,392h13.714v1.371H224Z" transform="translate(-206.172 -359.773)" fill="#262626"/>
    </g>
  </g>
</svg>
