<svg id="Layer_1" enable-background="new 0 0 496.011 496.011" height="512" viewBox="0 0 496.011 496.011" width="512" xmlns="http://www.w3.org/2000/svg"><path d="m495.49 463.983-20-77c-1.832-7.054-8.199-11.978-15.486-11.978h-67.697l-25.737-56.621c-2.596-5.712-8.292-9.379-14.566-9.379h-88v-88.373l38.627-38.627h44.623c56.657 0 102.75-46.094 102.75-102.75v-51.25c0-8.837-7.164-16-16-16h-51.25c-56.657 0-102.75 46.094-102.75 102.75v44.623l-16 16v-18.373c0-8.837-7.164-16-16-16s-16 7.163-16 16v68.373l-16-16v-44.623c0-56.656-46.093-102.75-102.75-102.75h-51.25c-8.836 0-16 7.163-16 16v51.25c0 56.656 46.093 102.75 102.75 102.75h44.623l38.627 38.627v38.373h-118c-6.274 0-11.97 3.667-14.566 9.379l-26.496 58.292-49.656 8.562c-6.804 1.173-12.087 6.577-13.106 13.405l-10 67c-1.444 9.676 6.065 18.362 15.825 18.362h93c6.898 0 6.994-1.315 41.174-26h74.826c4.244 0 8.313-1.686 11.313-4.687l46.314-46.313h164.998l11.688 45h-166.315c-8.836 0-16 7.163-16 16s7.164 16 16 16h187c10.459 0 18.116-9.892 15.487-20.022zm-183.487-349.228c0-39.012 31.738-70.75 70.75-70.75h35.25v35.25c0 39.012-31.738 70.75-70.75 70.75h-35.25zm-234 14.5v-35.25h35.25c39.012 0 70.75 31.738 70.75 70.75v35.25h-35.25c-39.012 0-70.75-31.738-70.75-70.75zm198 245.75c-4.244 0-8.313 1.686-11.313 4.687l-46.314 46.313h-73.373c-6.898 0-6.994 1.315-41.174 26h-69.26l5.552-37.198 46.601-8.034c5.22-.9 9.656-4.325 11.848-9.146l25.737-56.621h217.393l15.455 34h-81.152z"/></svg>