<svg xmlns="http://www.w3.org/2000/svg" width="28.592" height="40.839" viewBox="0 0 28.592 40.839">
  <g id="Group_190" data-name="Group 190" transform="translate(-1502 -180.019)">
    <g id="bill" transform="translate(1425.23 180.019)">
      <g id="Group_72" data-name="Group 72" transform="translate(76.77)">
        <path id="Path_118" data-name="Path 118" d="M138.723,313.312a.6.6,0,0,0,.6-.6v-.392a2.231,2.231,0,0,0,1.678-1.7,2.121,2.121,0,0,0-1.323-2.406l-.355-.158V306.24a2.088,2.088,0,0,1,.35.174.6.6,0,0,0,.68-.984,3.4,3.4,0,0,0-1.03-.444v-.329a.6.6,0,1,0-1.2,0v.254c-.091.012-.182.028-.276.05a1.841,1.841,0,0,0-1.39,1.478,1.82,1.82,0,0,0,.7,1.851,7.169,7.169,0,0,0,.968.537v2.347a1.755,1.755,0,0,1-.731-.321.6.6,0,0,0-.655,1,2.827,2.827,0,0,0,1.386.523v.338A.6.6,0,0,0,138.723,313.312Zm1.105-2.932a1.012,1.012,0,0,1-.507.671v-1.673A.908.908,0,0,1,139.828,310.38Zm-1.985-3.072a.636.636,0,0,1-.209-.643.667.667,0,0,1,.484-.54h.007v1.357C138.016,307.421,137.92,307.363,137.843,307.309Z" transform="translate(-131.664 -279.805)"/>
        <path id="Path_119" data-name="Path 119" d="M104.764,0h-27.4a.6.6,0,0,0-.6.6V26.544a.6.6,0,0,0,1.2,0V1.2h26.2V6.3a.6.6,0,1,0,1.2,0V.6a.6.6,0,0,0-.6-.6Z" transform="translate(-76.77)"/>
        <path id="Path_120" data-name="Path 120" d="M104.764,106.59a.6.6,0,0,0-.6.6V136.7l-1.686-1.983a.6.6,0,0,0-.912,0L99.285,137.4,97,134.718a.6.6,0,0,0-.912,0L93.806,137.4l-2.284-2.687a.6.6,0,0,0-.912,0L88.326,137.4l-2.283-2.687a.6.6,0,0,0-.912,0L82.847,137.4l-2.283-2.687a.6.6,0,0,0-.912,0L77.966,136.7v-9.269a.6.6,0,1,0-1.2,0v10.9a.6.6,0,0,0,1.054.387l2.284-2.687,2.283,2.687a.6.6,0,0,0,.912,0l2.284-2.687,2.283,2.687a.6.6,0,0,0,.912,0l2.284-2.687,2.284,2.687a.6.6,0,0,0,.912,0l2.283-2.687,2.284,2.687a.6.6,0,0,0,.912,0l2.283-2.687,2.284,2.687a.6.6,0,0,0,1.054-.387v-31.14a.6.6,0,0,0-.6-.6Z" transform="translate(-76.77 -98.088)"/>
        <path id="Path_121" data-name="Path 121" d="M172.687,32.325h-14.5a.6.6,0,0,0-.6.6V35.5a.6.6,0,0,0,.6.6h14.5a.6.6,0,0,0,.6-.6V32.923A.6.6,0,0,0,172.687,32.325Zm-.6,2.578H158.781V33.521h13.307V34.9Z" transform="translate(-151.139 -29.747)"/>
        <path id="Path_122" data-name="Path 122" d="M115.757,178.984h12.892a.6.6,0,0,0,0-1.2H115.757a.6.6,0,0,0,0,1.2Z" transform="translate(-112.097 -163.607)"/>
        <path id="Path_123" data-name="Path 123" d="M115.159,137.98a.6.6,0,0,0,.6.6h12.892a.6.6,0,0,0,0-1.2H115.757A.6.6,0,0,0,115.159,137.98Z" transform="translate(-112.097 -126.424)"/>
        <path id="Path_124" data-name="Path 124" d="M115.757,219.391h12.892a.6.6,0,1,0,0-1.2H115.757a.6.6,0,1,0,0,1.2Z" transform="translate(-112.097 -200.791)"/>
        <path id="Path_125" data-name="Path 125" d="M115.757,259.8h12.892a.6.6,0,1,0,0-1.2H115.757a.6.6,0,1,0,0,1.2Z" transform="translate(-112.097 -237.974)"/>
        <path id="Path_126" data-name="Path 126" d="M350.833,177.788h-2.74a.6.6,0,0,0,0,1.2h2.74a.6.6,0,0,0,0-1.2Z" transform="translate(-325.901 -163.607)"/>
        <path id="Path_127" data-name="Path 127" d="M350.833,137.382h-2.74a.6.6,0,0,0,0,1.2h2.74a.6.6,0,0,0,0-1.2Z" transform="translate(-325.901 -126.424)"/>
        <path id="Path_128" data-name="Path 128" d="M350.833,218.2h-2.74a.6.6,0,0,0,0,1.2h2.74a.6.6,0,0,0,0-1.2Z" transform="translate(-325.901 -200.791)"/>
        <path id="Path_129" data-name="Path 129" d="M350.833,258.6h-2.74a.6.6,0,0,0,0,1.2h2.74a.6.6,0,0,0,0-1.2Z" transform="translate(-325.901 -237.974)"/>
        <path id="Path_130" data-name="Path 130" d="M350.833,299.008h-2.74a.6.6,0,0,0,0,1.2h2.74a.6.6,0,0,0,0-1.2Z" transform="translate(-325.901 -275.158)"/>
      </g>
    </g>
  </g>
</svg>
