<svg xmlns="http://www.w3.org/2000/svg" width="39.941" height="39.717" viewBox="0 0 39.941 39.717">
  <g id="Group_191" data-name="Group 191" transform="translate(-1507 -185.961)">
    <g id="fork" transform="translate(1507 185.463)">
      <path id="Path_255" data-name="Path 255" d="M81.477,21.931l2.347-.149h.012a5.526,5.526,0,0,0,4.119-2.4l1.855-2.722A10.983,10.983,0,0,0,91.571,8.6a2.478,2.478,0,0,0-2.325-2.061A10.98,10.98,0,0,0,81.457,9.25l-2.48,2.168A5.526,5.526,0,0,0,77.084,15.8s0,.008,0,.012l.134,2.347a3.3,3.3,0,0,1-.919,2.476l-19.374,19.9a2.815,2.815,0,0,0-.754,2.09,3.236,3.236,0,0,0,3.28,3.146q.129,0,.257-.01a2.816,2.816,0,0,0,1.987-1L79.128,23.141a3.3,3.3,0,0,1,2.349-1.21Zm-3.279.457L60.766,44a1.63,1.63,0,0,1-1.153.564,2.045,2.045,0,0,1-2.245-1.991,1.627,1.627,0,0,1,.418-1.209l19.372-19.9a4.506,4.506,0,0,0,1.255-3.377l-.134-2.341a4.334,4.334,0,0,1,1.485-3.427l2.48-2.168a9.8,9.8,0,0,1,6.944-2.42,1.282,1.282,0,0,1,1.2,1.065,9.791,9.791,0,0,1-1.57,7.184L86.965,18.7a4.334,4.334,0,0,1-3.224,1.885l-2.34.148a4.508,4.508,0,0,0-3.2,1.652Zm0,0" transform="translate(-51.787 -5.554)"/>
      <path id="Path_256" data-name="Path 256" d="M305.925,298.888l-12.99-11.832a.6.6,0,1,0-.806.885l12.987,11.829a1.63,1.63,0,0,1,.494,1.185,2.045,2.045,0,0,1-2.122,2.122,1.628,1.628,0,0,1-1.182-.49L290.73,289.878a.6.6,0,1,0-.885.806L301.423,303.4a2.815,2.815,0,0,0,2.041.878h.063a3.241,3.241,0,0,0,3.279-3.343,2.818,2.818,0,0,0-.881-2.044Zm0,0" transform="translate(-267.09 -264.059)"/>
      <path id="Path_257" data-name="Path 257" d="M7.225,16.264a5.544,5.544,0,0,0,3.625,1.466h.012l2.351.007A3.3,3.3,0,0,1,15.63,18.8l1.036,1.137a.6.6,0,1,0,.885-.806l-1.037-1.138a4.505,4.505,0,0,0-3.3-1.455l-2.345-.007a4.35,4.35,0,0,1-2.81-1.124l-6.814-8.1a.207.207,0,0,1,.3-.279l6.2,6.2a1.574,1.574,0,0,0,2.224,0l.729-.729h0L12,11.208h0l.729-.729a1.574,1.574,0,0,0,0-2.224l-6.2-6.2a.207.207,0,0,1,.279-.3l8.1,6.814a4.348,4.348,0,0,1,1.124,2.81l.007,2.345a4.509,4.509,0,0,0,1.457,3.3l1.11,1.011a.6.6,0,1,0,.806-.885L18.306,16.13a3.3,3.3,0,0,1-1.067-2.417l-.007-2.351s0-.009,0-.013a5.544,5.544,0,0,0-1.466-3.625.6.6,0,0,0-.055-.053L7.58.831A1.4,1.4,0,0,0,5.683,2.9l6.2,6.2a.376.376,0,0,1,0,.531l-.306.305L4.667,3.025a.6.6,0,0,0-.847.847l6.913,6.913-.448.448L3.373,4.319a.6.6,0,0,0-.847.847l6.912,6.913-.305.306a.376.376,0,0,1-.531,0l-6.2-6.2a1.4,1.4,0,0,0-2.067,1.9l6.84,8.13a.557.557,0,0,0,.052.055Zm0,0" transform="translate(0 0)"/>
    </g>
  </g>
</svg>
