<svg xmlns="http://www.w3.org/2000/svg" width="40.5" height="40.5" viewBox="0 0 40.5 40.5">
  <g id="Safe" transform="translate(-2 -2)">
    <path id="Path_258" data-name="Path 258" d="M38.868,46.769a2.305,2.305,0,0,0-2.052-.371l-9.261,2.727h-5.13L18.78,47.1h6.845a.675.675,0,0,0,.675-.675V44.4a.7.7,0,0,0-.2-.479l-1.35-1.35a.684.684,0,0,0-.344-.182L14.285,40.363a.915.915,0,0,0-.135-.014H10.1a.632.632,0,0,0-.25.047l-2.45.979V40.35a.675.675,0,0,0-.567-.668l-4.05-.675a.7.7,0,0,0-.547.155A.682.682,0,0,0,2,39.675v13.5a.675.675,0,0,0,.675.675.58.58,0,0,0,.108-.007l4.05-.675A.675.675,0,0,0,7.4,52.5v-.675H9.317l7.992,2.666a.8.8,0,0,0,.216.034H27.65a.62.62,0,0,0,.223-.04l10.375-3.659A2.328,2.328,0,0,0,39.8,48.632a2.3,2.3,0,0,0-.931-1.863ZM6.05,51.926l-2.7.452V40.471l2.7.452ZM37.8,49.55,27.535,53.175h-9.9L9.641,50.509a.8.8,0,0,0-.216-.034H7.4V42.834L10.228,41.7h3.854l9.862,1.971,1.006,1.006V45.75H16.175a.675.675,0,0,0-.331,1.262l6.075,3.375a.639.639,0,0,0,.331.088h5.4a.582.582,0,0,0,.189-.027L37.2,47.694a.954.954,0,0,1,.857.155.976.976,0,0,1-.256,1.7Z" transform="translate(0 -12.025)"/>
    <path id="Path_259" data-name="Path 259" d="M26.8,27.65c5.955,0,10.8-6.359,10.8-14.175v-8.1a.675.675,0,0,0-.5-.652l-10.125-2.7a.675.675,0,0,0-.348,0L16.5,4.723a.675.675,0,0,0-.5.652v8.1C16,21.291,20.845,27.65,26.8,27.65ZM17.35,5.894l9.45-2.52,9.45,2.52v7.581c0,7.072-4.239,12.825-9.45,12.825s-9.45-5.753-9.45-12.825Z" transform="translate(-4.55 0)"/>
    <path id="Path_260" data-name="Path 260" d="M26.375,20.775V22.8a1.35,1.35,0,0,0,1.35,1.35h2.7a1.35,1.35,0,0,0,1.35-1.35V20.775H33.8a1.35,1.35,0,0,0,1.35-1.35v-2.7a1.35,1.35,0,0,0-1.35-1.35H31.775V13.35A1.35,1.35,0,0,0,30.425,12h-2.7a1.35,1.35,0,0,0-1.35,1.35v2.025H24.35A1.35,1.35,0,0,0,23,16.725v2.7a1.35,1.35,0,0,0,1.35,1.35Zm-2.025-4.05h2.025a1.35,1.35,0,0,0,1.35-1.35V13.35h2.7v2.025a1.35,1.35,0,0,0,1.35,1.35H33.8v2.7H31.775a1.35,1.35,0,0,0-1.35,1.35V22.8h-2.7V20.775a1.35,1.35,0,0,0-1.35-1.35H24.35Z" transform="translate(-6.825 -3.25)"/>
    <path id="Path_261" data-name="Path 261" d="M51.35,6.05H52.7V4.7h1.35V3.35H52.7V2H51.35V3.35H50V4.7h1.35Z" transform="translate(-15.6)"/>
    <path id="Path_262" data-name="Path 262" d="M60.05,9.35H58.7V8H57.35V9.35H56V10.7h1.35v1.35H58.7V10.7h1.35Z" transform="translate(-17.55 -1.95)"/>
    <path id="Path_263" data-name="Path 263" d="M47.35,33v1.35H46V35.7h1.35v1.35H48.7V35.7h1.35V34.35H48.7V33Z" transform="translate(-14.3 -10.075)"/>
    <path id="Path_264" data-name="Path 264" d="M54.7,27H53.35v1.35H52V29.7h1.35v1.35H54.7V29.7h1.35V28.35H54.7Z" transform="translate(-16.25 -8.125)"/>
    <path id="Path_265" data-name="Path 265" d="M9.35,6.05H10.7V4.7h1.35V3.35H10.7V2H9.35V3.35H8V4.7H9.35Z" transform="translate(-1.95)"/>
    <path id="Path_266" data-name="Path 266" d="M3.35,12.05H4.7V10.7H6.05V9.35H4.7V8H3.35V9.35H2V10.7H3.35Z" transform="translate(0 -1.95)"/>
    <path id="Path_267" data-name="Path 267" d="M13.35,33v1.35H12V35.7h1.35v1.35H14.7V35.7h1.35V34.35H14.7V33Z" transform="translate(-3.25 -10.075)"/>
    <path id="Path_268" data-name="Path 268" d="M8.7,31.05V29.7h1.35V28.35H8.7V27H7.35v1.35H6V29.7H7.35v1.35Z" transform="translate(-1.3 -8.125)"/>
  </g>
</svg>
