<?xml version="1.0" encoding="iso-8859-1"?>
<!-- Generator: Adobe Illustrator 19.0.0, SVG Export Plug-In . SVG Version: 6.00 Build 0)  -->
<svg version="1.1" id="Capa_1" xmlns="http://www.w3.org/2000/svg" xmlns:xlink="http://www.w3.org/1999/xlink" x="0px" y="0px"
	 viewBox="0 0 511.999 511.999" style="enable-background:new 0 0 511.999 511.999;" xml:space="preserve">
<g>
	<g>
		<path d="M504.712,179.388H120.061c-0.708-0.822-1.44-1.63-2.219-2.41c-17.128-17.128-44.997-17.128-62.125,0
			c-17.128,17.128-17.128,44.997,0,62.125c8.297,8.297,19.328,12.867,31.062,12.867s22.765-4.569,31.063-12.867
			c0.779-0.779,1.511-1.588,2.219-2.41H446.63h1.446v194.664c0,5.486,4.463,9.948,9.948,9.948h16.393
			c5.486,0,9.948-4.463,9.948-9.948V317.134c0-4.025-3.263-7.288-7.288-7.288c-4.025,0-7.288,3.263-7.288,7.288v109.595h-7.136
			V236.694h7.136v32.309c0,4.025,3.263,7.288,7.288,7.288c4.025,0,7.288-3.263,7.288-7.288v-32.309h19.852h0.494
			c4.025,0,7.288-3.263,7.288-7.288v-42.729C512,182.651,508.737,179.388,504.712,179.388z M114.526,217.598
			c-0.07,0.202-0.144,0.402-0.218,0.602c-0.176,0.478-0.365,0.952-0.566,1.422c-0.17,0.395-0.345,0.788-0.534,1.177
			c-0.097,0.202-0.196,0.404-0.298,0.604c-0.299,0.582-0.612,1.158-0.952,1.723c-0.038,0.063-0.079,0.124-0.117,0.187
			c-0.375,0.612-0.77,1.216-1.194,1.806c-0.923,1.288-1.956,2.52-3.112,3.677c-5.544,5.544-12.915,8.597-20.755,8.597
			c-7.84,0-15.211-3.053-20.755-8.597c-11.444-11.444-11.444-30.066,0-41.51c5.723-5.723,13.238-8.583,20.755-8.583
			c7.516,0,15.034,2.862,20.755,8.583c1.16,1.16,2.195,2.396,3.12,3.688c0.419,0.584,0.81,1.181,1.181,1.786
			c0.041,0.067,0.084,0.132,0.124,0.199c0.339,0.563,0.65,1.137,0.948,1.716c0.104,0.203,0.204,0.408,0.302,0.613
			c0.187,0.385,0.36,0.774,0.528,1.165c0.203,0.475,0.395,0.954,0.572,1.437c0.073,0.197,0.146,0.394,0.215,0.593
			C116.644,204.664,116.644,211.416,114.526,217.598z M128.409,222.117c2.18-6.426,2.818-13.241,1.926-19.897l18.919,19.897H128.409
			z M169.368,222.117L142.6,193.965h34.957l26.768,28.152H169.368z M224.439,222.117l-26.767-28.152h37.474l26.767,28.152H224.439z
			 M282.027,222.117l-26.768-28.152h34.957l26.768,28.152H282.027z M337.098,222.117l-26.768-28.152h37.474l26.768,28.152H337.098z
			 M394.686,222.117l-26.768-28.152h34.957l26.768,28.152H394.686z M449.756,222.117l-26.767-28.152h37.474l26.767,28.152H449.756z
			 M497.423,211.683l-16.846-17.718h16.846V211.683z"/>
	</g>
</g>
<g>
	<g>
		<path d="M160.801,388.53h-8.305V253.098c0-4.025-3.263-7.288-7.288-7.288c-4.025,0-7.288,3.263-7.288,7.288V388.53H35.64V139.888
			h102.279v20.768c0,4.025,3.263,7.288,7.288,7.288c4.025,0,7.288-3.263,7.288-7.288v-57.667c0-2.782-0.354-5.484-1.019-8.062
			c-3.59-13.92-16.252-24.234-31.277-24.234H53.358c-17.808,0-32.295,14.488-32.295,32.295V388.53h-8.305
			C5.723,388.53,0,394.253,0,401.289v27.259c0,7.035,5.723,12.758,12.758,12.758h148.043c7.035,0,12.758-5.723,12.758-12.758
			v-27.259C173.559,394.253,167.836,388.53,160.801,388.53z M35.64,102.989c0-9.77,7.948-17.719,17.719-17.719H120.2
			c9.77,0,17.719,7.948,17.719,17.719v22.322H35.64V102.989z M158.982,426.729H14.577v-23.622h144.405V426.729z"/>
	</g>
</g>
<g>
</g>
<g>
</g>
<g>
</g>
<g>
</g>
<g>
</g>
<g>
</g>
<g>
</g>
<g>
</g>
<g>
</g>
<g>
</g>
<g>
</g>
<g>
</g>
<g>
</g>
<g>
</g>
<g>
</g>
</svg>
