<svg id="Capa_1" enable-background="new 0 0 512 512" height="512" viewBox="0 0 512 512" width="512" xmlns="http://www.w3.org/2000/svg"><g><path d="m326 211c0-30.327-24.673-55-55-55h-75c-5.522 0-10 4.478-10 10v90c0 5.522 4.478 10 10 10h75c30.327 0 55-24.673 55-55zm-120-35h65c19.299 0 35 15.701 35 35s-15.701 35-35 35h-65z"/><path d="m386 211c0-63.411-51.589-115-115-115h-135c-5.522 0-10 4.478-10 10v300c0 5.522 4.478 10 10 10h60c5.522 0 10-4.478 10-10v-80h65c63.411 0 115-51.589 115-115zm-190 95c-5.522 0-10 4.478-10 10v80h-40v-280h125c52.383 0 95 42.617 95 95s-42.617 95-95 95z"/><circle cx="256" cy="502" r="10"/><path d="m472 0h-432c-22.056 0-40 17.944-40 40v432c0 22.056 17.944 40 40 40h171c5.522 0 10-4.478 10-10s-4.478-10-10-10h-171c-11.028 0-20-8.972-20-20v-432c0-11.028 8.972-20 20-20h432c11.028 0 20 8.972 20 20v432c0 11.028-8.972 20-20 20h-171c-5.522 0-10 4.478-10 10s4.478 10 10 10h171c22.056 0 40-17.944 40-40v-432c0-22.056-17.944-40-40-40z"/></g></svg>