<svg height="512pt" viewBox="0 0 512 512" width="512pt" xmlns="http://www.w3.org/2000/svg"><path d="m316 256c0-2.953125-.222656-5.859375-.640625-8.699219l68.996094-39.167969c3.71875 9.9375 6.320312 20.417969 7.636719 31.289063 7.085937-1.582031 14.449218-2.421875 22.007812-2.421875 6.195312 0 12.261719.566406 18.148438 1.636719-8.753907-89.476563-84.410157-159.636719-176.148438-159.636719-97.597656 0-177 79.402344-177 177s79.402344 177 177 177c6.761719 0 13.433594-.394531 20-1.136719v-119.304687c23.277344-8.253906 40-30.484375 40-56.558594zm49.007812-82.875-68.351562 38.800781c-5.914062-5.457031-12.921875-9.742187-20.65625-12.484375v-78.976562c36.175781 5.3125 67.789062 24.816406 89.007812 52.660156zm-129.007812-52.660156v78.976562c-7.734375 2.742188-14.742188 7.023438-20.65625 12.480469l-68.351562-38.800781c21.214843-27.839844 52.832031-47.34375 89.007812-52.65625zm-117 135.535156c0-16.832031 3.058594-32.960938 8.636719-47.871094l69.003906 39.171875c-.417969 2.839844-.640625 5.746094-.640625 8.699219 0 4.226562.445312 8.351562 1.28125 12.335938l-68.371094 38.8125c-6.386718-15.8125-9.910156-33.074219-9.910156-51.148438zm30.15625 85.648438 68.972656-39.152344c5.285156 4.3125 11.320313 7.738281 17.871094 10.0625v78.976562c-34.960938-5.136718-65.667969-23.523437-86.84375-49.886718zm106.84375-65.648438c-11.027344 0-20-8.972656-20-20s8.972656-20 20-20 20 8.972656 20 20-8.972656 20-20 20zm218 59.984375c0-32.523437-26.914062-58.984375-60-58.984375s-60 26.460938-60 58.984375v26.015625h-38v150h196v-150h-38zm-80 0c0-10.46875 8.972656-18.984375 20-18.984375s20 8.519531 20 18.984375v26.015625h-40zm78 136.015625h-116v-70h116zm-216 0c6.742188 0 13.410156-.328125 20-.933594v40.160156c-6.621094.507813-13.289062.773438-20 .773438-68.378906 0-132.667969-26.628906-181.019531-74.980469-48.351563-48.351562-74.980469-112.640625-74.980469-181.019531s26.628906-132.667969 74.980469-181.019531c48.351562-48.351563 112.640625-74.980469 181.019531-74.980469s132.667969 26.628906 181.019531 74.980469c48.351563 48.351562 74.980469 112.640625 74.980469 181.019531 0 15.566406-1.394531 30.921875-4.101562 45.921875-7.003907-18.859375-19.652344-35.039063-35.90625-46.53125-.332032-118.824219-97.09375-215.390625-215.992188-215.390625-119.101562 0-216 96.898438-216 216s96.898438 216 216 216zm0 0"/></svg>