<svg id="bold" height="512" viewBox="0 0 24 24" width="512" xmlns="http://www.w3.org/2000/svg"><path d="m23.28 12.001c-.403-.022-.771.286-.798.699-.366 5.495-4.971 9.8-10.482 9.8-5.79 0-10.5-4.71-10.5-10.5s4.71-10.5 10.5-10.5c2.571 0 4.982.93 6.863 2.576l-.643.644c-.472.47-.139 1.28.53 1.28h2.5c.414 0 .75-.336.75-.75v-2.5c0-.663-.805-1.004-1.28-.53l-.796.796c-2.163-1.927-4.949-3.016-7.924-3.016-6.617 0-12 5.383-12 12s5.383 12 12 12c6.299 0 11.561-4.92 11.979-11.2.028-.413-.286-.771-.699-.799z"/><path d="m17.491 7.826-5.25-1.786c-.156-.054-.326-.054-.482 0l-5.25 1.786c-.305.103-.509.388-.509.71v4.018c0 4.904 5.474 7.288 5.707 7.387.188.079.398.079.586 0 .233-.1 5.707-2.483 5.707-7.387v-4.018c0-.322-.204-.607-.509-.71zm-2.205 3.792-2.75 3.5c-.35.447-1.006.512-1.437.142l-1.75-1.5c-.42-.359-.469-.991-.108-1.41.359-.419.991-.467 1.409-.108l.958.821 2.105-2.679c.341-.434.969-.511 1.404-.168.435.339.511.968.169 1.402z"/></svg>