<svg id="Capa_1" enable-background="new 0 0 512 512" height="512" viewBox="0 0 512 512" width="512" xmlns="http://www.w3.org/2000/svg"><g><path d="m477.228 210.348c10.16-15.949 14.397-35.253 11.738-53.985-1.206-8.468 1.386-17.546 7.101-24.895 2.645-3.392 4.945-7.076 6.839-10.949 15.855-32.357.286-72.412-33.051-85.735-28.572-11.419-62.388.407-77.606 27.153-2.813 4.96-4.938 10.232-6.314 15.667-.803 3.172-2.035 6.148-3.619 8.891-13.651-28.284-36.502-51.6-64.472-65.877-24.636-12.573-50.687-16.265-78.023-15.565-19.441 35.904-27.807 75.101-17.174 115.312-8.536.09-16.573 2.369-23.587 6.337-16.875-40.743-75.446-40.895-92.323-.013-33.541-18.955-74.172 7.708-74.212 45.1l-.303 38.559h-32.222v78.95c0 80.93 61.006 147.852 139.486 157.114v60.616h233.021v-60.616c78.486-9.265 139.493-76.19 139.493-157.124v-78.94zm-82.452-92.498c9.963-8.569 16.962-19.939 20.239-32.881 5.01-19.792 27.641-30.281 45.972-21.321 18.345 8.967 23.953 33.297 11.407 49.391-10.69 13.746-15.476 31.078-13.131 47.547 1.461 10.289-.329 20.635-5.177 29.921-4.356 8.348-10.916 15.153-19.085 19.84h-29.475l36.262-73.33-26.892-13.298-27.758 56.132c-6.436-10.221-14.858-18.914-24.806-25.564.815-2.938 1.907-5.811 3.27-8.595 4.355-8.881 11.154-16.172 19.64-21.071 3.335-1.917 6.545-4.197 9.534-6.771zm-124.527 74.479c10.404-14.013 26.721-22.46 44.285-22.46 25.394 0 46.841 17.155 53.402 40.479h-106.534c1.802-6.446 4.773-12.53 8.847-18.019zm-12.117-157.389c44.179 2.32 84.019 30.874 100.401 71.963-9.276 7.888-16.653 17.917-21.479 29.091-4.566-8.493-13.362-24.438-30.599-55.464l-26.225 14.57c7.414 13.345 17.723 31.965 25.035 45.28-12.95 1.403-25.037 5.71-35.604 12.255-1.396-3.552-3.162-6.908-5.256-10.017l.003-.002c-19.755-32.219-21.94-72.725-6.276-107.676zm-195.607 137.026c-.149-27.482 40.26-27.766 40.26-.118h30v-25.05c0-27.393 40.25-27.565 40.25 0v25.05h30c0-11.855 9.03-21.5 20.13-21.5 11.083 0 20.104 9.617 20.13 21.448l-.051 6.463c-6.319 9.535-10.766 20.406-12.844 32.089h-168.176zm419.55 68.382v30.127h-452.15v-30.127zm-312.589 237.17v-30h173.021v30zm184.397-60h-195.777c-66.917-.02-122.007-51.569-127.689-117.042h451.164c-5.686 65.473-60.779 117.022-127.698 117.042z"/></g></svg>