<?xml version="1.0" encoding="iso-8859-1"?>
<!-- Generator: Adobe Illustrator 19.0.0, SVG Export Plug-In . SVG Version: 6.00 Build 0)  -->
<svg version="1.1" id="Capa_1" xmlns="http://www.w3.org/2000/svg" xmlns:xlink="http://www.w3.org/1999/xlink" x="0px" y="0px"
	 viewBox="0 0 512 512" style="enable-background:new 0 0 512 512;" xml:space="preserve">
<g>
	<g>
		<path d="M509.069,324.93C507.21,323.068,504.63,322,502,322s-5.21,1.069-7.07,2.93c-1.86,1.861-2.93,4.44-2.93,7.07
			s1.069,5.21,2.93,7.069c1.86,1.86,4.44,2.931,7.07,2.931s5.21-1.07,7.069-2.931C510.93,337.209,512,334.63,512,332
			S510.93,326.789,509.069,324.93z"/>
	</g>
</g>
<g>
	<g>
		<path d="M502,363c-5.522,0-10,4.478-10,10v68.969c0,16.542-13.458,30-30,30H50c-15.869,0-28.892-12.388-29.926-28h132.259
			c5.522,0,10-4.478,10-10c0-5.522-4.478-10-10-10H20V261.646c9.007,7.158,20.39,11.45,32.763,11.45h33.688v16.389
			c0,22.607,18.393,41,41,41h2.902c22.607,0,41-18.393,41-41v-16.389h169.293v16.389c0,22.607,18.393,41,41,41h2.902
			c22.607,0,41-18.393,41-41v-16.389h33.688c12.373,0,23.755-4.292,32.763-11.45v31.436c0,5.522,4.478,10,10,10
			c5.522,0,10-4.478,10-10V159.968c0.001-27.571-22.429-50-49.999-50h-91.846v-37.95c0-28.666-23.321-51.987-51.987-51.987H193.833
			c-28.666,0-51.987,23.321-51.987,51.987v37.95H50c-27.57,0-50,22.43-50,50v282c0,27.57,22.43,50,50,50h412c27.57,0,50-22.43,50-50
			V373C512,367.477,507.522,363,502,363z M151.354,289.484c0,11.579-9.421,21-21,21h-2.902c-11.579,0-21-9.421-21-21v-36.516h44.902
			V289.484z M405.549,289.484c0,11.579-9.421,21-21,21h-2.902c-11.579,0-21-9.421-21-21v-36.516h44.902V289.484z M161.846,72.018
			c0-17.638,14.35-31.987,31.987-31.987h124.334c17.638,0,31.987,14.35,31.987,31.987v37.95h-20V70.031c0-5.522-4.478-10-10-10
			H191.846c-5.522,0-10,4.478-10,10v39.938h-20V72.018z M310.155,80.031v29.938H201.846V80.031H310.155z M20,159.968
			c0-16.542,13.458-30,30-30h412c16.542,0,30,13.458,30,30v60.364c0,18.065-14.697,32.763-32.763,32.763h-33.688v-7.127
			c0-7.168-5.832-13-13-13h-58.902c-7.168,0-13,5.832-13,13v7.127H171.354v-7.127c0-7.168-5.832-13-13-13H99.451
			c-7.168,0-13,5.832-13,13v7.127H52.763C34.697,253.096,20,238.398,20,220.333V159.968z"/>
	</g>
</g>
<g>
	<g>
		<path d="M191.827,423.969h-0.16c-5.522,0-10,4.478-10,10c0,5.522,4.478,10,10,10h0.16c5.522,0,10-4.478,10-10
			C201.827,428.446,197.349,423.969,191.827,423.969z"/>
	</g>
</g>
<g>
</g>
<g>
</g>
<g>
</g>
<g>
</g>
<g>
</g>
<g>
</g>
<g>
</g>
<g>
</g>
<g>
</g>
<g>
</g>
<g>
</g>
<g>
</g>
<g>
</g>
<g>
</g>
<g>
</g>
</svg>
