<?xml version="1.0" encoding="utf-8"?>
<!-- Generator: Adobe Illustrator 24.0.0, SVG Export Plug-In . SVG Version: 6.00 Build 0)  -->
<svg version="1.1" id="Layer_1" xmlns="http://www.w3.org/2000/svg" xmlns:xlink="http://www.w3.org/1999/xlink" x="0px" y="0px"
	 viewBox="0 0 511 511" style="enable-background:new 0 0 511 511;" xml:space="preserve">
<style type="text/css">
	.st0{fill:#D8D7DB;}
</style>
<g>
	<path class="st0" d="M376.9,490.4c-4,0-8.1-0.5-12.2-1.6L35.5,400.6c-25.4-7-40.5-33.3-33.9-58.7l36.2-138.8
		c2.2-8.5,10.9-13.7,19.5-11.4c8.5,2.2,13.6,10.9,11.4,19.5L32.5,350.1c-2.2,8.6,2.9,17.4,11.4,19.7l329.1,88.1
		c8.5,2.2,17.2-2.8,19.4-11.2l11.2-45.4c2.1-8.6,10.8-13.8,19.3-11.7c8.6,2.1,13.8,10.8,11.7,19.3l-11.3,45.6
		C417.6,476.2,398.2,490.4,376.9,490.4z"/>
	<path class="st0" d="M463.1,362.6h-330c-26.4,0-47.9-21.5-47.9-47.9V69.9c0-26.4,21.5-47.9,47.9-47.9h330
		c26.4,0,47.9,21.5,47.9,47.9v244.9C511,341.1,489.5,362.6,463.1,362.6z M133.1,53.9c-8.8,0-16,7.2-16,16v244.9c0,8.8,7.2,16,16,16
		h330c8.8,0,16-7.2,16-16V69.9c0-8.8-7.2-16-16-16H133.1z"/>
	<path class="st0" d="M191.6,171c-23.5,0-42.6-19.1-42.6-42.6s19.1-42.6,42.6-42.6s42.6,19.1,42.6,42.6S215.1,171,191.6,171z
		 M191.6,117.8c-5.9,0-10.6,4.8-10.6,10.6c0,5.9,4.8,10.6,10.6,10.6c5.9,0,10.6-4.8,10.6-10.6C202.3,122.5,197.5,117.8,191.6,117.8z
		"/>
	<path class="st0" d="M101.5,340.9c-4.1,0-8.2-1.6-11.3-4.7c-6.2-6.2-6.2-16.4,0-22.6l96.2-96.2c14.6-14.6,38.3-14.6,52.8,0
		l25.7,25.7l79.1-94.9c7.1-8.5,17.4-13.4,28.4-13.4c11.8-0.7,21.4,4.7,28.6,13.1l106,123.7c5.7,6.7,5,16.8-1.7,22.5
		c-6.7,5.8-16.8,5-22.5-1.7l-106-123.7c-1.4-1.7-3.1-1.6-4.1-1.9c-0.9,0-2.7,0.3-4.1,1.9L278.4,277c-2.9,3.4-7.1,5.5-11.5,5.7
		c-4.6,0.3-8.9-1.5-12-4.7L216.7,240c-2.7-2.7-4.9-2.7-7.6,0l-96.2,96.2C109.7,339.3,105.6,340.9,101.5,340.9z"/>
</g>
</svg>
