<?xml version="1.0" encoding="utf-8"?>
<!-- Generator: Adobe Illustrator 25.2.0, SVG Export Plug-In . SVG Version: 6.00 Build 0)  -->
<svg version="1.1" id="Capa_1" xmlns="http://www.w3.org/2000/svg" xmlns:xlink="http://www.w3.org/1999/xlink" x="0px" y="0px"
	 viewBox="0 0 468 553" style="enable-background:new 0 0 468 553;" xml:space="preserve">
<style type="text/css">
	.st0{fill:#4CA82C;}
</style>
<g>
	<g>
		<path class="st0" d="M34.2,179.1c-9.5,0-17.6,3.3-24.3,10S0,203.7,0,213V356c0,9.5,3.3,17.6,10,24.3c6.6,6.6,14.7,10,24.3,10
			c9.5,0,17.6-3.3,24.1-10c6.5-6.6,9.8-14.7,9.8-24.3V213c0-9.3-3.3-17.3-10-23.9S43.5,179.1,34.2,179.1z"/>
		<path class="st0" d="M309.4,50.8L333,7.3c1.5-2.9,1-5.1-1.7-6.6c-2.9-1.3-5.1-0.7-6.6,2l-23.9,43.9c-21.1-9.3-43.3-14-66.8-14
			c-23.5,0-45.8,4.7-66.8,14L143.3,2.7c-1.6-2.7-3.8-3.3-6.6-2c-2.7,1.6-3.2,3.8-1.7,6.6l23.6,43.5c-23.9,12.2-43,29.2-57.2,51
			c-14.2,21.8-21.3,45.7-21.3,71.6h307.4c0-25.9-7.1-49.8-21.3-71.6C352.1,80,333.1,63,309.4,50.8z M173,114.2
			c-2.6,2.6-5.6,3.8-9.1,3.8c-3.5,0-6.5-1.3-9-3.8c-2.4-2.5-3.7-5.6-3.7-9.1c0-3.5,1.2-6.6,3.7-9.1c2.4-2.5,5.4-3.8,9-3.8
			s6.6,1.3,9.1,3.8c2.5,2.6,3.8,5.6,3.8,9.1C176.8,108.6,175.5,111.6,173,114.2z M313.1,114.2c-2.4,2.6-5.4,3.8-9,3.8
			c-3.6,0-6.6-1.3-9.1-3.8c-2.6-2.5-3.8-5.6-3.8-9.1c0-3.5,1.3-6.6,3.8-9.1c2.5-2.5,5.6-3.8,9.1-3.8c3.5,0,6.5,1.3,9,3.8
			c2.4,2.6,3.7,5.6,3.7,9.1C316.7,108.6,315.5,111.6,313.1,114.2z"/>
		<path class="st0" d="M81.4,406.8c0,10.2,3.5,18.8,10.6,25.9c7.1,7.1,15.7,10.6,25.9,10.6h24.6l0.3,75.5c0,9.5,3.3,17.6,10,24.3
			s14.6,10,23.9,10c9.5,0,17.6-3.3,24.3-10c6.6-6.6,10-14.7,10-24.3v-75.4h45.9v75.4c0,9.5,3.3,17.6,10,24.3s14.7,10,24.3,10
			c9.5,0,17.6-3.3,24.3-10s10-14.7,10-24.3v-75.4h24.9c10,0,18.5-3.5,25.6-10.6c7.1-7.1,10.6-15.7,10.6-25.9V185.4H81.4V406.8z"/>
		<path class="st0" d="M433.7,179.1c-9.3,0-17.3,3.3-23.9,9.8c-6.6,6.5-10,14.6-10,24.1V356c0,9.5,3.3,17.6,10,24.3s14.6,10,23.9,10
			c9.5,0,17.6-3.3,24.3-10s10-14.7,10-24.3V213c0-9.5-3.3-17.6-10-24.1C451.3,182.4,443.3,179.1,433.7,179.1z"/>
	</g>
</g>
</svg>
