<?xml version="1.0" encoding="utf-8"?>
<!-- Generator: Adobe Illustrator 27.0.0, SVG Export Plug-In . SVG Version: 6.00 Build 0)  -->
<svg version="1.1" id="Layer_1" xmlns="http://www.w3.org/2000/svg" xmlns:xlink="http://www.w3.org/1999/xlink" x="0px" y="0px"
	 viewBox="0 0 131.6 21.1" style="enable-background:new 0 0 131.6 21.1;" xml:space="preserve">
<style type="text/css">
	.st0{fill:#0045A1;}
</style>
<g>
	<path class="st0" d="M111.6,14.6c0,0,0.1,0,0.4-0.1s0.7-0.2,1.1-0.6c0.4-0.3,0.9-0.9,1.2-1.6c0.3-0.7,0.5-1.7,0.1-2.7
		c-0.3-1-1.1-1.9-2.3-2.5c-1.1-0.5-2.6-0.7-3.9-0.2c-1.4,0.5-2.5,1.7-3.1,3.2c-0.3,0.7-0.5,1.6-0.5,2.4s0.2,1.7,0.6,2.5
		c0.7,1.6,2.1,2.9,3.8,3.8c1.7,0.8,3.8,0.9,5.6,0.2c1.8-0.8,3.4-2.2,4.3-4.1c0.9-1.8,1.3-4,0.7-6.1c-0.2-1-0.7-2-1.3-2.9
		c-0.6-0.9-1.3-1.7-2.1-2.4c-0.8-0.7-1.7-1.3-2.6-1.8s-1.9-0.9-2.9-1.2c-4.1-1.1-8.4-0.3-12.2,1C94.9,2.7,91,4.7,87,6.4
		c-2,0.8-4,1.6-6.1,2.1c-0.5,0.1-1,0.2-1.5,0.3s-1,0.1-1.5,0.2c-1,0.1-2,0.1-2.9,0c-3.8-0.3-6.9-2-8.6-3.7s-2.1-3.1-2.3-2.9
		c-0.1,0.1,0.2,1.7,2,3.6c1.7,1.8,4.9,3.7,8.9,4c1,0.1,2,0.1,3,0c0.5-0.1,1-0.1,1.6-0.2c0.5-0.1,1-0.2,1.6-0.3
		c2.1-0.5,4.1-1.2,6.1-2c4-1.7,7.8-3.7,11.3-4.9c1.9-0.6,3.8-1.1,5.7-1.4l1.5-0.1c0.5-0.1,1,0,1.5,0c1,0,2,0.2,2.9,0.4
		c1.9,0.5,3.7,1.4,5.2,2.6s2.7,2.8,3.2,4.7c1.2,3.6-0.9,7.8-4.1,9.3c-0.8,0.4-1.7,0.6-2.5,0.6c-0.9,0-1.7-0.2-2.5-0.5
		c-1.6-0.6-2.9-1.8-3.6-3.3c-0.8-1.4-0.8-3.1-0.3-4.4c0.5-1.4,1.5-2.5,2.7-3s2.5-0.5,3.6,0c1.1,0.4,1.9,1.3,2.2,2.2
		c0.4,0.9,0.2,1.9,0,2.6c-0.3,0.7-0.7,1.3-1.1,1.6C112.2,14.5,111.5,14.5,111.6,14.6z"/>
	<path class="st0" d="M128.7,5.9L128.7,5.9c0-0.1,0-0.2,0-0.3c-0.1-0.2-0.3-0.5-0.7-0.6c-0.4-0.1-1-0.2-1.5,0.3
		c-0.1,0.1-0.1,0.1-0.1,0.2s0,0.1-0.1,0.2s-0.2,0.2-0.3,0.4c-0.2,0.3-0.3,0.7-0.3,1.1c0,0.8,0.4,1.7,1.2,2.2c0.8,0.6,2,0.5,2.9-0.1
		c0.9-0.5,1.6-1.6,1.7-2.9c0-1.2-0.4-2.5-1.3-3.4c-0.4-0.5-1-0.9-1.5-1.3c-0.6-0.3-1.2-0.6-1.8-0.8c-1.3-0.4-2.6-0.6-4-0.8
		c-2.8-0.2-5.7,0.1-8.6,0.8c-5.8,1.3-11.3,4-16.9,5.5c-0.7,0.2-1.3,0.4-2,0.6c-0.7,0.1-1.4,0.3-2.2,0.4c-0.4,0.1-0.7,0.1-1.1,0.2
		c-0.4,0-0.8,0.1-1.2,0.1c-0.8,0.1-1.6,0.2-2.3,0.2c-3.2,0.1-6.3-0.3-9.1-0.8c-0.7-0.2-1.4-0.3-2-0.5s-1.3-0.3-1.8-0.5
		c-1.1-0.4-2.2-0.7-3-1C71.1,4.2,70,3.8,70,4c0,0.2,0.9,0.7,2.5,1.6c0.8,0.4,1.8,0.8,2.9,1.2C76,7,76.6,7.2,77.2,7.4
		c0.6,0.2,1.3,0.4,2,0.6c1.4,0.2,2.9,0.6,4.4,0.7c0.8,0.1,1.6,0.2,2.3,0.2c0.8,0,1.6,0,2.4,0c3.2-0.1,6.4-0.5,9-1.3
		c5.7-1.5,11.2-4.2,16.9-5.6c2.8-0.7,5.6-1.1,8.3-0.9c1.3,0.1,2.7,0.3,3.9,0.6c1.2,0.3,2.3,1,3.1,1.7c0.8,0.8,1.3,1.9,1.3,3
		c0,1-0.5,2-1.3,2.5s-1.8,0.7-2.5,0.2c-0.7-0.4-1.1-1.2-1.2-1.9c0-0.3,0-0.7,0.2-1c0.1-0.1,0.1-0.3,0.3-0.4c0.1-0.1,0.1-0.2,0.1-0.2
		c0-0.1,0.1-0.1,0.1-0.2c0.3-0.4,0.9-0.4,1.3-0.3c0.4,0.1,0.6,0.3,0.7,0.5C128.7,5.8,128.7,5.9,128.7,5.9z"/>
	<path class="st0" d="M20,14.5c0,0-0.6-0.1-1.4-0.7c-0.4-0.3-0.8-0.9-1.1-1.6c-0.3-0.7-0.4-1.6-0.1-2.5s1.1-1.7,2.1-2.2
		s2.4-0.6,3.5-0.1c1.2,0.5,2.2,1.6,2.8,2.9c0.3,0.7,0.4,1.4,0.4,2.2S26,14,25.6,14.7c-0.7,1.4-1.9,2.6-3.5,3.3
		c-1.5,0.7-3.4,0.8-5,0.1c-3.2-1.4-5.4-5.4-4.4-9.1c0.2-0.9,0.6-1.8,1.2-2.6c0.5-0.8,1.2-1.5,1.9-2.2c0.7-0.6,1.5-1.2,2.4-1.6
		c0.9-0.5,1.8-0.8,2.7-1.1c1.1-0.2,2.1-0.3,3-0.4h1.5l1.5,0.1c2,0.2,3.9,0.7,5.8,1.3c3.5,1.2,7.3,3.2,11.3,5c2,0.9,4.1,1.6,6.3,2.1
		c0.5,0.1,1.1,0.2,1.6,0.3s1.1,0.1,1.6,0.2c1.1,0.1,2.1,0.1,3.1,0c4.1-0.4,7.4-2.3,9.1-4.2c1.7-1.9,2-3.5,1.8-3.4
		c-0.2,0-0.7,1.5-2.5,3.1c-1.7,1.6-4.8,3.2-8.5,3.5c-0.9,0.1-1.9,0.1-2.9,0c-0.5-0.1-1-0.1-1.5-0.2c-0.5-0.1-1-0.2-1.5-0.3
		c-2-0.5-4-1.2-6-2c-3.8-1.7-7.6-3.7-11.3-5c-1.9-0.7-3.9-1.2-6-1.5L25.8,0c-0.5-0.1-1,0-1.6,0c-1,0-2.1,0.2-3.1,0.4
		c-2.1,0.5-4,1.5-5.6,2.8c-1.6,1.4-2.9,3.1-3.5,5.2c-0.6,2-0.4,4.3,0.5,6.1s2.4,3.4,4.2,4.2c0.9,0.4,1.9,0.6,2.9,0.6
		s1.9-0.2,2.8-0.6c1.7-0.7,3.1-2.1,3.9-3.7s0.8-3.4,0.2-4.9c-0.6-1.5-1.7-2.7-3-3.2c-1.3-0.6-2.8-0.4-3.9,0.1s-1.9,1.5-2.3,2.4
		c-0.3,1-0.2,2,0.1,2.7c0.3,0.7,0.8,1.3,1.2,1.6c0.4,0.3,0.8,0.5,1.1,0.6C19.9,14.5,20,14.5,20,14.5z"/>
	<path class="st0" d="M2.9,5.9c0,0,0-0.1,0.1-0.3c0-0.2,0.2-0.4,0.6-0.5C3.9,5,4.5,5,4.8,5.4c0,0,0.1,0.1,0.1,0.2c0,0,0,0.2,0.1,0.2
		C5.1,5.9,5.2,6,5.2,6.2c0.1,0.3,0.2,0.6,0.2,0.9c0,0.7-0.4,1.4-1.1,1.8C3.7,9.4,2.7,9.3,1.9,8.8C1.2,8.3,0.6,7.3,0.6,6.3
		S1,4.2,1.8,3.4C2.2,3,2.7,2.7,3.1,2.3C3.6,2,4.2,1.8,4.8,1.6C6,1.2,7.3,1.1,8.7,1c2.7-0.2,5.5,0.2,8.3,0.9
		C22.6,3.2,28.1,6,33.8,7.5c0.7,0.2,1.4,0.4,2.1,0.6c0.7,0.1,1.5,0.3,2.3,0.4c0.4,0.1,0.8,0.1,1.2,0.2c0.4,0,0.8,0.1,1.2,0.1
		C41.4,8.9,42.2,9,43,9c3.2,0.1,6.5-0.3,9.4-0.9c0.7-0.2,1.4-0.4,2-0.6C55,7.2,55.6,7,56.2,6.8c1.1-0.5,2.2-0.8,3-1.2
		c1.6-0.8,2.5-1.4,2.4-1.5S60.4,4.4,58.8,5c-0.8,0.3-1.8,0.6-3,1c-0.6,0.2-1.2,0.3-1.8,0.5S52.7,6.8,52,7c-1.4,0.2-2.8,0.6-4.3,0.6
		c-0.8,0-1.5,0.2-2.3,0.2s-1.5,0-2.3,0c-3.1-0.1-6.2-0.5-8.8-1.3C28.7,5,23.2,2.3,17.4,0.9c-2.9-0.7-5.8-1-8.6-0.8
		C7.4,0.2,6,0.4,4.7,0.8s-2.5,1.1-3.4,2C0.5,3.8,0,5,0,6.2s0.7,2.3,1.6,2.9s2.1,0.7,2.9,0.2s1.2-1.4,1.2-2.1c0-0.4-0.1-0.8-0.2-1.1
		C5.4,5.9,5.3,5.8,5.2,5.7c-0.1,0-0.1-0.1-0.1-0.2S5,5.4,5,5.3C4.6,4.8,3.9,4.9,3.6,5C3.2,5.1,3,5.4,2.9,5.6
		C2.9,5.7,2.9,5.8,2.9,5.9L2.9,5.9z"/>
	<g>
		<path class="st0" d="M65.8,8.8l-0.3,0.8c-0.1,0.3-3.1,8.2-1.4,10.7c0.4,0.6,0.9,0.8,1.7,0.8c0.7,0,1.3-0.3,1.7-0.8
			c1.7-2.5-1.2-10.4-1.4-10.7L65.8,8.8z M65.8,20.4c-0.5,0-0.9-0.2-1.1-0.5c-1.1-1.7,0.2-6.6,1.1-9.2c0.9,2.6,2.3,7.6,1.1,9.2
			C66.7,20.3,66.3,20.4,65.8,20.4z"/>
		<path class="st0" d="M66.7,8.9l0.1,0.6c0.1,0.7,1.2,7.1,3.9,7.1c0.5,0,0.9-0.2,1.4-0.5c0.7-0.5,1-1.2,0.9-1.9
			c-0.3-2.5-5.6-4.9-5.8-5L66.7,8.9z M70.7,15.9c-1.7,0-2.7-3.8-3.1-5.9c1.7,0.9,4.7,2.7,4.8,4.2c0,0.5-0.2,0.9-0.7,1.3
			C71.3,15.8,71,15.9,70.7,15.9z"/>
		<path class="st0" d="M64.9,8.9l-0.6,0.3c-0.2,0.1-5.5,2.6-5.8,5c-0.1,0.7,0.2,1.3,0.9,1.9c0.5,0.4,0.9,0.5,1.4,0.5
			c2.7,0,3.8-6.4,3.9-7.1L64.9,8.9z M60.9,15.9c-0.3,0-0.6-0.1-1-0.4c-0.5-0.4-0.7-0.8-0.7-1.3c0.2-1.5,3.1-3.4,4.8-4.2
			C63.7,12.1,62.6,15.9,60.9,15.9z"/>
	</g>
</g>
</svg>
