<?xml version="1.0" encoding="utf-8"?>
<!-- Generator: Adobe Illustrator 24.0.0, SVG Export Plug-In . SVG Version: 6.00 Build 0)  -->
<svg version="1.1" id="Layer_1" xmlns="http://www.w3.org/2000/svg" xmlns:xlink="http://www.w3.org/1999/xlink" x="0px" y="0px"
	 viewBox="0 0 155 209" style="enable-background:new 0 0 155 209;" xml:space="preserve">
<style type="text/css">
	.st0{opacity:0.5;fill:#B4C4DB;}
	.st1{fill:#76B8F4;}
	.st2{fill:#5CA2D6;}
	.st3{fill:#25539E;}
	.st4{fill:#BC5E85;}
	.st5{fill:#452962;}
	.st6{fill:#FEBDAA;}
	.st7{fill:#2F60BD;}
	.st8{fill:none;stroke:#913D60;stroke-width:0.25;stroke-miterlimit:10;}
	.st9{fill:#E2A091;}
	.st10{fill:#26163A;}
	.st11{fill:#CA6B90;}
	.st12{fill:#913D60;}
	.st13{fill:#FFFFFF;stroke:#000000;stroke-width:0.25;stroke-miterlimit:10;}
</style>
<g>
	<ellipse class="st0" cx="75.5" cy="186.98" rx="68.6" ry="3.23"/>
	<g>
		<g>
			<path class="st1" d="M52.39,128.04c6,0.51,4.47,11.23,2.17,20.43c-2.3,9.19-2.68,12.89-2.43,20.3s0.51,11.11-2.43,10.98
				c-2.94-0.13-4.6-12.77-4.85-22.72c-0.26-9.96,0.51-19.4,2.17-25.02C48.69,126.38,52.39,128.04,52.39,128.04z"/>
			<path class="st2" d="M56.58,136.41c-1.84,2.45-3.79,4.87-3.98,7.95c-0.2,3.43,0.19,7.03,0.5,10.54c0.37-1.87,0.84-3.95,1.47-6.44
				C55.58,144.41,56.44,140.06,56.58,136.41z"/>
			<path class="st3" d="M47.29,177.19c0,0,3.7,0.51,4.91-1.85c0,0,0.13,2.11,0.64,4.15c0.51,2.04,0.26,4.79,0.26,4.79l-2.17,0.96
				l-0.06-1.02c0,0-0.83,0.96-1.85,1.28c-1.02,0.32-7.28-0.13-7.15-0.96s1.98-1.21,3.06-2.68
				C46.01,180.38,47.29,177.19,47.29,177.19z"/>
			<path class="st1" d="M57.5,129.7c7.42-0.76,8.62,0.32,8.43,6.89c-0.19,6.57-1.91,19.85-1.47,20.3c0.45,0.45,2.43,0.13,6.7,5.94
				c4.28,5.81,4.4,6.89,2.81,8.3c-1.6,1.4-6.83-6.13-11.04-8.36s-4.91-3.51-6.77-13.4C54.31,139.47,52.52,130.21,57.5,129.7z"/>
			<path class="st2" d="M50.58,135.59c1.02,0.39,2.1,0.66,3.15,0.94c0.92,0.25,1.86,0.49,2.8,0.71c0.32-5.02-0.59-8.9-4.14-9.2
				c0,0-3.7-1.66-5.36,3.96c-0.08,0.26-0.15,0.54-0.22,0.82C48.06,133.74,48.43,134.77,50.58,135.59z"/>
			<path class="st2" d="M60.24,137.97c1.58,0.23,3.53,0.46,5.6,0.57c0.04-0.7,0.07-1.35,0.09-1.95c0.19-6.57-1-7.65-8.43-6.89
				c-2.64,0.27-3.37,3.01-3.2,6.98C56.25,137.2,58.25,137.68,60.24,137.97z"/>
			<path class="st3" d="M73.78,166.02c0,0,0.83,4.15-2.68,4.21c0,0,1.02,1.79,0.26,3.7c-0.77,1.91-0.77,4.09-0.32,5.3
				s3.57-0.64,4.28-2.43c0.7-1.79,1.28-5.17,1.28-5.17l1.09-0.06l0.51-3.96C78.18,167.62,74.35,165.89,73.78,166.02z"/>
			<path class="st4" d="M38.38,136.87c0.97,0.77,1.51,2.27,0.44,3.11s-1.82,1.16-1.78,1.73c0.04,0.58,0.84,1.16,0.4,1.38
				c-0.44,0.22-2.27,0.31-2.58-0.04c-0.31-0.36-0.58-1.96,0.04-2.76C35.54,139.49,37.76,136.38,38.38,136.87z"/>
			<path class="st4" d="M37.65,136.87c-0.83-0.29-1.34,0.32-1.93,0.99s-0.8,1.26-1.07,2.16c-0.27,0.91,0.8,0.69,1.05,0.07
				c0.25-0.62,2.34-1.47,2.82-1.9C39,137.76,37.65,136.87,37.65,136.87z"/>
			<path class="st5" d="M49.16,86.15c0,0-0.55-1.43-2.01,0.35c-1.46,1.79-2.36,4.79-1.96,7c0.4,2.21,2.92,5.24,0.15,8.29
				c-2.78,3.05-2.95,6.71,1.09,7.54c4.05,0.82,5.08-7.72,3.69-9.26c-1.4-1.53-2-7.4-1.09-8.78C49.93,89.9,49.16,86.15,49.16,86.15z"
				/>
			<path class="st6" d="M46.27,106.38c-2.86,1.29-4.34,16.17-5.11,19.49c-0.77,3.32-5.43,11.02-5.23,11.49
				c0.33,0.8,1.69,1.83,3.22,1.79c1.53-0.04,5.8-9.02,6.48-10.94c0.68-1.91,2.47-9.83,3.53-13.49
				C50.22,111.06,47.12,106,46.27,106.38z"/>
			<path class="st6" d="M57.07,102.43c5.02-0.11,10.81,3.11,11.15,4.34c0.34,1.23-5.06,14.04-4.38,17.62
				c0.68,3.57,3.28,7.7,2.47,8.34c-2.58,2.03-6.38,3.06-12.94,2.21s-6.98-2.81-6.98-2.81s1.53-9.11,1.11-13.96
				s-3.57-9.87-1.62-11.57C47.84,104.89,53.2,102.51,57.07,102.43z"/>
			<path class="st4" d="M56.38,106.72L56.38,106.72c-1.66,0-3.01-1.35-3.01-3.01v-6.87c0-1.66,1.35-3.01,3.01-3.01h0
				c1.66,0,3.01,1.35,3.01,3.01v6.87C59.38,105.38,58.04,106.72,56.38,106.72z"/>
			
				<ellipse transform="matrix(0.4909 -0.8712 0.8712 0.4909 -50.6708 87.1376)" class="st7" cx="49.22" cy="86.92" rx="1.35" ry="0.87"/>
			<path class="st4" d="M52.94,86.68c-3.89,0.27-4.74,5.22-4.98,7.9c-0.24,2.67,1.28,7.47,3.77,7.66c2.49,0.18,6.14-2.86,6.93-4.68
				c0.79-1.82,0.97-6.26,0.79-7.47C59.26,88.86,57.32,86.37,52.94,86.68z"/>
			<path class="st5" d="M54.12,87.49c0,0,0.65,3.28,2.47,3.77c1.82,0.49,3.2,3.44,3.2,3.44s2.84-4.41,0.53-7.25
				c-0.77-0.95-1.71-1.85-3.57-1.92c-2.53-1.9-6.45-0.13-7.53,1.51c-1.62,2.47-0.81,5.1-0.81,5.1s0.16-2.39,1.86-3.28
				S54.12,87.49,54.12,87.49z"/>
			
				<ellipse transform="matrix(0.523 -0.8523 0.8523 0.523 -52.8826 96.3873)" class="st4" cx="59.67" cy="95.44" rx="1.75" ry="1.49"/>
			<path class="st8" d="M60.48,94.48c0,0-1.55,0.03-1.67,1.43"/>
			
				<ellipse transform="matrix(0.9582 -0.2861 0.2861 0.9582 -22.8164 21.1805)" class="st7" cx="61.07" cy="88.66" rx="0.87" ry="1.35"/>
			<path class="st5" d="M61.3,87.92c0,0,0.85-1.28,1.88,0.79c1.03,2.07,1.25,5.19,0.36,7.26s-4.01,4.47-1.97,8.05
				c2.04,3.58,1.4,7.2-2.73,7.11s-3.25-8.66-1.55-9.84c1.7-1.18,3.58-6.77,3.01-8.32C59.72,91.41,61.3,87.92,61.3,87.92z"/>
			<path class="st6" d="M66.56,104.3c4,2.98,9.02,8.68,7.57,12.77s-4,3.83-6.21,1.02c-2.21-2.81-4-10.98-4.17-12
				C63.59,105.06,66.56,104.3,66.56,104.3z"/>
		</g>
		<g>
			<g>
				<path class="st6" d="M114.76,166.72c3.95,2.15,4.02,3.06,2.55,5.87c-1.47,2.81-1.66,6.38-3.06,8.11
					c-1.4,1.72-6.89,1.85-8.94,1.4c-2.04-0.45-1.21-3.38-0.13-4.53c1.09-1.15,1.6-6.32,1.66-7.21
					C106.9,169.47,113.35,165.96,114.76,166.72z"/>
				<path class="st9" d="M114.93,166.82c0.45,1.32,0.53,2.76,0.17,4.1c-0.76,2.77-2,5.31-3.95,7.44c-1.76,1.93-3.96,2.97-6.35,3.54
					c0.15,0.09,0.31,0.16,0.5,0.2c2.04,0.45,7.53,0.32,8.94-1.4c1.4-1.72,1.6-5.3,3.06-8.11
					C118.75,169.83,118.69,168.9,114.93,166.82z"/>
				<path class="st5" d="M93.8,89.83c-10.11-1.1-12,4.17-11.23,19.06c0.77,14.89,9.45,27.06,11.49,36.09
					c2.04,9.02,11.91,20.94,11.91,28.09c0,0,9.53,0.85,12.43-4.77c0,0-14.98-29.28-16-45.79S98.48,90.34,93.8,89.83z"/>
				<path class="st10" d="M92.31,104.25c2.69-0.34,5.21-1.02,7.63-1.95c-1.48-7.2-3.53-12.18-6.14-12.46
					c-9.34-1.02-11.66,3.42-11.35,15.84C85.49,104.72,88.83,104.69,92.31,104.25z"/>
				<path class="st10" d="M102.58,163.1c2.03-6.12,3.81-12.33,5.43-18.57c-2.83-7.65-5.23-15.75-5.61-22.02
					c-0.71-11.55-2.35-22.68-4.87-28.5c0.67,8.9-4.74,16.31-7.06,25.54c-0.86,3.44-1.61,6.88-2.33,10.3
					c2.43,5.74,4.94,10.8,5.92,15.13C95.31,150.52,99.52,157.15,102.58,163.1z"/>
				<path class="st6" d="M88.86,176.72c3.86,2.68,4.04,5.74,3.7,8.3c-0.34,2.55-0.21,2.55-0.38,3.36
					c-0.17,0.81-15.53-1.06-18.55-3.66c-3.02-2.6,1.87-4.3,4.3-4.51c2.43-0.21,3.96-2.21,5.36-3.74
					C84.69,174.94,88.31,176.34,88.86,176.72z"/>
				<path class="st9" d="M86.6,182.75c-3.63,0.9-7.27,0.43-10.93,0.12c-0.93-0.08-1.83-0.3-2.66-0.65c-0.53,0.69-0.51,1.53,0.62,2.5
					c3.02,2.6,18.38,4.47,18.55,3.66c0.17-0.81,0.04-0.81,0.38-3.36c0.2-1.53,0.22-3.25-0.64-4.96
					C90.38,181.3,88.61,182.25,86.6,182.75z"/>
				<path class="st5" d="M104.61,90.64c10.86,0.53,11.49,8.3,8.43,26.68s-20.3,66.77-20.3,66.77s-6.38-7.79-10.6-6.38
					c0,0,8.17-21.96,9.83-35.74s2.68-40.98,2.68-43.53S99.37,90.38,104.61,90.64z"/>
				<path class="st10" d="M113.96,111.19c1.84-14,0.21-20.09-9.35-20.55c-5.23-0.26-9.96,5.23-9.96,7.79c0,0.45,0.06,3.7,0,5.49
					C101.8,104.76,109.58,105.54,113.96,111.19z"/>
				<path class="st11" d="M77.54,63.51c3.29,0.18,4.98,4.21,3,9.64c-1.98,5.43-2.62,6.55-2.66,6.81c-0.04,0.26-4.34,7.23-7.36,10.13
					s-2.68,5.49-1.91,6.85c0.77,1.36,0.09,2.04-0.77,4.13c-0.85,2.09-2.09,2.04-1.7,0.72c0.38-1.32-0.47-3.62-0.94-3.57
					c-0.47,0.04-2.09,4.46-2.37,7.71c-0.29,3.26-0.41,3.86-1.09,3.61c-0.67-0.26-3.13-4.37-2.94-5.17s1.98-5.46,2.39-7.28
					c0.41-1.82,1.82-6.03,3.1-8.36s6.19-11.84,7.21-13.69c1.02-1.85,1.79-6.19,2.27-8.81S76.97,63.48,77.54,63.51z"/>
				<path class="st12" d="M77.54,63.51c-0.57-0.03-3.29,0.1-3.77,2.71c-0.13,0.69-0.27,1.5-0.44,2.35c3.02,3.76,4.43,7.5,4.63,11.13
					c0.23-0.56,0.96-2.13,2.57-6.56C82.52,67.72,80.83,63.69,77.54,63.51z"/>
				<path class="st7" d="M77.67,50.68c-2.12,1.54-6.83,16.53-6.83,16.53s1.47,2.49,5.11,3.26c3.64,0.77,6.13,0,6.26-0.32
					c0.13-0.32,3.13-10.66,2.17-15.19C83.41,50.43,79.52,49.34,77.67,50.68z"/>
				<path class="st7" d="M96.35,42.51c9.7,0.2,22.13,8.43,22.64,9.87c0.51,1.45-1.45,46.81-4.17,53.11c0,0-6.47-5.45-14.81-4.09
					s-18.21,1.53-18.21,1.53s1.7-12.43,0.68-24s-6.91-26.09-5-28.06C79.39,48.89,93.33,42.45,96.35,42.51z"/>
				<path class="st3" d="M112.44,65.32c-0.26,7.31,0.04,16.29-2.38,23.23c-1.87,5.37-2.65,9.84-7.19,12.64
					c6.92,0.06,11.96,4.3,11.96,4.3c2.23-5.15,3.94-36.39,4.21-48.42C116.45,58.6,112.58,61.34,112.44,65.32z"/>
				<path class="st11" d="M117.8,65.15c4.34-1.87,5.45,0.94,7.15,9.62s3.49,31.06,3.74,32.85c0.26,1.79,1.96,5.53,2.04,6.64
					c0.09,1.11-0.21,2.98-0.21,2.98l-1.02,0.64c0,0-0.64,1.4-1.19,1.62c0,0-0.81,1.79-2.47,1.45c0,0-0.77,1.06-1.96,0.89
					s-1.91-0.94-0.68-1.36c1.23-0.43,1.06-2.64,0.89-4.64c-0.17-2-0.77,0.09-0.55,1.45c0.21,1.36,0.34,1.45-0.3,1.62
					s-1.62-0.89-1.91-5.57c-0.3-4.68,1.66-3.28,2.09-6.26c0.43-2.98-5.97-21.86-8.98-34.85C113.07,66.34,117.8,65.15,117.8,65.15z"
					/>
				<path class="st12" d="M115.53,76.65c2.45-2.56,5.25-4.89,8.42-6.46c-1.29-5.05-2.69-6.54-6.15-5.05c0,0-4.72,1.19-3.36,7.06
					C114.77,73.63,115.14,75.12,115.53,76.65z"/>
				<path class="st13" d="M127.14,115.66c0,0,0.28,2.48-1.3,5.28"/>
				<path class="st13" d="M128.96,115.44c0,0,0.01,2.3-0.65,4.05"/>
				<path class="st13" d="M130.17,114.03c0,0-0.03,1.85-0.57,3.77"/>
				<path class="st7" d="M114.14,48.81c8.17,5.45,6.72,4.77,8.43,10.47c1.7,5.7,2.55,9.7,2.55,9.7s-9.62,4.68-10.89,4.94
					s-3.66-12.09-5.02-16.43S114.14,48.81,114.14,48.81z"/>
				<path class="st4" d="M66.63,103.45c-0.15-0.65-0.98-1.96-1.79-2.91c-0.81-0.96-2.31-0.5-2.6-0.39
					c-0.29,0.11-0.59,0.83-0.59,0.83s-0.78,0.61-0.85,0.9c-0.07,0.3,0.09,0.52,0.09,0.52s-0.51,0.26-0.67,1.13
					c0,0-0.62,0.74-0.24,1.57c0,0,0.23,0.35,0.43,0.29c0.19-0.06,1.19-0.61,1.38-0.44c0.19,0.17,0.82,2.3,1.65,2.85
					C64.27,108.34,67.51,107.27,66.63,103.45z"/>
				<path class="st11" d="M96.18,51.11L96.18,51.11c-3.2,0-5.79-2.59-5.79-5.79v-10.3c0-3.2,2.59-5.79,5.79-5.79h0
					c3.2,0,5.79,2.59,5.79,5.79v10.3C101.97,48.52,99.38,51.11,96.18,51.11z"/>
				<path class="st12" d="M98.39,29.67c-0.68-0.28-1.43-0.44-2.21-0.44c-3.2,0-5.79,2.59-5.79,5.79v10.3
					C100.65,48,98,36.9,98.39,29.67z"/>
				<path class="st11" d="M91.18,21.19c-2.81,0.64-5.04,4.02-5.36,6.64c-0.32,2.62,0.38,7.4,0.57,9.64s1.85,7.4,5.62,7.4
					c3.77,0,6.32-4.53,7.6-6.45s1.98-8.68,1.6-12.64S97.31,19.79,91.18,21.19z"/>
				
					<ellipse transform="matrix(0.2544 -0.9671 0.9671 0.2544 43.3433 122.4327)" class="st11" cx="101.07" cy="33.11" rx="2.68" ry="1.88"/>
			</g>
			<path class="st8" d="M102.21,31.47c0,0-1.85,0-2.11,2.01"/>
		</g>
	</g>
</g>
</svg>
