<?xml version="1.0" encoding="utf-8"?>
<!-- Generator: Adobe Illustrator 24.0.0, SVG Export Plug-In . SVG Version: 6.00 Build 0)  -->
<svg version="1.1" id="Layer_1" xmlns="http://www.w3.org/2000/svg" xmlns:xlink="http://www.w3.org/1999/xlink" x="0px" y="0px"
	 viewBox="0 0 155 112" style="enable-background:new 0 0 155 112;" xml:space="preserve">
<style type="text/css">
	.st0{fill:#388E3C;}
	.st1{fill:#2E7D32;}
	.st2{fill:#1B5E20;}
	.st3{fill:#434343;}
	.st4{fill:#FF7043;}
	.st5{fill:#F5F5F5;}
	.st6{fill:#3E2723;}
	.st7{fill:#80CBC4;}
	.st8{fill:#B2DFDB;}
	.st9{opacity:0.2;fill:#212121;}
	.st10{opacity:0.4;fill:#212121;}
	.st11{fill:#E0E0E0;}
	.st12{fill:#BDBDBD;}
	.st13{fill:#FF490F;}
	.st14{fill:#EEEEEE;}
	.st15{fill:#D32E2E;}
	.st16{fill:#E53A35;}
	.st17{fill:#FAFBFB;}
	.st18{fill:#00897B;}
	.st19{font-family:'OstrichSans-Black';}
	.st20{font-size:14.6036px;}
	.st21{letter-spacing:5;}
	.st22{fill:#212121;}
</style>
<g>
	<path class="st0" d="M125.39,77.97c-6.33,0-11.47,5.13-11.47,11.47v15.02h22.93V89.43C136.86,83.1,131.73,77.97,125.39,77.97z"/>
	<circle class="st1" cx="139.33" cy="95" r="8.01"/>
	
		<ellipse transform="matrix(0.9204 -0.3909 0.3909 0.9204 -37.3431 11.9144)" class="st2" cx="10.59" cy="97.68" rx="5.33" ry="5.33"/>
	
		<ellipse transform="matrix(0.2263 -0.9741 0.9741 0.2263 -72.284 93.0132)" class="st1" cx="22.41" cy="92.01" rx="11.01" ry="11.01"/>
	<rect x="1.52" y="100.06" class="st3" width="150.48" height="6.12"/>
	<g>
		<rect x="26.74" y="37.27" class="st4" width="100.05" height="62.8"/>
		<path class="st5" d="M127.07,96.26h-9.54v3.8h10.64v-2.7C128.16,96.76,127.67,96.26,127.07,96.26z"/>
		<g>
			<rect x="89.42" y="54.65" class="st6" width="28.11" height="45.42"/>
			<rect x="91.09" y="56.32" class="st7" width="24.77" height="42.08"/>
			<g>
				<polygon class="st8" points="115.85,66.73 115.85,69.31 102.86,56.32 105.44,56.32 				"/>
				<polygon class="st8" points="115.85,92.1 115.85,94.67 91.09,69.91 91.09,67.33 				"/>
				<polygon class="st8" points="115.85,70.68 115.85,75.84 96.33,56.32 101.49,56.32 				"/>
			</g>
			<rect x="91.09" y="56.32" class="st9" width="24.77" height="0.89"/>
			<polygon class="st10" points="89.42,89.94 89.42,100.06 99.54,100.06 			"/>
			<g>
				<path class="st11" d="M95.15,74.41c0,0.59-0.48,1.07-1.07,1.07c-0.59,0-1.07-0.48-1.07-1.07c0-0.59,0.48-1.07,1.07-1.07
					C94.67,73.34,95.15,73.82,95.15,74.41z"/>
				<path class="st11" d="M95.15,82.06c0,0.59-0.48,1.07-1.07,1.07c-0.59,0-1.07-0.48-1.07-1.07s0.48-1.07,1.07-1.07
					C94.67,80.99,95.15,81.47,95.15,82.06z"/>
				<path class="st5" d="M94.08,73.57c-0.34,0-0.61,0.27-0.61,0.61v8.09c0,0.34,0.27,0.61,0.61,0.61c0.34,0,0.61-0.27,0.61-0.61
					v-8.09C94.7,73.85,94.42,73.57,94.08,73.57z"/>
			</g>
		</g>
		<path class="st5" d="M89.42,96.26H28.26c-1.6,0-2.9,1.3-2.9,2.9v0.9h64.06V96.26z"/>
		<rect x="26.61" y="33.29" class="st12" width="100.3" height="1.84"/>
		<rect x="26.61" y="29.61" class="st12" width="100.3" height="1.84"/>
		<rect x="27.84" y="31.45" class="st4" width="97.84" height="1.84"/>
		<rect x="27.84" y="31.45" class="st10" width="97.84" height="0.92"/>
		<g>
			<rect x="108.72" y="50.91" class="st13" width="5.61" height="2.18"/>
			<rect x="115.8" y="50.91" class="st13" width="5.61" height="2.18"/>
			<rect x="112.28" y="47.28" class="st13" width="5.61" height="2.18"/>
		</g>
		<g>
			<rect x="118.61" y="81.54" class="st13" width="5.61" height="2.18"/>
			<rect x="122.17" y="77.91" class="st13" width="5.61" height="2.18"/>
		</g>
		<g>
			<rect x="36" y="50.91" class="st13" width="5.61" height="2.18"/>
			<rect x="43.09" y="50.91" class="st13" width="5.61" height="2.18"/>
			<rect x="39.57" y="47.28" class="st13" width="5.61" height="2.18"/>
			<rect x="46.65" y="47.28" class="st13" width="5.61" height="2.18"/>
		</g>
		<g>
			
				<rect x="53.02" y="92.36" transform="matrix(-1 -1.224647e-16 1.224647e-16 -1 111.6615 186.8988)" class="st13" width="5.61" height="2.18"/>
			
				<rect x="73.95" y="88.72" transform="matrix(-1 -1.224647e-16 1.224647e-16 -1 153.5199 179.6321)" class="st13" width="5.61" height="2.18"/>
			
				<rect x="45.94" y="92.36" transform="matrix(-1 -1.224647e-16 1.224647e-16 -1 97.489 186.8988)" class="st13" width="5.61" height="2.18"/>
			
				<rect x="49.46" y="88.72" transform="matrix(-1 -1.224647e-16 1.224647e-16 -1 104.5291 179.6321)" class="st13" width="5.61" height="2.18"/>
			
				<rect x="42.37" y="88.72" transform="matrix(-1 -1.224647e-16 1.224647e-16 -1 90.3567 179.6321)" class="st13" width="5.61" height="2.18"/>
		</g>
		<g>
			<rect x="25.8" y="69.81" class="st13" width="4.06" height="2.18"/>
			<rect x="28.38" y="66.18" class="st13" width="4.06" height="2.18"/>
		</g>
		<g>
			<path class="st5" d="M117.52,61.06c-0.23,0-0.42,0.19-0.42,0.42v3.19c0,0.23,0.19,0.42,0.42,0.42c0.23,0,0.42-0.19,0.42-0.42
				v-3.19C117.94,61.25,117.76,61.06,117.52,61.06z"/>
			<path class="st5" d="M117.52,89.62c-0.23,0-0.42,0.19-0.42,0.42v3.19c0,0.23,0.19,0.42,0.42,0.42c0.23,0,0.42-0.19,0.42-0.42
				v-3.19C117.94,89.8,117.76,89.62,117.52,89.62z"/>
		</g>
		<rect x="72.69" y="50.91" class="st13" width="2.81" height="2.18"/>
		<rect x="75.89" y="47.28" class="st13" width="2.81" height="2.18"/>
		<rect x="68.38" y="47.28" class="st13" width="5.61" height="2.18"/>
		<rect x="30.6" y="88.57" class="st13" width="2.81" height="2.18"/>
		<rect x="25.83" y="84.94" class="st13" width="5.61" height="2.18"/>
		<rect x="119.5" y="67.18" class="st13" width="4.05" height="2.18"/>
		<rect x="82.23" y="60.34" class="st13" width="2.83" height="2.18"/>
		<rect x="83.65" y="63.49" class="st13" width="2.83" height="2.18"/>
		<g>
			<g>
				<path class="st11" d="M35.8,43.05c0,3.23,2.62,5.85,5.85,5.85l0,0c3.23,0,5.85-2.62,5.85-5.85V39.4H35.8V43.05z"/>
				<path class="st11" d="M59.21,43.05c0,3.23,2.62,5.85,5.85,5.85h0c3.23,0,5.85-2.62,5.85-5.85V39.4h-11.7V43.05z"/>
				<path class="st11" d="M82.61,43.05c0,3.23,2.62,5.85,5.85,5.85h0c3.23,0,5.85-2.62,5.85-5.85V39.4h-11.7V43.05z"/>
				<path class="st11" d="M106.02,39.4v3.65c0,3.23,2.62,5.85,5.85,5.85l0,0c3.23,0,5.85-2.62,5.85-5.85V39.4H106.02z"/>
			</g>
			<g>
				<polygon class="st14" points="35.8,39.4 47.5,39.4 48.9,35.13 37.76,35.13 				"/>
				<polygon class="st14" points="59.21,39.4 70.91,39.4 71.19,35.13 60.04,35.13 				"/>
				<polygon class="st14" points="82.33,35.13 82.61,39.4 94.31,39.4 93.48,35.13 				"/>
				<polygon class="st14" points="115.76,35.13 104.62,35.13 106.02,39.4 117.72,39.4 				"/>
			</g>
			<g>
				<path class="st15" d="M24.1,43.05c0,3.23,2.62,5.85,5.85,5.85h0c3.23,0,5.85-2.62,5.85-5.85V39.4H24.1V43.05z"/>
				<path class="st15" d="M47.5,43.05c0,3.23,2.62,5.85,5.85,5.85l0,0c3.23,0,5.85-2.62,5.85-5.85V39.4H47.5V43.05z"/>
				<path class="st15" d="M70.91,43.05c0,3.23,2.62,5.85,5.85,5.85s5.85-2.62,5.85-5.85V39.4h-11.7V43.05z"/>
				<path class="st15" d="M94.31,43.05c0,3.23,2.62,5.85,5.85,5.85l0,0c3.23,0,5.85-2.62,5.85-5.85V39.4h-11.7V43.05z"/>
				<path class="st15" d="M117.72,39.4v3.65c0,3.23,2.62,5.85,5.85,5.85h0c3.23,0,5.85-2.62,5.85-5.85V39.4H117.72z"/>
			</g>
			<g>
				<polygon class="st16" points="24.1,39.4 35.8,39.4 37.76,35.13 26.61,35.13 				"/>
				<polygon class="st16" points="47.5,39.4 59.21,39.4 60.04,35.13 48.9,35.13 				"/>
				<polygon class="st16" points="71.19,35.13 70.91,39.4 82.61,39.4 82.33,35.13 				"/>
				<polygon class="st16" points="93.48,35.13 94.31,39.4 106.02,39.4 104.62,35.13 				"/>
				<polygon class="st16" points="126.91,35.13 115.76,35.13 117.72,39.4 129.42,39.4 				"/>
			</g>
		</g>
		<rect x="27.83" y="54.65" class="st13" width="2.98" height="2.18"/>
		<g>
			<g>
				<rect x="34.62" y="55.11" class="st6" width="47.62" height="28.88"/>
				<rect x="36.29" y="56.78" class="st7" width="44.28" height="25.55"/>
				<g>
					<polygon class="st8" points="80.56,64.32 80.56,68.27 69.07,56.78 73.03,56.78 					"/>
					<polygon class="st8" points="80.56,69.37 80.56,71.35 66,56.78 67.98,56.78 					"/>
					<polygon class="st8" points="80.56,78.37 80.56,82.33 76.61,82.33 51.06,56.78 58.97,56.78 					"/>
				</g>
				<rect x="36.29" y="56.78" class="st9" width="44.28" height="0.89"/>
			</g>
			<rect x="32.14" y="84" class="st17" width="52.57" height="5.44"/>
			<path class="st1" d="M81.45,80.81H35.4c-1.22,0-2.21,0.99-2.21,2.21V84h50.47v-0.97C83.66,81.8,82.67,80.81,81.45,80.81z"/>
			<rect x="32.14" y="84" class="st14" width="52.57" height="1.16"/>
			<path class="st2" d="M83.66,82.91H33.2c0,0.04-0.01,0.07-0.01,0.11V84h50.47v-0.97C83.66,82.98,83.66,82.95,83.66,82.91z"/>
			<polygon class="st10" points="89.42,88.7 89.42,100.06 42.77,100.06 32.14,89.43 84.71,89.43 84.71,84 			"/>
		</g>
	</g>
	<path class="st6" d="M128.44,6H25.08c-1.62,0-2.93,1.31-2.93,2.93v15.97c0,1.62,1.31,2.93,2.93,2.93h103.35
		c1.62,0,2.93-1.31,2.93-2.93V8.93C131.37,7.31,130.05,6,128.44,6z"/>
	<path class="st18" d="M127.79,7.73H25.73c-1.04,0-1.88,0.84-1.88,1.88v14.6c0,1.04,0.84,1.88,1.88,1.88h102.05
		c1.04,0,1.88-0.84,1.88-1.88V9.61C129.67,8.57,128.82,7.73,127.79,7.73z"/>
	<path class="st9" d="M129.67,9.61v0.21H23.85V9.61c0-1.04,0.84-1.88,1.88-1.88h102.05C128.83,7.73,129.67,8.57,129.67,9.61z"/>
	<text transform="matrix(1 0 0 1 45.2969 23.0029)"><tspan x="0" y="0" class="st17 st19 st20 st21">STOR</tspan><tspan x="55.74" y="0" class="st17 st19 st20">E</tspan></text>
	<g>
		<rect x="33.88" y="27.82" class="st22" width="1.75" height="1.79"/>
		<rect x="117.9" y="27.82" class="st22" width="1.75" height="1.79"/>
	</g>
</g>
</svg>
