<?xml version="1.0" encoding="utf-8"?>
<!-- Generator: Adobe Illustrator 24.0.0, SVG Export Plug-In . SVG Version: 6.00 Build 0)  -->
<svg version="1.1" id="Layer_1" xmlns="http://www.w3.org/2000/svg" xmlns:xlink="http://www.w3.org/1999/xlink" x="0px" y="0px"
	 viewBox="0 0 155 209" style="enable-background:new 0 0 155 209;" xml:space="preserve">
<style type="text/css">
	.st0{opacity:0.3;fill:#BCBCBC;}
	.st1{fill:#3B328C;}
	.st2{fill:#635BA7;}
	.st3{fill:#3D1926;}
	.st4{fill:#33D7F2;}
	.st5{fill:#73D8EF;}
	.st6{fill:#635BA8;}
	.st7{fill:#EBE9F4;}
	.st8{fill:#FAB21B;}
	.st9{fill:#F79828;}
	.st10{fill:#FFBB43;}
	.st11{fill:#FFCB73;}
	.st12{fill:#F1583A;}
	.st13{fill:#7ACFE7;}
	.st14{fill:#FFD4CC;}
	.st15{fill:#FFE1D9;}
	.st16{fill:#F95D91;}
	.st17{fill:#FA7098;}
	.st18{fill:#E3E5E4;}
	.st19{fill:#F1F3F2;}
	.st20{fill:#F27FB2;}
	.st21{fill:#723A33;}
	.st22{fill:#8E5349;}
	.st23{fill:#8E4F4F;}
	.st24{fill:#111111;}
	.st25{fill:#582938;}
	.st26{fill:#C4BADC;}
	.st27{fill:#B4AAD3;}
</style>
<g>
	<path class="st0" d="M145.89,183.3c0,12.92-31.56,23.39-70.48,23.39c-38.93,0-70.48-10.47-70.48-23.39
		c0-12.92,31.56-23.39,70.48-23.39C114.33,159.91,145.89,170.38,145.89,183.3z"/>
	<g>
		<polygon class="st1" points="60.1,76.77 103.91,76.63 102.27,103.18 60.11,103.31 		"/>
		<g>
			<polygon class="st2" points="52.15,115.95 52.97,63.89 57.86,63.7 58.27,115.72 			"/>
			<polygon class="st1" points="57.86,63.7 61.42,66.32 61.47,115.6 58.27,115.72 			"/>
		</g>
		<g>
			<polygon class="st2" points="99.49,117.05 102.01,65.04 106.9,65.03 105.6,117.03 			"/>
			<polygon class="st1" points="106.9,65.03 110.38,67.76 108.81,117.02 105.6,117.03 			"/>
		</g>
		<g>
			<polygon class="st2" points="59.94,119.23 61.3,170.12 66.08,170.24 65.92,119.39 			"/>
			<polygon class="st1" points="66.08,170.24 69.54,167.65 69.05,119.47 65.92,119.39 			"/>
		</g>
		<g>
			<polygon class="st2" points="101.37,121.78 103.66,172.63 108.44,172.66 107.35,121.82 			"/>
			<polygon class="st1" points="108.44,172.66 111.85,170 110.48,121.84 107.35,121.82 			"/>
		</g>
		<polygon class="st2" points="56.89,72.16 101.95,73.64 100.3,100.18 58.15,100.32 		"/>
	</g>
	<path class="st3" d="M43.74,38.02c0,0-7.93,50.09-13.02,55.62c0,0,3.11,5.27,12.98,4.28c9.87-0.99,65.46,0.78,71.07-5.72
		l-1.46-7.75l5.46,6.6c0,0,3.58-2,6.3-4.8c0,0-16.4-35-20.18-48.21C101.1,24.84,43.74,38.02,43.74,38.02z"/>
	<g>
		<g>
			<g>
				<path class="st4" d="M63.08,140.48l1.51,12.49c3.99-2.61,8.41-4.39,13.03-5.47l0.16-7.03H63.08z"/>
				<path class="st5" d="M66.53,169.11l10.58,0.13l0.5-21.72c-4.62,1.08-9.04,2.86-13.03,5.47L66.53,169.11z"/>
				<g>
					<path class="st6" d="M66.48,169.67c12.64,4.31,10.17-4.97,10.97-0.44c0,0-4.42,15.67-12.52,15.17
						C57.74,183.96,66.48,169.67,66.48,169.67z"/>
					<path class="st7" d="M73.14,177.8c2.65-4.17,3.98-9.13,3.98-9.13c-3.67,0.92-10.64,0-10.64,0s-2.82,4.62-3.94,8.69
						C66.04,176.18,69.68,176.52,73.14,177.8z"/>
					<g>
						<path class="st6" d="M69.54,170.99c1.24-1.11,2.78-2.47,2.97-4.22c0.09-0.76-0.57-1.28-1.17-0.72
							c-0.4,0.37-0.57,1.11-0.73,1.62c-0.34,1.13-0.4,2.35-0.47,3.52c-0.3-0.01-0.59-0.03-0.88-0.04c0.07-1.16,0.17-2.3,0.16-3.46
							c0-0.42-0.5-4.96-1.65-3.25c-0.59,0.88,0.5,2.86,0.86,3.64c0.45,0.98,0.98,1.92,1.53,2.85c0.34,0.58-0.59,1.07-0.92,0.48
							c-0.86-1.52-4.19-6.77-1.56-8.01c3.31-1.57,2.53,6.46,2.47,7.79c-0.03,0.57-0.91,0.53-0.88-0.04
							c0.09-1.81,0.29-3.79,1.27-5.37c0.4-0.65,1.49-1.33,2.2-0.73c2.39,2.05-1.29,5.35-2.92,6.34
							C69.58,171.53,69.33,171.17,69.54,170.99L69.54,170.99z"/>
					</g>
					<path class="st6" d="M62.54,177.36c-0.85,3.09-0.71,5.85,2.39,6.04c3.48,0.21,6.21-2.47,8.2-5.6
						C69.68,176.52,66.04,176.18,62.54,177.36z"/>
					<g>
						<path class="st6" d="M65.7,172.18c2.92-0.21,5.6-0.73,8.46,0.22c0.18,0.06,0.31-0.23,0.13-0.31c-2.7-1.2-5.77-0.5-8.58-0.13
							C65.56,171.97,65.55,172.19,65.7,172.18L65.7,172.18z"/>
					</g>
					<g>
						<path class="st6" d="M64.85,174.43c2.92-0.21,5.6-0.73,8.46,0.22c0.18,0.06,0.31-0.23,0.13-0.31c-2.7-1.2-5.77-0.5-8.58-0.13
							C64.71,174.23,64.7,174.44,64.85,174.43L64.85,174.43z"/>
					</g>
				</g>
			</g>
			<g>
				<path class="st4" d="M77.89,140.48l1.51,12.49c3.99-2.61,8.42-4.39,13.03-5.47l0.16-7.03H77.89z"/>
				<path class="st5" d="M81.34,169.11l10.58,0.13l0.5-21.72c-4.62,1.08-9.04,2.86-13.03,5.47L81.34,169.11z"/>
				<g>
					<path class="st6" d="M81.29,169.67c12.63,4.31,10.17-4.97,10.97-0.44c0,0-4.42,15.67-12.52,15.17
						C72.55,183.96,81.29,169.67,81.29,169.67z"/>
					<path class="st7" d="M87.94,177.8c2.65-4.17,3.98-9.13,3.98-9.13c-3.67,0.92-10.63,0-10.63,0s-2.82,4.62-3.94,8.69
						C80.84,176.18,84.49,176.52,87.94,177.8z"/>
					<g>
						<path class="st6" d="M84.35,170.99c1.24-1.11,2.78-2.47,2.97-4.22c0.09-0.76-0.57-1.28-1.17-0.72
							c-0.4,0.37-0.57,1.11-0.73,1.62c-0.34,1.13-0.4,2.35-0.47,3.52c-0.3-0.01-0.59-0.03-0.88-0.04c0.07-1.16,0.17-2.3,0.16-3.46
							c0-0.42-0.5-4.96-1.65-3.25c-0.59,0.88,0.5,2.86,0.86,3.64c0.45,0.98,0.98,1.92,1.53,2.85c0.35,0.58-0.59,1.07-0.92,0.48
							c-0.87-1.52-4.19-6.77-1.57-8.01c3.31-1.57,2.53,6.46,2.47,7.79c-0.03,0.57-0.91,0.53-0.88-0.04
							c0.09-1.81,0.29-3.79,1.27-5.37c0.4-0.65,1.49-1.33,2.2-0.73c2.39,2.05-1.29,5.35-2.91,6.34
							C84.39,171.53,84.14,171.17,84.35,170.99L84.35,170.99z"/>
					</g>
					<path class="st6" d="M77.35,177.36c-0.85,3.09-0.71,5.85,2.39,6.04c3.48,0.21,6.21-2.47,8.2-5.6
						C84.49,176.52,80.84,176.18,77.35,177.36z"/>
					<g>
						<path class="st6" d="M80.51,172.18c2.92-0.21,5.6-0.73,8.45,0.22c0.18,0.06,0.31-0.23,0.13-0.31c-2.7-1.2-5.77-0.5-8.58-0.13
							C80.37,171.97,80.36,172.19,80.51,172.18L80.51,172.18z"/>
					</g>
					<g>
						<path class="st6" d="M79.66,174.43c2.92-0.21,5.6-0.73,8.46,0.22c0.18,0.06,0.31-0.23,0.13-0.31c-2.7-1.2-5.77-0.5-8.58-0.13
							C79.52,174.23,79.51,174.44,79.66,174.43L79.66,174.43z"/>
					</g>
				</g>
			</g>
		</g>
		<polygon class="st8" points="108.93,123.48 107.84,131.82 121.95,110.48 121.95,103.09 		"/>
		<g>
			<polygon class="st8" points="49.5,127.65 52.25,179.65 57.25,179.65 55.75,127.65 			"/>
			<polygon class="st9" points="57.25,179.65 60.8,176.9 59.02,127.65 55.75,127.65 			"/>
		</g>
		<g>
			<polygon class="st8" points="109.7,126.92 111.16,179.65 116.16,179.65 114.66,127.65 			"/>
			<polygon class="st9" points="116.16,179.65 119.71,176.9 118.21,122.38 114.66,127.65 			"/>
		</g>
		<polygon class="st9" points="107.84,131.82 25.5,131.82 25.5,140.48 108.64,140.48 		"/>
		<polygon class="st9" points="107.84,131.82 108.64,140.48 120.28,120.23 120.63,112.48 		"/>
		<g>
			<polygon class="st8" points="28.78,140.48 31.53,192.48 36.53,192.48 35.03,140.48 			"/>
			<polygon class="st9" points="36.53,192.48 40.08,189.73 38.31,140.48 35.03,140.48 			"/>
		</g>
		<g>
			<polygon class="st8" points="96.55,140.48 99.3,192.48 104.3,192.48 102.8,140.48 			"/>
			<polygon class="st9" points="104.3,192.48 107.84,189.73 106.07,140.48 102.8,140.48 			"/>
		</g>
		<path class="st8" d="M19.16,123.48l1.54,8.33H42.3c-1.93-2.22-3.93-5.92-5.76-8.33H19.16z"/>
		<path class="st10" d="M36.53,123.48c1.83,2.41,3.83,6.12,5.76,8.33h6.53c-1.78-2.39-4.21-5.98-6.15-8.33H36.53z"/>
		<path class="st8" d="M42.68,123.48c1.93,2.36,4.37,5.94,6.15,8.33h7.45c-1.29-2.41-3.46-5.95-4.75-8.33H42.68z"/>
		<path class="st8" d="M108.93,123.48H63.08c1.26,2.53,3.42,5.88,4.97,8.33h39.78L108.93,123.48z"/>
		<path class="st10" d="M51.53,123.48c1.29,2.39,3.46,5.92,4.75,8.33h11.77c-1.55-2.46-3.71-5.8-4.97-8.33H51.53z"/>
		<polygon class="st11" points="122.2,103.09 41.84,101.48 19.41,123.48 109.18,123.48 		"/>
		<g>
			<g>
				<path class="st7" d="M77.04,103.08l-8.2,17.9h25.88l5.62-17.9H77.04z M93,119.23c-0.48,0-0.88-0.32-0.88-0.72
					c0-0.4,0.39-0.72,0.88-0.72s0.88,0.32,0.88,0.72C93.88,118.9,93.48,119.23,93,119.23z M95.59,112.03
					c-0.48,0-0.88-0.32-0.88-0.72c0-0.4,0.39-0.72,0.88-0.72s0.88,0.32,0.88,0.72C96.46,111.7,96.07,112.03,95.59,112.03z
					 M97.34,106.03c-0.48,0-0.88-0.32-0.88-0.72c0-0.4,0.39-0.72,0.88-0.72s0.88,0.32,0.88,0.72
					C98.21,105.71,97.82,106.03,97.34,106.03z"/>
				<g>
					<path class="st12" d="M90.43,119.86c2-5.1,3.74-10.58,5.03-15.91c0.07-0.27-0.31-0.37-0.41-0.11
						c-1.98,5.12-3.57,10.62-4.97,15.93C90.02,119.99,90.34,120.07,90.43,119.86L90.43,119.86z"/>
				</g>
				<g>
					<path class="st13" d="M72.23,116.17c5.46,0.35,15.82,0.35,21.28-0.04c0.28-0.02,0.25-0.41-0.02-0.43
						c-5.48-0.33-15.8-0.17-21.28,0.11C71.98,115.82,72.01,116.15,72.23,116.17L72.23,116.17z"/>
				</g>
				<g>
					<path class="st13" d="M72.98,113.09c5.46,0.35,15.82,0.35,21.28-0.04c0.28-0.02,0.25-0.41-0.02-0.43
						c-5.48-0.33-15.8-0.17-21.28,0.11C72.73,112.75,72.75,113.08,72.98,113.09L72.98,113.09z"/>
				</g>
				<g>
					<path class="st13" d="M75.02,110.56c5.09,0.3,14.73,0.26,19.82-0.12c0.26-0.02,0.24-0.38-0.01-0.39
						c-5.1-0.28-14.72-0.1-19.82,0.19C74.79,110.24,74.81,110.54,75.02,110.56L75.02,110.56z"/>
				</g>
				<g>
					<path class="st13" d="M75.46,108.1c5.09,0.3,14.73,0.26,19.82-0.12c0.26-0.02,0.24-0.38-0.01-0.39
						c-5.1-0.28-14.72-0.1-19.82,0.19C75.23,107.78,75.25,108.09,75.46,108.1L75.46,108.1z"/>
				</g>
				<g>
					<path class="st13" d="M76.23,105.6c5.09,0.3,14.73,0.26,19.82-0.12c0.26-0.02,0.24-0.38-0.01-0.39
						c-5.1-0.28-14.72-0.1-19.82,0.19C76,105.28,76.02,105.59,76.23,105.6L76.23,105.6z"/>
				</g>
			</g>
			<g>
				<path d="M84.34,119.28c0.11-0.19,0.01-0.52-0.17-0.87c-0.25,0.26-0.54,0.65-0.61,1.13C83.92,119.53,84.23,119.46,84.34,119.28z"
					/>
				<g>
					<path class="st8" d="M75.66,114.45c-0.49-0.61-0.41-1.33-0.1-2l-0.41-0.25l-1.34,2.21l8.14,4.94l-0.02,0.04
						c0,0,0.03,0,0.07,0.01c0.05-0.1,0.13-0.19,0.2-0.27C80.07,117.95,77.31,116.36,75.66,114.45z"/>
					<path class="st11" d="M83.12,117.85c-0.15-0.33,0-0.56,0.2-0.7c-0.01-0.01-0.01-0.02-0.01-0.02l-0.01,0.02l-7.74-4.7
						c-0.3,0.67-0.39,1.39,0.1,2c1.64,1.91,4.41,3.5,6.55,4.68c0.16-0.17,0.33-0.28,0.33-0.28
						C82.16,118.05,83.12,117.85,83.12,117.85z"/>
					<path class="st14" d="M82.01,119.4c0.15,0.02,0.5,0.06,0.86,0.09c-0.22-0.12-0.44-0.24-0.66-0.36
						C82.14,119.21,82.07,119.3,82.01,119.4z"/>
					<path class="st15" d="M84.17,118.41c-0.17-0.31-0.74-1.12-0.84-1.26c-0.2,0.14-0.35,0.37-0.2,0.7c0,0-0.97,0.2-0.58,1
						c0,0-0.17,0.11-0.33,0.28c0.22,0.12,0.44,0.24,0.66,0.36c0.26,0.03,0.51,0.04,0.68,0.05
						C83.63,119.06,83.92,118.67,84.17,118.41z"/>
				</g>
				<path class="st16" d="M73.19,112.66l-0.28,0.47c-0.06,0.1-0.23,0.56,0.05,0.73l0.57,0.38c0.07,0.04,0.18,0,0.25-0.1l0.21-0.34
					C73.55,113.54,73.26,113.13,73.19,112.66z"/>
				<path class="st17" d="M74.37,113.14l0.52-0.86c0.06-0.1,0.05-0.22-0.02-0.27l-0.6-0.33c-0.28-0.17-0.61,0.19-0.67,0.3
					l-0.34,0.57l-0.01,0.02l-0.06,0.1c0.07,0.48,0.36,0.88,0.79,1.13l0.31-0.52L74.37,113.14z"/>
				<path class="st18" d="M73.82,113.68l-0.32,0.54l0.33,0.2l0.33-0.54C74.03,113.82,73.92,113.75,73.82,113.68z"/>
				<path class="st19" d="M74.84,111.99l-1.02,1.69c0.1,0.07,0.21,0.14,0.33,0.19l1.02-1.68L74.84,111.99z"/>
			</g>
		</g>
	</g>
	<path class="st20" d="M82.76,73.91l-0.89,2.72c-1.93,0.89-5.03,0.99-6.12,1c-0.03,0-0.05,0-0.08,0c-1.09-0.01-4.19-0.11-6.12-1
		l-0.13-2.43c0,0-16.57-3.64-24.58,15c0,0,9.22,6.42,12.07,6.83l0.62,5.77l17.26,0.34l0,0.04l0.93-0.02l0.93,0.02l0-0.04l17.36,0.38
		l0.51-6.49c2.85-0.42,12.07-6.83,12.07-6.83C98.57,70.55,82.76,73.91,82.76,73.91z"/>
	<path class="st21" d="M68.05,68.11c0,0,1.51,3.62,1.61,9.08c0,0,6.83,1.92,12-0.08l3.54-10.67L68.05,68.11z"/>
	<g>
		<g>
			<g>
				<g>
					<g>
						<path class="st22" d="M37.79,51.53c0.72,3.61,4.68,6.97,11.91,3.9l-0.25-5.14C45.7,48.51,41.1,48.96,37.79,51.53z"/>
						<path class="st21" d="M39.69,46.26c-1.68,1.08-2.31,3.22-1.9,5.27c3.31-2.57,7.91-3.01,11.65-1.24l-0.17-3.54
							C49.27,46.74,44.32,43.27,39.69,46.26z"/>
					</g>
					<g>
						<g>
							<g>
								<path d="M41.3,50.27c1.89-0.08,4.25-1.09,5.79,0.52c1.1,1.15,1.06,3.04,1.18,4.51c0.02,0.27,0.43,0.28,0.43,0
									c-0.04-1.64-0.17-3.68-1.46-4.87c-1.59-1.46-4.12-0.85-5.95-0.29C41.21,50.16,41.22,50.27,41.3,50.27L41.3,50.27z"/>
							</g>
						</g>
						<g>
							<g>
								<path d="M44.69,52.03c0.84-0.43,1.57-0.56,2.33,0.08c0.49,0.41,0.8,0.96,1.21,1.42c0.18,0.2,0.47-0.05,0.36-0.27
									c-0.81-1.55-2.52-2.85-4.09-1.48C44.35,51.9,44.53,52.11,44.69,52.03L44.69,52.03z"/>
							</g>
						</g>
					</g>
				</g>
				<g>
					<g>
						<path class="st22" d="M114.16,47.77c-0.36,3.66-3.97,7.39-11.46,5.05l-0.25-5.14C105.99,45.55,110.62,45.54,114.16,47.77z"/>
						<path class="st21" d="M111.75,42.72c1.78,0.91,2.61,2.97,2.41,5.06c-3.54-2.23-8.17-2.22-11.72-0.09l-0.17-3.54
							C102.27,44.14,106.85,40.2,111.75,42.72z"/>
					</g>
					<g>
						<g>
							<g>
								<path d="M110.55,46.73c-1.9-0.37-4.51-0.74-5.94,0.91c-1.13,1.3-1.07,3.33-0.94,4.93c0.02,0.27,0.43,0.28,0.43,0
									c-0.02-1.42-0.22-3.08,0.55-4.36c1.26-2.07,3.92-1.24,5.89-1.35C110.61,46.87,110.64,46.75,110.55,46.73L110.55,46.73z"/>
							</g>
						</g>
						<g>
							<g>
								<path d="M107.49,48.67c-1.7-1.21-3.29,0.31-3.92,1.92c-0.1,0.26,0.27,0.36,0.41,0.17c0.4-0.54,0.66-1.18,1.19-1.64
									c0.69-0.6,1.41-0.48,2.2-0.16C107.55,49.03,107.63,48.76,107.49,48.67L107.49,48.67z"/>
							</g>
						</g>
					</g>
				</g>
				<path class="st22" d="M48.41,44.95c0,0,0.21,10,2.85,14.83c2.64,4.82,10.96,9.94,21.75,10.4c10.78,0.46,24.87-3.77,27.74-11.7
					c2.87-7.93,3.88-13.36,2.5-21.22c-1.38-7.86-1.98-11.37-9.49-14.54C86.24,19.55,45.39,3.66,48.41,44.95z"/>
				<g>
					<g>
						<path d="M74.59,43.7c-0.23,0.89-0.3,1.93-0.42,2.85c-0.08,0.62-0.17,1.32,0.23,1.85c0.26,0.35,0.63,0.55,1.06,0.45
							c0.25-0.06,0.43-0.24,0.64-0.38c0.03-0.02,0.48-0.4,0.6-0.37c0.21,0.39,0.41,0.78,0.62,1.17c-0.18,0.3-0.43,0.5-0.74,0.6
							c-0.3,0.13-0.04,0.57,0.26,0.44c0.65-0.29,1.27-0.99,1.12-1.76c-0.12-0.62-0.75-1.07-1.38-0.91
							c-0.31,0.08-0.49,0.37-0.77,0.49c-1.4,0.6-1.32-0.88-1.18-1.79c0.11-0.74,0.58-1.98,0.15-2.68
							C74.72,43.61,74.61,43.62,74.59,43.7L74.59,43.7z"/>
					</g>
				</g>
				<g>
					<g>
						<path class="st23" d="M56.93,39.93c1.18-1.83,2.53-2.93,4.66-3.47c0.25-0.06,0.19-0.44-0.06-0.45
							C59.66,36,57,37.93,56.7,39.84C56.68,39.97,56.85,40.06,56.93,39.93L56.93,39.93z"/>
					</g>
				</g>
				<g>
					<g>
						<path class="st23" d="M88.22,34.43c1.84,0.36,3.64,0.53,5.08,1.87c0.29,0.27,0.71-0.15,0.44-0.44
							c-1.22-1.31-3.76-2.16-5.52-1.72C88.08,34.18,88.07,34.41,88.22,34.43L88.22,34.43z"/>
					</g>
				</g>
				<path class="st21" d="M67.29,57.4c0.13,2.73-2.11,5.06-5.02,5.2c-2.9,0.14-5.37-1.96-5.5-4.68c-0.13-2.73,2.11-5.06,5.02-5.2
					C64.69,52.57,67.15,54.66,67.29,57.4z"/>
				<path class="st21" d="M96.06,55.98c0.13,2.73-2.11,5.06-5.02,5.2c-2.91,0.14-5.37-1.96-5.5-4.68c-0.13-2.73,2.11-5.06,5.02-5.2
					C93.46,51.15,95.93,53.25,96.06,55.98z"/>
				<g>
					<g>
						<path d="M72.64,53.1c-0.23,2.32,2.67,3.1,4.43,3.27c0.23,0.02,0.28-0.35,0.05-0.41c-0.87-0.22-1.79-0.37-2.6-0.77
							c-0.95-0.47-1.35-1.15-1.62-2.13C72.87,52.9,72.66,52.95,72.64,53.1L72.64,53.1z"/>
					</g>
				</g>
			</g>
		</g>
		<path class="st24" d="M64.64,46.79c0.06,0.95-0.52,1.76-1.31,1.81c-0.79,0.05-1.48-0.67-1.55-1.62c-0.06-0.95,0.52-1.76,1.31-1.81
			C63.89,45.12,64.58,45.84,64.64,46.79z"/>
		<path class="st24" d="M88.07,45.2c0.06,0.95-0.52,1.76-1.31,1.81c-0.79,0.05-1.48-0.67-1.54-1.62c-0.06-0.95,0.52-1.76,1.31-1.81
			C87.31,43.53,88,44.25,88.07,45.2z"/>
	</g>
	<path class="st3" d="M55.71,21.91c0.34-1.29,0.69-2.58,1.04-3.87c-5.55,2.35-9.96,6.74-11.42,11.03
		c-2.53,7.5-1.07,15.99-1.07,15.99c0.97,0.1,3.76,0.99,4.19,1.2c0.82,0.41-0.72-2.86,0.15-3.14c1.7-0.55,3.47-1.02,5.25-1.41
		C52.85,34.91,53.71,28.16,55.71,21.91z"/>
	<path class="st25" d="M60.87,16.76c-1.42,0.3-2.8,0.73-4.11,1.28c-0.35,1.29-0.7,2.58-1.04,3.87c-2,6.25-2.87,13-1.86,19.81
		c2.51-0.55,5.05-0.94,7.51-1.23C59.57,32.65,59.53,24.61,60.87,16.76z"/>
	<path class="st3" d="M75.14,16.76c0,0,4-6.67,1.5-6.55c-2.49,0.12-3.57,6.65-3.57,6.65s-1.11-5.31-3.81-4.32
		c-2.7,0.99,1.15,4.54,1.15,4.54c-3.21-0.98-6.47-0.98-9.54-0.33c-1.34,7.85-1.3,15.89,0.5,23.73c9.34-1.08,17.4-0.53,17.4-0.53
		s-0.71-9.43,0.5-7.4c1.2,2.03,1.87,7.53,1.87,7.53l7.41-0.12c0.3-1.78-0.5-10.17-0.5-10.17c1.8,2.74,3.64,10.51,3.64,10.51
		c0.98,0.18,2.23,0.37,3.56,0.55c-1.89-8.83-6.56-17.47-11.54-25.36C78.95,15.74,75.14,16.76,75.14,16.76z"/>
	<path class="st25" d="M83.71,15.5c4.98,7.9,9.65,16.53,11.54,25.36c2.25,0.32,4.75,0.63,6.74,0.86
		C100.96,32.45,97.25,23.3,91.41,16C88.85,15.47,86.15,15.38,83.71,15.5z"/>
	<path class="st3" d="M101.25,23.38c-1.78-4.4-5.63-6.5-9.84-7.38c5.84,7.29,9.56,16.44,10.58,25.73c0.51,0.06,1,0.12,1.44,0.17
		c1.28,0.14-0.27,1.11,0.44,1.18c0.58,0.06,2.26-0.9,2.26-0.9S106.2,35.67,101.25,23.38z"/>
	<path class="st21" d="M45.25,89.48c0,0-9.6,10.96-9.51,14.84c0.09,3.88,9.51,1.13,9.51,1.13l7.83-11.83L45.25,89.48z"/>
	<g>
		<path class="st7" d="M56.76,75.95l1.1-5.42c0,0,12.97,5.17,16.97,10.75v24.67l-20.33-9L56.76,75.95z"/>
		<path class="st7" d="M61.19,75.07l0.88-5.42c0,0,10.42,5.17,13.63,10.75v24.67l-16.33-9L61.19,75.07z"/>
		<path class="st7" d="M65.86,74.45l0.6-5.42c0,0,7.11,5.17,9.3,10.75v24.67l-11.15-9L65.86,74.45z"/>
		<path class="st7" d="M93.91,75.82l-1.1-5.42c0,0-12.97,5.17-16.97,10.75v24.67l20.33-9L93.91,75.82z"/>
		<path class="st7" d="M89.47,74.95l-0.88-5.42c0,0-10.42,5.17-13.63,10.75v24.67l16.33-9L89.47,74.95z"/>
		<path class="st7" d="M84.81,74.32l-0.6-5.42c0,0-7.11,5.17-9.3,10.75v24.67l11.15-9L84.81,74.32z"/>
		<path class="st26" d="M73.62,81.14v25.81c0,0-15.98-7.75-20.79-8.75l-0.76-21.88c0,0-0.51-4.3,3.58-3.53
			C59.74,73.56,72.33,80.14,73.62,81.14z"/>
		<path class="st26" d="M77.91,80.97v25.46c0,0,15.98-7.75,20.79-8.75l0.76-21.88c0,0,0.51-4.3-3.58-3.53
			C91.79,73.05,79.2,79.97,77.91,80.97z"/>
		<path class="st27" d="M73.62,106.95V81.14c0,0,2.8-1.75,4.3-0.17v25.46C77.91,106.43,77.24,107.84,73.62,106.95z"/>
	</g>
	<path class="st22" d="M38.74,101.48l11.56-6.54c0,0-2.29-6.16,0-6.83c2.29-0.67,3.07,4.17,3.07,4.17s3.17-4.96,5.27-4.23
		c1.61,0.56-0.27,3.43-1.24,4.74c-0.3,0.4-0.51,0.66-0.51,0.66s2.6-3.5,4.47-2.42c1.88,1.09-2.72,3.7-2.72,3.7s4.13-2.81,4.19-0.5
		c0.03,1.21-9.9,13.88-14.58,17.22c-4.68,3.33-13.33-2.99-12.52-7.13C36.04,102.75,38.74,101.48,38.74,101.48z"/>
	<path class="st21" d="M106.16,89.48c0,0,9.6,10.96,9.51,14.84c-0.09,3.88-9.51,1.13-9.51,1.13l-7.83-11.83L106.16,89.48z"/>
	<path class="st22" d="M112.66,101.48l-11.56-6.54c0,0,2.29-6.16,0-6.83c-2.29-0.67-3.07,4.17-3.07,4.17s-3.17-4.96-5.27-4.23
		c-1.61,0.56,0.27,3.43,1.24,4.74c0.3,0.4,0.51,0.66,0.51,0.66s-2.6-3.5-4.47-2.42c-1.88,1.09,2.72,3.7,2.72,3.7
		s-4.13-2.81-4.18-0.5c-0.03,1.21,9.9,13.88,14.58,17.22c4.68,3.33,13.33-2.99,12.52-7.13
		C115.36,102.75,112.66,101.48,112.66,101.48z"/>
</g>
</svg>
