<svg height="480pt" viewBox="0 -128 480.00001 480" width="480pt" xmlns="http://www.w3.org/2000/svg"><path d="m143.199219 176c-3.785157-18.644531-20.175781-32.039062-39.199219-32.039062s-35.414062 13.394531-39.199219 32.039062c-1.066406 5.28125-1.066406 10.71875 0 16 3.785157 18.644531 20.175781 32.039062 39.199219 32.039062s35.414062-13.394531 39.199219-32.039062c1.066406-5.28125 1.066406-10.71875 0-16zm-39.199219 32c-13.253906 0-24-10.746094-24-24s10.746094-24 24-24 24 10.746094 24 24c-.039062 13.238281-10.761719 23.960938-24 24zm0 0"/><path d="m128 184c0 13.253906-10.746094 24-24 24s-24-10.746094-24-24 10.746094-24 24-24 24 10.746094 24 24zm0 0" fill="#ccc"/><path d="m415.199219 176c-3.785157-18.644531-20.175781-32.039062-39.199219-32.039062s-35.414062 13.394531-39.199219 32.039062c-1.066406 5.28125-1.066406 10.71875 0 16 3.785157 18.644531 20.175781 32.039062 39.199219 32.039062s35.414062-13.394531 39.199219-32.039062c1.066406-5.28125 1.066406-10.71875 0-16zm-39.199219 32c-13.253906 0-24-10.746094-24-24s10.746094-24 24-24 24 10.746094 24 24c-.039062 13.238281-10.761719 23.960938-24 24zm0 0"/><path d="m400 184c0 13.253906-10.746094 24-24 24s-24-10.746094-24-24 10.746094-24 24-24 24 10.746094 24 24zm0 0" fill="#ccc"/><path d="m476.398438 86.398438-24.71875-54.558594c-8.910157-19.378906-28.273438-31.808594-49.601563-31.839844h-354.636719c-26.191406.0273438-47.4140622 21.25-47.441406 47.441406v118.558594c0 14.359375 11.640625 26 26 26h38.800781c-1.066406-5.28125-1.066406-10.71875 0-16 3.785157-18.644531 20.175781-32.039062 39.199219-32.039062s35.414062 13.394531 39.199219 32.039062h193.601562c3.785157-18.644531 20.175781-32.039062 39.199219-32.039062s35.414062 13.394531 39.199219 32.039062c1.066406 5.28125 1.066406 10.71875 0 16h42.5625c9.878906-.003906 18.574219-6.519531 21.359375-16 .578125-2.03125.871094-4.128906.878906-6.238281v-66.800781c-.003906-5.714844-1.230469-11.363282-3.601562-16.5625zm-101.039063 9.601562h-311.359375c-4.417969 0-8-3.582031-8-8v-48c0-4.417969 3.582031-8 8-8h312l51.28125-6.480469c4.1875 3.546875 7.546875 7.972657 9.839844 12.960938l.800781 1.839843 21.117187 46.558594 2.800782 6.160156c1.441406 3.109376 2.179687 6.496094 2.160156 9.921876v.398437zm0 0" fill="#f9c60b"/><path d="m459.039062 86.878906-75.039062-6.238281v-33.601563l53.921875-6.71875zm0 0" fill="#9fe0f6"/><path d="m461.839844 93.039062-2.800782-6.160156-75.039062-6.238281v-33.601563l53.921875-6.71875-.800781-1.839843c-2.292969-4.988281-5.652344-9.414063-9.839844-12.960938l-51.28125 6.480469h-312c-4.417969 0-8 3.582031-8 8v48c0 4.417969 3.582031 8 8 8h311.359375l88.640625 7.359375v-.398437c.019531-3.425782-.71875-6.8125-2.160156-9.921876zm-333.839844-13.039062h-56v-32h56zm80 0h-64v-32h64zm72 0h-56v-32h56zm88 0h-72v-32h72zm0 0" fill="#faab1c"/><g fill="#9fe0f6"><path d="m72 48h56v32h-56zm0 0"/><path d="m144 48h64v32h-64zm0 0"/><path d="m224 48h56v32h-56zm0 0"/><path d="m296 48h72v32h-72zm0 0"/></g><path d="m476.40625 86.398438-24.734375-54.511719c-8.90625-19.382813-28.261719-31.8281252-49.59375-31.886719h-354.636719c-26.191406.0273438-47.4140622 21.25-47.441406 47.441406v118.558594c.0195312 14.351562 11.648438 25.980469 26 26h38.800781c3.785157 18.644531 20.175781 32.039062 39.199219 32.039062s35.414062-13.394531 39.199219-32.039062h193.601562c3.785157 18.644531 20.175781 32.039062 39.199219 32.039062s35.414062-13.394531 39.199219-32.039062h42.5625c12.277343-.011719 22.226562-9.960938 22.238281-22.238281v-66.800781c.003906-5.714844-1.222656-11.363282-3.59375-16.5625zm-17.34375.523437-75.0625-6.28125v-33.601563l53.9375-6.742187zm-355.0625 121.078125c-13.253906 0-24-10.746094-24-24s10.746094-24 24-24 24 10.746094 24 24-10.746094 24-24 24zm272 0c-13.253906 0-24-10.746094-24-24s10.746094-24 24-24 24 10.746094 24 24-10.746094 24-24 24zm81.761719-32h-42.5625c-3.785157-18.644531-20.175781-32.039062-39.199219-32.039062s-35.414062 13.394531-39.199219 32.039062h-193.601562c-3.785157-18.644531-20.175781-32.039062-39.199219-32.039062s-35.414062 13.394531-39.199219 32.039062h-38.800781c-5.519531-.007812-9.992188-4.480469-10-10v-118.558594c.019531-17.359375 14.082031-31.421875 31.441406-31.441406h354.636719c9.304687.019531 18.285156 3.402344 25.289063 9.519531l-51.863282 6.480469h-311.503906c-4.417969 0-8 3.582031-8 8v48c0 4.417969 3.582031 8 8 8h311.664062l88.335938 7.359375v66.402344c-.003906 3.441406-2.796875 6.234375-6.238281 6.238281zm-385.761719-96v-32h56v32zm72-32h64v32h-64zm80 0h56v32h-56zm72 0h72v32h-72zm0 0"/></svg>