<?xml version="1.0" encoding="utf-8"?>
<!-- Generator: Adobe Illustrator 24.2.0, SVG Export Plug-In . SVG Version: 6.00 Build 0)  -->
<svg version="1.1" id="Layer_1" xmlns="http://www.w3.org/2000/svg" xmlns:xlink="http://www.w3.org/1999/xlink" x="0px" y="0px"
	 viewBox="0 0 512 512" style="enable-background:new 0 0 512 512;" xml:space="preserve">
<style type="text/css">
	.st0{fill:#FFFFFF;}
	.st1{fill:#F4F4F4;}
	.st2{fill:#0091EA;}
	.st3{fill:#00C300;}
	.st4{fill:#2979FF;}
	.st5{fill:#008B00;}
</style>
<path d="M401.1,287.8c-23.6,0-42.7,19.1-42.7,42.7s19.1,42.7,42.7,42.7s42.7-19.1,42.7-42.7S424.6,287.8,401.1,287.8z M401.1,356.1
	c-14.1,0-25.6-11.5-25.6-25.6c0-14.1,11.5-25.6,25.6-25.6s25.6,11.5,25.6,25.6C426.7,344.6,415.1,356.1,401.1,356.1z"/>
<circle class="st0" cx="401.1" cy="330.5" r="25.6"/>
<path d="M110.9,287.8c-23.6,0-42.7,19.1-42.7,42.7s19.1,42.7,42.7,42.7s42.7-19.1,42.7-42.7S134.5,287.8,110.9,287.8z M110.9,356.1
	c-14.1,0-25.6-11.5-25.6-25.6c0-14.1,11.5-25.6,25.6-25.6s25.6,11.5,25.6,25.6C136.5,344.6,125,356.1,110.9,356.1z"/>
<circle class="st0" cx="110.9" cy="330.5" r="25.6"/>
<path d="M503.5,287.8v-51.2c0-3.7-2.4-6.9-5.8-8.1l-48.2-16c-18.1-30.7-43-59.9-98.1-69.5c-0.1-0.1-0.2-0.1-0.3-0.1
	C249.3,128.8,173,151.7,123.9,211C67.2,211.9,8.5,229.7,8.5,262.2v25.6c-4.7,0-8.5,3.8-8.5,8.5v34.1c0,4.7,3.8,8.5,8.5,8.5h34.1
	c4.7,0,8.5-3.8,8.5-8.5c0-32.9,26.8-59.7,59.7-59.7s59.7,26.8,59.7,59.7c0,4.7,3.8,8.5,8.5,8.5h153.6c4.7,0,8.5-3.8,8.5-8.5
	c0-32.9,26.8-59.7,59.7-59.7s59.7,26.8,59.7,59.7c0,4.7,3.8,8.5,8.5,8.5h34.1c4.7,0,8.5-3.8,8.5-8.5v-34.1
	C512,291.7,508.2,287.8,503.5,287.8z M393,175.7c14.8,9,25.9,21.1,35.4,35.3h-35.8L393,175.7z M290.1,155.9
	c18.3-0.3,37.6,0.9,58.4,3.8c10.3,1.8,19.4,4.4,27.5,7.6l-0.4,43.7h-85.4L290.1,155.9L290.1,155.9z M273.1,156.6V211H146.9
	C178.6,178.4,220.3,160.3,273.1,156.6z M494.9,322h-17.6c-4.2-38.3-36.9-68.3-76.3-68.3s-72.1,30-76.3,68.3H187.2
	c-4.2-38.3-36.9-68.3-76.3-68.3s-72.1,30-76.3,68.3H17.1v-17.1c4.7,0,8.5-3.8,8.5-8.5v-25.6h8.5c4.7,0,8.5-3.8,8.5-8.5
	s-3.8-8.5-8.5-8.5h-4.4c11.5-12.5,46.8-25.6,98.3-25.6h314.4l44,14.7v10.9h-8.5c-4.7,0-8.5,3.8-8.5,8.5s3.8,8.5,8.5,8.5h8.5v25.6
	c0,4.7,3.8,8.5,8.5,8.5V322z"/>
<path class="st0" d="M128,330.5c0-12.6-9.3-23.1-21.3-25.2c-12.1,2.1-21.3,12.5-21.3,25.2s9.3,23.1,21.3,25.2
	C118.7,353.6,128,343.1,128,330.5z"/>
<path class="st1" d="M110.9,304.9c-1.5,0-2.9,0.2-4.3,0.4c12.1,2.1,21.3,12.5,21.3,25.2c0,12.6-9.3,23.1-21.3,25.2
	c1.4,0.2,2.8,0.4,4.3,0.4c14.1,0,25.6-11.5,25.6-25.6C136.5,316.4,125,304.9,110.9,304.9z"/>
<path class="st0" d="M418.1,330.1c0-12.6-9.3-23.1-21.3-25.2c-12.1,2.1-21.3,12.5-21.3,25.2s9.3,23.1,21.3,25.2
	C408.9,353.2,418.1,342.7,418.1,330.1z"/>
<path class="st1" d="M401.1,304.9c-1.5,0-2.9,0.2-4.3,0.4c12.1,2.1,21.3,12.5,21.3,25.2s-9.3,23.1-21.3,25.2
	c1.4,0.2,2.8,0.4,4.3,0.4c14.1,0,25.6-11.5,25.6-25.6C426.7,316.4,415.1,304.9,401.1,304.9z"/>
<g>
	<path class="st0" d="M393,176l-0.2,21.9h18.5C405.8,189.8,399.8,182.5,393,176z"/>
	<path class="st0" d="M290.1,155.9v42h75l0.3-34.1c3.6,1.1,7.2,2.2,10.5,3.5c-8.1-3.2-17.2-5.8-27.5-7.6
		C327.8,156.8,308.4,155.7,290.1,155.9z"/>
	<path class="st0" d="M161.3,197.9h101.3v-40.2c3.5-0.4,6.8-0.9,10.4-1.1c-47.5,3.4-86.1,18.5-116.4,45.3
		C158.2,200.6,159.8,199.2,161.3,197.9z"/>
</g>
<g>
	<path class="st1" d="M392.7,197.9l-0.1,13.1L392.7,197.9z"/>
	<polygon class="st1" points="393,176 393,176 393,175.7 	"/>
	<path class="st1" d="M428.4,211c-8.6-14.9-20.6-26.3-35.4-35.3C407.8,184.8,418.8,196.8,428.4,211z"/>
	<path class="st1" d="M393,175.7v0.3c6.8,6.5,12.8,13.8,18.3,21.9h-18.5l-0.1,13.1h35.8C418.8,196.8,407.8,184.8,393,175.7z"/>
	<path class="st1" d="M365.1,197.9h-75V211h85.4l0.4-43.7c-3.3-1.3-6.9-2.4-10.5-3.5L365.1,197.9z"/>
	<path class="st1" d="M146.9,211c3.1-3.2,6.4-6.2,9.7-9.1C153.3,204.8,150.1,207.8,146.9,211z"/>
	<path class="st1" d="M262.7,197.9H161.3c-1.6,1.3-3.1,2.7-4.7,4c-3.3,2.9-6.6,5.9-9.7,9.1h126.1v-54.4c-3.6,0.3-6.9,0.7-10.4,1.1
		L262.7,197.9L262.7,197.9z"/>
</g>
<g>
	<path class="st2" d="M185.8,313.5c-0.1-0.3-0.1-0.5-0.2-0.8C185.6,313,185.7,313.2,185.8,313.5z"/>
	<path class="st2" d="M326.4,312.8c-0.1,0.2-0.1,0.5-0.2,0.8C326.3,313.2,326.4,313,326.4,312.8z"/>
	<path class="st2" d="M36.3,312.8c-0.1,0.2-0.1,0.5-0.2,0.8C36.2,313.2,36.2,313,36.3,312.8z"/>
	<path class="st2" d="M475.9,313.5c-0.1-0.3-0.1-0.5-0.2-0.8C475.8,313,475.8,313.2,475.9,313.5z"/>
	<path class="st3" d="M486.4,296.4v-25.6h-8.5c-4.7,0-8.5-3.8-8.5-8.5s3.8-8.5,8.5-8.5h8.5v-10.9l-44-14.7H128
		c-51.5,0-86.8,13.1-98.3,25.6h4.4c4.7,0,8.5,3.8,8.5,8.5s-3.8,8.5-8.5,8.5h-8.5v25.6c0,4.7-3.8,8.5-8.5,8.5h21.6
		c10.5-29.8,39-51.2,72.3-51.2s61.8,21.4,72.3,51.2h145.5c10.5-29.8,39-51.2,72.3-51.2s61.8,21.4,72.3,51.2h21.5
		C490.2,304.9,486.4,301.1,486.4,296.4z"/>
</g>
<g>
	<path class="st4" d="M36.1,313.5c-0.6,2.8-1.2,5.6-1.5,8.5C35,319.1,35.5,316.3,36.1,313.5z"/>
	<path class="st4" d="M38.6,304.9L38.6,304.9c-0.9,2.6-1.7,5.2-2.3,7.9C36.9,310.1,37.7,307.5,38.6,304.9z"/>
	<path class="st5" d="M17.1,322h17.6c0.3-2.9,0.8-5.7,1.5-8.5c0.1-0.3,0.1-0.5,0.2-0.8c0.6-2.7,1.4-5.3,2.3-7.9H17.1V322z"/>
	<path class="st4" d="M477.4,322c-0.3-2.9-0.8-5.7-1.5-8.5C476.5,316.3,477,319.1,477.4,322z"/>
	<path class="st4" d="M473.4,304.9c0.9,2.6,1.7,5.2,2.3,7.8C475.1,310.1,474.3,307.5,473.4,304.9L473.4,304.9z"/>
	<path class="st5" d="M473.4,304.9c0.9,2.6,1.7,5.2,2.3,7.8c0.1,0.3,0.1,0.5,0.2,0.8c0.6,2.8,1.2,5.6,1.5,8.5h17.6v-17.1H473.4z"/>
	<path class="st4" d="M328.8,304.9L328.8,304.9c-0.9,2.6-1.7,5.2-2.3,7.9C327.1,310.1,327.9,307.5,328.8,304.9z"/>
	<path class="st4" d="M326.2,313.5c-0.6,2.8-1.2,5.6-1.5,8.5C325.1,319.1,325.6,316.3,326.2,313.5z"/>
	<path class="st4" d="M187.2,322c-0.3-2.9-0.8-5.7-1.5-8.5C186.4,316.3,186.9,319.1,187.2,322z"/>
	<path class="st4" d="M183.2,304.9c0.9,2.6,1.7,5.2,2.3,7.8C184.9,310.1,184.1,307.5,183.2,304.9L183.2,304.9z"/>
	<path class="st5" d="M185.6,312.7c0.1,0.3,0.1,0.5,0.2,0.8c0.6,2.8,1.2,5.6,1.5,8.5h137.6c0.3-2.9,0.8-5.7,1.5-8.5
		c0.1-0.3,0.1-0.5,0.2-0.8c0.6-2.7,1.4-5.3,2.3-7.9H183.2C184.1,307.5,184.9,310.1,185.6,312.7z"/>
</g>
</svg>
