<?xml version="1.0" encoding="utf-8"?>
<!-- Generator: Adobe Illustrator 24.0.0, SVG Export Plug-In . SVG Version: 6.00 Build 0)  -->
<svg version="1.1" id="Layer_1" xmlns="http://www.w3.org/2000/svg" xmlns:xlink="http://www.w3.org/1999/xlink" x="0px" y="0px"
	 viewBox="0 0 512 512" style="enable-background:new 0 0 512 512;" xml:space="preserve">
<style type="text/css">
	.st0{fill:#F81606;}
	.st1{fill:#787680;}
</style>
<g>
	<g>
		<path class="st0" d="M32,96h448v240H32V96z"/>
		<g>
			<path class="st1" d="M216,32h80v32h-80V32z"/>
			<path class="st1" d="M72,32h80v32H72V32z"/>
			<path class="st1" d="M360,32h80v32h-80V32z"/>
			<path class="st1" d="M96,336h32v144H96V336z"/>
			<path class="st1" d="M384,336h32v144h-32V336z"/>
		</g>
	</g>
	<g>
		<path d="M496,472h-72V344h56c4.4,0,8-3.6,8-8V96c0-4.4-3.6-8-8-8h-72V72h32c4.4,0,8-3.6,8-8V32c0-4.4-3.6-8-8-8h-80
			c-4.4,0-8,3.6-8,8v32c0,4.4,3.6,8,8,8h32v16H264V72h32c4.4,0,8-3.6,8-8V32c0-4.4-3.6-8-8-8h-80c-4.4,0-8,3.6-8,8v32
			c0,4.4,3.6,8,8,8h32v16H120V72h32c4.4,0,8-3.6,8-8V32c0-4.4-3.6-8-8-8H72c-4.4,0-8,3.6-8,8v32c0,4.4,3.6,8,8,8h32v16H32
			c-4.4,0-8,3.6-8,8v240c0,4.4,3.6,8,8,8h56v128H16c-4.4,0-8,3.6-8,8s3.6,8,8,8h480c4.4,0,8-3.6,8-8S500.4,472,496,472z M368,56V40
			h64v16H368z M224,56V40h64v16H224z M80,56V40h64v16H80z M120,472h-16V344h16V472z M376,472H136V344h240V472z M408,472h-16V344h16
			V472z M40,328V104h432v224H40z"/>
		<path d="M336,264h120c4.4,0,8-3.6,8-8s-3.6-8-8-8H336c-4.4,0-8,3.6-8,8S331.6,264,336,264z"/>
		<path d="M456,272h-96c-4.4,0-8,3.6-8,8s3.6,8,8,8h96c4.4,0,8-3.6,8-8S460.4,272,456,272z"/>
		<path d="M456,296h-40c-4.4,0-8,3.6-8,8s3.6,8,8,8h40c4.4,0,8-3.6,8-8S460.4,296,456,296z"/>
		<path d="M392,296h-8c-4.4,0-8,3.6-8,8s3.6,8,8,8h8c4.4,0,8-3.6,8-8S396.4,296,392,296z"/>
	</g>
</g>
</svg>
