<?xml version="1.0" encoding="utf-8"?>
<!-- Generator: Adobe Illustrator 27.0.0, SVG Export Plug-In . SVG Version: 6.00 Build 0)  -->
<svg version="1.1" id="Layer_1" xmlns="http://www.w3.org/2000/svg" xmlns:xlink="http://www.w3.org/1999/xlink" x="0px" y="0px"
	 viewBox="0 0 384 384" style="enable-background:new 0 0 384 384;" xml:space="preserve">
<style type="text/css">
	.st0{fill:#FEFEFE;}
	.st1{fill:#060505;}
	.st2{fill:#FDFDFD;}
	.st3{fill:#E5824D;}
	.st4{fill:#FEDE33;}
	.st5{fill:#F8F7F7;}
	.st6{fill:#FDBB34;}
	.st7{fill:#FADE79;}
	.st8{fill:#F4CB57;}
	.st9{fill:#D36D3F;}
</style>
<g>
	<path class="st0" d="M0.1,105.8c0-34.3,0-68.7,0-103C0,0.7,0.2,0,2.6,0c126.2,0.1,252.5,0.1,378.7,0c2.4,0,2.6,0.7,2.6,2.8
		c-0.1,34.6,0,69.2,0,103.8c-0.1-0.1-0.3-0.1-0.3-0.2c-5-17-14.3-23.9-32.1-23.9c-28.8,0-57.7,0-86.5,0.1c-2.7,0-3.7-0.5-3.6-3.5
		c0.2-7.1,0-14.2,0.1-21.3c0.2-8.5-3.4-14.8-10.7-19.1c-8.4-5-17.3-8.7-26.7-11.2c-4.3-1.1-6.3-0.1-8.2,4.2c-3.5-0.5-6.9-1-10.4-1.6
		c-0.9-5.1-2.5-6.5-7.7-6.7c-6.7-0.2-13.5-0.1-20.2,0.7c-16.1,2-31.4,6.4-45.2,15.1c-6.6,4.1-9.8,10-9.7,17.8c0.1,7-0.2,14,0.1,21
		c0.1,3.5-0.6,4.6-4.4,4.6c-29.5-0.2-58.9-0.1-88.4-0.1c-14.6,0-25,8.1-29.1,22.2C0.7,105,0.3,105.4,0.1,105.8z"/>
	<path class="st1" d="M0.1,105.8c0.3-0.4,0.6-0.7,0.7-1.2c4.1-14.1,14.5-22.1,29.1-22.2c29.5-0.1,58.9-0.1,88.4,0.1
		c3.8,0,4.5-1.1,4.4-4.6c-0.3-7,0-14-0.1-21c-0.1-7.8,3.1-13.6,9.7-17.8c13.9-8.7,29.2-13.1,45.2-15.1c6.7-0.8,13.4-1,20.2-0.7
		c5.2,0.2,6.8,1.6,7.7,6.7c-1.2,3.2-3.4,5.3-7,4.9c-7.9-0.7-15.7-0.1-23.5,1.1c-13.1,1.9-25.4,5.9-36.7,12.9
		c-2.3,1.5-4.1,3.2-4.1,6.2c0.1,6.6,0.1,13.2,0.1,19.8c-0.5,7.4-0.5,7.4,5.9,7.4c7.1,0,7.1,0,6.7-7.4c0-3.2,0.4-6.5,0.1-9.7
		c-0.5-5.1,1.9-7.8,6.3-9.7c12.3-5.1,25.1-7.7,38.5-7.7c13.6,0,26.7,2.6,39.2,7.9c4.2,1.8,6.3,4.4,6,9.1c-0.2,3.3,0,6.7,0.1,10.1
		c-0.5,7.4-0.5,7.4,5.9,7.4c7.2,0,7.2,0,6.7-7.4c0.1-6.1,0-12.2,0.2-18.3c0.1-3.7-1.4-6.1-4.4-8c-7.6-4.7-15.7-8-24.3-10.3
		c-3.7-1-5.6-3-5.4-6.9c1.9-4.3,3.8-5.3,8.2-4.2c9.4,2.5,18.3,6.2,26.7,11.2c7.4,4.4,10.9,10.6,10.7,19.1
		c-0.2,7.1,0.1,14.2-0.1,21.3c-0.1,2.9,0.8,3.5,3.6,3.5c28.8-0.1,57.7-0.1,86.5-0.1c17.8,0,27.1,6.9,32.1,23.9
		c0,0.1,0.2,0.1,0.3,0.2c0,30,0,60,0,90c-2.3,4.4-3.5,9.5-7.3,13.1c-1.9,1.8-2.4,3.8-2.4,6.3c0.1,38.8,0.2,77.6-0.1,116.4
		c-0.1,15.9-12.9,28.3-28.8,28.4c-20.1,0.1-40.2,0-60.3,0c-4.5,0-6.2-1.5-7-5.9c1.2-4.3,2.5-5.4,7.2-5.4c19.6,0,39.2,0,58.8,0
		c10.5,0,18.8-7.5,18.8-17.2c0.1-34.9,0-69.9,0-104.8c0-2.1,0-4.1,0-6.6c-1.4,0.8-2.4,1.3-3.3,1.9c-27.6,17-57.9,26-89.5,31.6
		c-14.4,2.6-29,3.9-43.6,5.2c-6.5,0.6-6.5,0.7-7,7.4c-0.3,1.1-0.7,2.1-1,3.2c-5.8,18.8-27.8,25.9-43.4,14
		c-5.7-4.4-8.8-10.3-10.6-17.1c-0.1-1.4-0.3-2.8-0.2-4.1c0.2-2.3-0.5-3.2-3.1-3.3c-7-0.3-13.9-0.7-20.8-1.5
		c-20-2.4-39.8-5.6-59.3-11.1c-5.1-1.4-6.2-2.8-6-8.2c2.2-3.5,5-4.1,9-3c23.9,6.8,48.2,10.6,73,12c7.5,0.4,7.5,0.4,7.1-7.6
		c0-1,0.1-2,0.1-3c0.1-9.6,5.4-15,15-15c9,0,17.9-0.1,26.9,0c7.5,0.1,13.1,5.6,13.5,13.1c0.1,1.6,0.1,3.2,0.1,4.8
		c0,1.7,0.1,3.5-0.1,5.2c-0.3,2.6,0.8,3.4,3.2,2.8c4.5-1,9.2-0.7,13.8-1.1c22.6-2.1,44.9-5.8,66.7-12.3c22.2-6.6,43.4-15.6,61.9-30
		c3.6-2.8,6.5-6.2,6.6-11.2c0.8-1.6,0.8-3.4,0.8-5.1c0-25.1,0-50.2,0-75.3c0-11.8-7.4-19.2-19.1-19.2c-107.7,0-215.4,0-323,0
		c-11.7,0-19.1,7.4-19.1,19.2c0,25.1,0,50.2,0,75.3c0,1.8,0,3.5,0.8,5.1c0.2,4.9,3,8.3,6.6,11.1c11.6,9.2,24.6,16,38.2,21.7
		c5.1,2.2,5.5,2.8,5.4,8.4c-2.3,3.4-5,4.2-9,2.5c-10.1-4.3-20-9.1-29.3-14.9c-0.9-0.5-1.6-1.6-3-1c0,2,0,4,0,6
		c0,33.8,0.2,67.7-0.2,101.5c-0.2,11.5,7.4,20.7,20.6,20.7c46.1-0.3,92.1-0.1,138.2-0.1c26.7,0,53.4,0,80.2,0c4.7,0,6,1.1,7.2,5.4
		c-0.9,4.6-2.5,5.9-7.4,5.9c-73.4,0-146.8,0-220.3,0c-3,0-5.9-0.4-8.8-1.2c-10.3-2.8-21.1-13.2-20.9-29.4
		c0.3-38.2,0.1-76.4,0.1-114.6c0-1.3,0.6-2.9-0.5-3.9c-4.6-4.1-6.6-9.7-9.1-15C0.1,166.3,0.1,136,0.1,105.8z M207.8,234.7
		c-0.6-1.8-2.1-1.4-3.4-1.4c-8.2,0-16.5,0-24.7,0c-1.3,0-2.9-0.4-3.4,1.4c-0.2,0.3-0.5,0.6-0.5,1c0,9.1-0.4,18.3,0.1,27.3
		c0.6,9.6,7.7,15.6,16.9,15.3c8.6-0.2,15.3-7,15.6-16.4c0.2-8.5,0.1-17,0-25.5C208.3,235.8,208,235.2,207.8,234.7z M192.1,82.5
		c10.1,0,20.2-0.1,30.3,0.1c2.6,0,3.2-0.8,3.1-3.2c-0.2-3.5-0.2-7,0-10.5c0.1-2.2-0.6-3.4-2.7-4.1c-20.6-7.3-41.2-7.4-61.8,0.1
		c-2,0.7-2.7,1.8-2.5,3.9c0.2,3.5,0.2,7,0,10.5c-0.2,2.6,0.6,3.4,3.3,3.4C171.9,82.4,182,82.5,192.1,82.5z"/>
	<path class="st2" d="M0.1,196.5c2.4,5.4,4.5,10.9,9.1,15c1.1,1,0.5,2.6,0.5,3.9c0,38.2,0.2,76.4-0.1,114.6
		c-0.1,16.1,10.7,26.6,20.9,29.4c2.9,0.8,5.8,1.2,8.8,1.2c73.4,0,146.8,0,220.3,0c4.9,0,6.5-1.3,7.4-5.9c3.7,0,7.4,0,11.1,0
		c0.8,4.5,2.5,5.9,7,5.9c20.1,0,40.2,0.1,60.3,0c15.9-0.1,28.7-12.4,28.8-28.4c0.2-38.8,0.1-77.6,0.1-116.4c0-2.5,0.4-4.5,2.4-6.3
		c3.8-3.5,5-8.6,7.3-13.1c0,61.5,0,123,0.1,184.4c0,2.6-0.5,3.1-3.1,3.1c-126-0.1-251.9-0.1-377.9,0c-2.6,0-3.1-0.5-3.1-3.1
		C0.1,319.5,0.1,258,0.1,196.5z"/>
	<path class="st3" d="M237.1,75c0-3.4-0.3-6.7-0.1-10.1c0.3-4.7-1.8-7.4-6-9.1c-12.5-5.3-25.6-7.9-39.2-7.9
		c-13.4,0-26.1,2.6-38.5,7.7c-4.5,1.9-6.8,4.6-6.3,9.7c0.3,3.2,0,6.5-0.1,9.7c-4.2,0-8.4,0-12.6,0c0-6.6-0.1-13.2-0.1-19.8
		c0-3,1.8-4.8,4.1-6.2c11.3-7,23.6-11.1,36.7-12.9c7.8-1.1,15.6-1.8,23.5-1.1c3.7,0.3,5.8-1.7,7-4.9c3.5,0.5,6.9,1,10.4,1.6
		c-0.2,3.8,1.7,5.9,5.4,6.9c8.6,2.3,16.7,5.6,24.3,10.3c3,1.9,4.6,4.3,4.4,8c-0.2,6.1-0.2,12.2-0.2,18.3C245.5,75,241.3,75,237.1,75
		z"/>
	<path class="st4" d="M12.1,193.5c-0.8-1.6-0.8-3.4-0.8-5.1c0-25.1,0-50.2,0-75.3c0-11.8,7.4-19.2,19.1-19.2c107.7,0,215.4,0,323,0
		c11.7,0,19.1,7.5,19.1,19.2c0,25.1,0,50.2,0,75.3c0,1.8,0,3.5-0.8,5.1c-1.9,0.1-2.6,1.8-3.9,2.7c-20.6,15.3-43.7,25.1-68.2,31.8
		c-15.3,4.2-30.8,7.3-46.6,9.2c-11.1,1.3-22.1,2.9-33.3,2.8c0-1.6,0-3.2-0.1-4.8c-0.4-7.5-6-13.1-13.5-13.1c-9-0.1-17.9-0.1-26.9,0
		c-9.6,0-14.9,5.4-15,15c0,1-0.1,2-0.1,3c-4.5,0.1-8.9-0.3-13.4-0.6c-9.9-0.6-19.7-1.9-29.5-3.4c-14.9-2.3-29.7-5.6-44.2-10.1
		c-18.3-5.6-35.7-13.1-51.9-23.3C20.7,199.7,16.9,195.9,12.1,193.5z"/>
	<path class="st4" d="M278.1,354.7c-3.7,0-7.4,0-11.1,0c-1.2-4.3-2.5-5.4-7.2-5.4c-26.7,0-53.4,0-80.2,0c-46.1,0-92.1-0.2-138.2,0.1
		c-13.2,0.1-20.8-9.1-20.6-20.7c0.5-33.8,0.2-67.7,0.2-101.5c9,5,17.7,10.6,27.1,14.8c17.5,7.9,35.6,13.3,54.3,17.4
		c11.4,2.5,22.9,4.2,34.5,5.4c9.1,1,18.2,2.4,27.4,2c1.8,6.8,4.9,12.8,10.6,17.1c15.6,11.9,37.6,4.8,43.4-14c0.3-1.1,0.7-2.1,1-3.2
		c8.6,0.8,17.2-0.6,25.6-1.5c16.8-1.8,33.4-4.7,49.7-9c18.5-4.9,36.4-11.1,53.1-20.5c5-2.8,9.9-5.7,14.8-8.5
		c0,34.9,0.1,69.9,0,104.8c0,9.7-8.3,17.2-18.8,17.2c-19.6,0.1-39.2,0-58.8,0C280.6,349.4,279.3,350.4,278.1,354.7z"/>
	<path class="st5" d="M192.1,82.5c-10.1,0-20.2-0.1-30.3,0.1c-2.7,0-3.4-0.8-3.3-3.4c0.2-3.5,0.2-7,0-10.5c-0.1-2.1,0.6-3.2,2.5-3.9
		c20.6-7.5,41.2-7.4,61.8-0.1c2.1,0.8,2.8,1.9,2.7,4.1c-0.2,3.5-0.2,7,0,10.5c0.1,2.4-0.5,3.2-3.1,3.2
		C212.3,82.4,202.2,82.5,192.1,82.5z"/>
	<path class="st6" d="M12.1,193.5c4.8,2.4,8.6,6.2,13.1,9.1c16.2,10.2,33.6,17.7,51.9,23.3c14.5,4.4,29.3,7.7,44.2,10.1
		c9.8,1.5,19.6,2.8,29.5,3.4c4.5,0.3,8.9,0.7,13.4,0.6c0.4,8,0.4,8-7.1,7.6c-24.8-1.4-49.1-5.2-73-12c-3.9-1.1-6.8-0.5-9,3
		c-4.4-0.6-8.4-2.8-12.8-3.8c0.1-5.6-0.3-6.2-5.4-8.4c-13.6-5.7-26.6-12.5-38.2-21.7C15.1,201.8,12.3,198.4,12.1,193.5z"/>
	<path class="st6" d="M62.4,234.7c4.3,1,8.3,3.2,12.8,3.8c-0.2,5.4,0.9,6.8,6,8.2c19.4,5.5,39.3,8.8,59.3,11.1
		c6.9,0.8,13.9,1.2,20.8,1.5c2.6,0.1,3.3,1,3.1,3.3c-0.1,1.4,0.1,2.7,0.2,4.1c-9.2,0.5-18.3-1-27.4-2c-11.6-1.2-23.1-2.9-34.5-5.4
		c-18.6-4-36.8-9.5-54.3-17.4c-9.5-4.3-18.1-9.8-27.1-14.8c0-2,0-4,0-6c1.4-0.6,2.1,0.5,3,1c9.3,5.8,19.2,10.6,29.3,14.9
		C57.4,238.9,60.1,238.1,62.4,234.7z"/>
	<path class="st6" d="M219.8,240c11.2,0.1,22.2-1.6,33.3-2.8c15.8-1.8,31.3-5,46.6-9.2c24.5-6.7,47.7-16.5,68.2-31.8
		c1.3-0.9,2-2.6,3.9-2.7c-0.2,4.9-3,8.3-6.6,11.2c-18.5,14.4-39.7,23.4-61.9,30c-21.8,6.5-44.1,10.2-66.7,12.3
		c-4.6,0.4-9.2,0.1-13.8,1.1c-2.4,0.5-3.5-0.2-3.2-2.8C219.9,243.5,219.8,241.7,219.8,240z"/>
	<path class="st7" d="M176.2,234.7c0.6-1.8,2.1-1.4,3.4-1.4c8.2,0,16.5,0,24.7,0c1.3,0,2.9-0.4,3.4,1.4c0,8.6-0.2,17.2,0,25.8
		c0.1,3.1-1.3,4.9-3.6,6.4c-7.9,5-17.5,4.7-25.2-0.7c-1.9-1.3-2.8-2.9-2.8-5.3C176.3,252.1,176.2,243.4,176.2,234.7z"/>
	<path class="st6" d="M362.9,227.3c-4.9,2.8-9.8,5.8-14.8,8.5c-16.7,9.4-34.7,15.7-53.1,20.5c-16.3,4.3-33,7.1-49.7,9
		c-8.5,0.9-17,2.3-25.6,1.5c0.5-6.8,0.5-6.8,7-7.4c14.6-1.4,29.2-2.7,43.6-5.2c31.6-5.6,61.9-14.6,89.5-31.6
		c0.9-0.6,1.9-1.1,3.3-1.9C362.9,223.2,362.9,225.2,362.9,227.3z"/>
	<path class="st8" d="M176.2,234.7c0,8.7,0.1,17.4,0,26.2c0,2.4,0.9,4,2.8,5.3c7.6,5.4,17.3,5.7,25.2,0.7c2.3-1.5,3.7-3.3,3.6-6.4
		c-0.2-8.6,0-17.2,0-25.8c0.2,0.6,0.5,1.1,0.5,1.7c0,8.5,0.2,17,0,25.5c-0.3,9.4-6.9,16.2-15.6,16.4c-9.2,0.2-16.3-5.8-16.9-15.3
		c-0.5-9.1-0.1-18.2-0.1-27.3C175.7,235.3,176,235,176.2,234.7z"/>
	<path class="st9" d="M134.3,75c4.2,0,8.4,0,12.6,0c0.5,7.4,0.5,7.4-6.7,7.4C133.8,82.5,133.8,82.5,134.3,75z"/>
	<path class="st9" d="M237.1,75c4.2,0,8.4,0,12.6,0c0.5,7.4,0.5,7.4-6.7,7.4C236.6,82.5,236.6,82.5,237.1,75z"/>
</g>
</svg>
