<?xml version="1.0" encoding="iso-8859-1"?>
<!-- Generator: Adobe Illustrator 19.0.0, SVG Export Plug-In . SVG Version: 6.00 Build 0)  -->
<svg version="1.1" id="Capa_1" xmlns="http://www.w3.org/2000/svg" xmlns:xlink="http://www.w3.org/1999/xlink" x="0px" y="0px"
	 viewBox="0 0 512 512" style="enable-background:new 0 0 512 512;" xml:space="preserve">
<path style="fill:#EEF8FF;" d="M256,22.105C126.823,22.105,22.105,126.823,22.105,256S126.823,489.896,256,489.896
	S489.896,385.177,489.896,256S385.177,22.105,256,22.105z"/>
<path style="fill:#CCDFED;" d="M256,39.423c-8.327,0-16.539,0.487-24.621,1.401C339.396,53.05,423.336,144.715,423.336,256
	s-83.94,202.95-191.956,215.176c8.082,0.915,16.294,1.401,24.621,1.401c119.612,0,216.577-96.965,216.577-216.577
	S375.612,39.423,256,39.423z"/>
<path style="fill:#FF4C4C;" d="M256,0C114.615,0,0,114.615,0,256s114.615,256,256,256s256-114.615,256-256S397.385,0,256,0z
	 M256,469.651c-117.996,0-213.651-95.655-213.651-213.651S138.004,42.349,256,42.349S469.651,138.004,469.651,256
	S373.996,469.651,256,469.651z"/>
<path style="fill:#F33A3A;" d="M256,0c-7.549,0-15.016,0.346-22.398,0.986C338.66,10.095,425.56,82.64,455.771,180.13
	c8.96,23.579,13.88,49.148,13.88,75.87s-4.92,52.291-13.88,75.87c-30.21,97.49-117.111,170.035-222.169,179.144
	c7.383,0.64,14.85,0.986,22.398,0.986c141.385,0,256-114.615,256-256S397.385,0,256,0z"/>
<path style="fill:#2C5871;" d="M176.8,113.403c0-9.199,8.324-17.523,21.466-17.523h88.055c55.637,0,99.445,26.723,99.445,98.569
	v2.628c0,71.846-45.123,99.445-102.95,99.445h-49.065v101.635c0,11.828-14.457,17.962-28.476,17.962
	c-14.457,0-28.475-6.133-28.475-17.962L176.8,113.403L176.8,113.403z M233.751,145.822v106.017h49.065
	c28.475,0,45.999-16.209,45.999-50.38v-5.257c0-34.171-17.523-50.38-45.999-50.38L233.751,145.822L233.751,145.822z"/>
<g>
</g>
<g>
</g>
<g>
</g>
<g>
</g>
<g>
</g>
<g>
</g>
<g>
</g>
<g>
</g>
<g>
</g>
<g>
</g>
<g>
</g>
<g>
</g>
<g>
</g>
<g>
</g>
<g>
</g>
</svg>
