<?xml version="1.0" encoding="utf-8"?>
<!-- Generator: Adobe Illustrator 24.0.0, SVG Export Plug-In . SVG Version: 6.00 Build 0)  -->
<svg version="1.1" id="Capa_1" xmlns="http://www.w3.org/2000/svg" xmlns:xlink="http://www.w3.org/1999/xlink" x="0px" y="0px"
	 viewBox="0 0 480 480" style="enable-background:new 0 0 480 480;" xml:space="preserve">
<style type="text/css">
	.st0{fill:#FBD100;}
	.st1{fill:#F6FF00;}
</style>
<rect x="147.5" y="53.3" class="st0" width="186.9" height="415.9"/>
<rect x="112" y="9.3" class="st0" width="255.3" height="26.6"/>
<path class="st1" d="M192,472v-80h96v80h64V40H128v432H192z M288,72h32v32h-32V72z M288,136h32v32h-32V136z M288,200h32v32h-32V200z
	 M288,264h32v32h-32V264z M288,328h32v32h-32V328z M224,72h32v32h-32V72z M224,136h32v32h-32V136z M224,200h32v32h-32V200z M224,264
	h32v32h-32V264z M224,328h32v32h-32V328z M160,72h32v32h-32V72z M160,136h32v32h-32V136z M160,200h32v32h-32V200z M160,264h32v32
	h-32V264z M160,328h32v32h-32V328z"/>
<g>
	<path d="M192,64h-32c-4.4,0-8,3.6-8,8v32c0,4.4,3.6,8,8,8h32c4.4,0,8-3.6,8-8V72C200,67.6,196.4,64,192,64z M184,96h-16V80h16V96z"
		/>
	<path d="M256,64h-32c-4.4,0-8,3.6-8,8v32c0,4.4,3.6,8,8,8h32c4.4,0,8-3.6,8-8V72C264,67.6,260.4,64,256,64z M248,96h-16V80h16V96z"
		/>
	<path d="M320,64h-32c-4.4,0-8,3.6-8,8v32c0,4.4,3.6,8,8,8h32c4.4,0,8-3.6,8-8V72C328,67.6,324.4,64,320,64z M312,96h-16V80h16V96z"
		/>
	<path d="M192,128h-32c-4.4,0-8,3.6-8,8v32c0,4.4,3.6,8,8,8h32c4.4,0,8-3.6,8-8v-32C200,131.6,196.4,128,192,128z M184,160h-16v-16
		h16V160z"/>
	<path d="M256,128h-32c-4.4,0-8,3.6-8,8v32c0,4.4,3.6,8,8,8h32c4.4,0,8-3.6,8-8v-32C264,131.6,260.4,128,256,128z M248,160h-16v-16
		h16V160z"/>
	<path d="M320,128h-32c-4.4,0-8,3.6-8,8v32c0,4.4,3.6,8,8,8h32c4.4,0,8-3.6,8-8v-32C328,131.6,324.4,128,320,128z M312,160h-16v-16
		h16V160z"/>
	<path d="M192,192h-32c-4.4,0-8,3.6-8,8v32c0,4.4,3.6,8,8,8h32c4.4,0,8-3.6,8-8v-32C200,195.6,196.4,192,192,192z M184,224h-16v-16
		h16V224z"/>
	<path d="M256,192h-32c-4.4,0-8,3.6-8,8v32c0,4.4,3.6,8,8,8h32c4.4,0,8-3.6,8-8v-32C264,195.6,260.4,192,256,192z M248,224h-16v-16
		h16V224z"/>
	<path d="M320,192h-32c-4.4,0-8,3.6-8,8v32c0,4.4,3.6,8,8,8h32c4.4,0,8-3.6,8-8v-32C328,195.6,324.4,192,320,192z M312,224h-16v-16
		h16V224z"/>
	<path d="M192,256h-32c-4.4,0-8,3.6-8,8v32c0,4.4,3.6,8,8,8h32c4.4,0,8-3.6,8-8v-32C200,259.6,196.4,256,192,256z M184,288h-16v-16
		h16V288z"/>
	<path d="M256,256h-32c-4.4,0-8,3.6-8,8v32c0,4.4,3.6,8,8,8h32c4.4,0,8-3.6,8-8v-32C264,259.6,260.4,256,256,256z M248,288h-16v-16
		h16V288z"/>
	<path d="M320,256h-32c-4.4,0-8,3.6-8,8v32c0,4.4,3.6,8,8,8h32c4.4,0,8-3.6,8-8v-32C328,259.6,324.4,256,320,256z M312,288h-16v-16
		h16V288z"/>
	<path d="M192,320h-32c-4.4,0-8,3.6-8,8v32c0,4.4,3.6,8,8,8h32c4.4,0,8-3.6,8-8v-32C200,323.6,196.4,320,192,320z M184,352h-16v-16
		h16V352z"/>
	<path d="M256,320h-32c-4.4,0-8,3.6-8,8v32c0,4.4,3.6,8,8,8h32c4.4,0,8-3.6,8-8v-32C264,323.6,260.4,320,256,320z M248,352h-16v-16
		h16V352z"/>
	<path d="M320,320h-32c-4.4,0-8,3.6-8,8v32c0,4.4,3.6,8,8,8h32c4.4,0,8-3.6,8-8v-32C328,323.6,324.4,320,320,320z M312,352h-16v-16
		h16V352z"/>
	<path d="M360,464V48h8c4.4,0,8-3.6,8-8V8c0-4.4-3.6-8-8-8H112c-4.4,0-8,3.6-8,8v32c0,4.4,3.6,8,8,8h8v416H48v16h384v-16H360z
		 M120,16h240v16H120V16z M200,464v-64h32v64H200z M248,464v-64h32v64H248z M296,464v-72c0-4.4-3.6-8-8-8h-96c-4.4,0-8,3.6-8,8v72
		h-48V48h208v416H296z"/>
</g>
</svg>
