<svg id="Capa_1" enable-background="new 0 0 512 512" height="512" viewBox="0 0 512 512" width="512" xmlns="http://www.w3.org/2000/svg"><g><g><path d="m223.295 409.09h65.41v95.41h-65.41z" fill="#30579d"/><path d="m223.295 409.09h65.41v54.931h-65.41z" fill="#26457d"/><path d="m223.295 409.09h23.413v95.41h-23.413z" fill="#26457d"/><path d="m120.141 439.09h271.719c44.147 0 79.935-35.788 79.935-79.935v-271.72c0-44.147-35.788-79.935-79.935-79.935h-271.719c-44.147 0-79.935 35.788-79.935 79.935v271.719c-.001 44.147 35.787 79.936 79.935 79.936z" fill="#f6f9f9"/><path d="m120.141 409.09c-27.535 0-49.936-22.401-49.936-49.935v-271.719c0-27.534 22.401-49.936 49.936-49.936h271.719c27.534 0 49.936 22.401 49.936 49.936v271.719c0 27.534-22.401 49.935-49.936 49.935z" fill="#6bbef6"/><g><path d="m272.969 75.338h-72.311c-5.291 0-10.57 1.035-15.333 3.34-12.336 5.97-19.622 18.208-19.58 31.18v236.11c0 13.964 11.32 25.283 25.283 25.283h18.255c13.963 0 25.283-11.32 25.283-25.283v-54.08c14.214-.072 29.5-.136 38.404-.136 60.462 0 109.652-48.541 109.652-108.207s-49.191-108.207-109.653-108.207zm0 147.593c-8.876 0-23.962.063-38.084.134-.073-14.649-.138-30.424-.138-39.52 0-7.783-.038-24.075-.08-39.386h38.302c22.133 0 40.831 18.036 40.831 39.386s-18.699 39.386-40.831 39.386z" fill="#f6f9f9"/></g></g><g><path d="m471.79 108.43c4.142 0 7.5-3.358 7.5-7.5v-13.49c0-48.215-39.221-87.44-87.43-87.44h-271.72c-48.209 0-87.43 39.225-87.43 87.44v271.71c0 48.215 39.221 87.44 87.43 87.44h95.655v57.91c0 4.142 3.358 7.5 7.5 7.5h65.41c4.142 0 7.5-3.358 7.5-7.5v-57.91h95.655c48.209 0 87.43-39.226 87.43-87.44v-228.22c0-4.142-3.358-7.5-7.5-7.5s-7.5 3.358-7.5 7.5v228.22c0 39.944-32.492 72.44-72.43 72.44h-271.72c-39.938 0-72.43-32.497-72.43-72.44v-271.71c0-39.944 32.492-72.44 72.43-72.44h271.72c39.938 0 72.43 32.496 72.43 72.44v13.49c0 4.142 3.358 7.5 7.5 7.5zm-190.585 388.57h-50.41v-50.41h50.41z"/><path d="m391.859 30h-271.718c-31.67 0-57.436 25.765-57.436 57.436v271.719c0 31.67 25.766 57.435 57.436 57.435h271.719c31.67 0 57.436-25.765 57.436-57.435v-271.719c-.001-31.671-25.767-57.436-57.437-57.436zm42.436 329.154c0 23.399-19.037 42.435-42.436 42.435h-271.718c-23.399 0-42.436-19.036-42.436-42.435v-271.718c0-23.399 19.037-42.436 42.436-42.436h271.719c23.399 0 42.436 19.037 42.436 42.436v271.718z"/><path d="m234.884 230.565h.038c17.757-.089 30.558-.134 38.047-.134 26.198 0 48.331-21.471 48.331-46.886s-22.133-46.886-48.331-46.886h-38.302c-1.993 0-3.903.793-5.311 2.204s-2.195 3.324-2.189 5.316c.042 15.303.154 66.266.217 78.923.01 1.989.81 3.893 2.223 5.292 1.405 1.391 3.302 2.171 5.277 2.171zm38.085-78.906c18.067 0 33.331 14.602 33.331 31.886s-15.264 31.886-33.331 31.886c-6.413 0-16.692.033-30.621.098-.052-11.295-.128-50.988-.161-63.87z"/><path d="m272.97 67.84h-72.31c-6.744 0-13.005 1.376-18.609 4.09-14.737 7.136-23.861 21.679-23.811 37.93v189.26c0 4.142 3.358 7.5 7.5 7.5s7.5-3.358 7.5-7.5v-189.283c-.032-10.455 5.849-19.807 15.348-24.407 3.549-1.719 7.611-2.59 12.072-2.59h72.31c56.326 0 102.15 45.178 102.15 100.71 0 55.526-45.824 100.7-102.15 100.7-8.735 0-23.641.067-38.447.14-4.128.02-7.463 3.372-7.463 7.5v54.08c0 9.804-7.976 17.78-17.78 17.78h-18.25c-9.809 0-17.79-7.976-17.79-17.78v-16.85c0-4.142-3.358-7.5-7.5-7.5s-7.5 3.358-7.5 7.5v16.85c0 18.075 14.709 32.78 32.79 32.78h18.25c18.075 0 32.78-14.705 32.78-32.78v-46.616c12.171-.057 23.675-.104 30.91-.104 64.597 0 117.15-51.903 117.15-115.7 0-63.803-52.553-115.71-117.15-115.71z"/></g></g></svg>