<?xml version="1.0" encoding="iso-8859-1"?>
<!-- Generator: Adobe Illustrator 19.0.0, SVG Export Plug-In . SVG Version: 6.00 Build 0)  -->
<svg version="1.1" id="Capa_1" xmlns="http://www.w3.org/2000/svg" xmlns:xlink="http://www.w3.org/1999/xlink" x="0px" y="0px"
	 viewBox="0 0 512.533 512.533" style="enable-background:new 0 0 512.533 512.533;" xml:space="preserve">
<path style="fill:#F3705B;" d="M406.6,62.4c-83.2-83.2-217.6-83.2-299.733,0c-83.2,83.2-83.2,216.533,0,299.733l149.333,150.4
	L405.533,363.2C488.733,280,488.733,145.6,406.6,62.4z"/>
<path style="fill:#FFFFFF;" d="M256.2,360C175.133,360,109,293.867,109,212.8S175.133,65.6,256.2,65.6s147.2,66.133,147.2,147.2
	S337.266,360,256.2,360z"/>
<path style="fill:#435B6C;" d="M325.533,140.267c-12.8-10.667-32-16-59.733-16h-62.933v177.067h39.467v-49.067h24.533
	c26.667,0,45.867-5.333,58.667-14.933c12.8-10.667,19.2-26.667,19.2-48C344.733,166.933,338.333,150.933,325.533,140.267z
	 M296.733,209.6c-4.267,5.333-13.867,7.467-26.667,7.467H243.4v-59.733h22.4c12.8,0,22.4,2.133,28.8,6.4
	c6.4,4.267,9.6,11.733,9.6,21.333C304.2,196.8,301,204.267,296.733,209.6z"/>
<g>
</g>
<g>
</g>
<g>
</g>
<g>
</g>
<g>
</g>
<g>
</g>
<g>
</g>
<g>
</g>
<g>
</g>
<g>
</g>
<g>
</g>
<g>
</g>
<g>
</g>
<g>
</g>
<g>
</g>
</svg>
