<?xml version="1.0" encoding="utf-8"?>
<!-- Generator: Adobe Illustrator 24.0.0, SVG Export Plug-In . SVG Version: 6.00 Build 0)  -->
<svg version="1.1" id="Layer_1" xmlns="http://www.w3.org/2000/svg" xmlns:xlink="http://www.w3.org/1999/xlink" x="0px" y="0px"
	 viewBox="0 0 512 512" style="enable-background:new 0 0 512 512;" xml:space="preserve">
<style type="text/css">
	.st0{fill:#FF0000;}
	.st1{fill:#B70606;}
	.st2{fill:#FFDE33;}
	.st3{fill:#FFBC33;}
</style>
<path class="st0" d="M501.5,383.8l-181-332.4c-13.8-22.8-37.8-36.6-64.5-36.6s-50.7,13.8-64.5,36.6l-181,332.4
	c-13.8,23.7-14.1,51.9-0.6,75.6c13.5,23.7,37.8,37.8,65.1,37.8H437c27.3,0,51.6-14.1,65.1-37.8C515.6,435.7,515.3,407.5,501.5,383.8
	z"/>
<path class="st1" d="M502.1,459.4c-13.5,23.7-37.8,37.8-65.1,37.8H256V14.8c26.7,0,50.7,13.8,64.5,36.6l181,332.4
	C515.3,407.5,515.6,435.7,502.1,459.4z"/>
<path class="st2" d="M475.7,399.1l-181-332.4c-8.1-13.8-22.8-21.9-38.7-21.9s-30.6,8.1-38.7,21.9l-181,332.4
	c-8.4,14.1-8.4,31.2-0.3,45.3c8.1,14.4,22.8,22.8,39,22.8H437c16.2,0,30.9-8.4,39-22.8C484.1,430.3,484.1,413.2,475.7,399.1z"/>
<path class="st3" d="M476,444.4c-8.1,14.4-22.8,22.8-39,22.8H256V44.8c15.9,0,30.6,8.1,38.7,21.9l181,332.4
	C484.1,413.2,484.1,430.3,476,444.4z"/>
<g>
	<path class="st0" d="M256,437.2c-16.5,0-30-13.5-30-30s13.5-30,30-30s30,13.5,30,30S272.5,437.2,256,437.2z"/>
	<path class="st0" d="M286,317.2c0,16.5-13.5,30-30,30s-30-13.5-30-30v-150c0-16.5,13.5-30,30-30s30,13.5,30,30V317.2z"/>
</g>
<g>
	<path class="st1" d="M286,407.2c0-16.5-13.5-30-30-30v60C272.5,437.2,286,423.7,286,407.2z"/>
	<path class="st1" d="M286,317.2v-150c0-16.5-13.5-30-30-30v210C272.5,347.2,286,333.7,286,317.2z"/>
</g>
</svg>
