<?xml version="1.0" encoding="utf-8"?>
<!-- Generator: Adobe Illustrator 24.2.0, SVG Export Plug-In . SVG Version: 6.00 Build 0)  -->
<svg version="1.1" xmlns="http://www.w3.org/2000/svg" xmlns:xlink="http://www.w3.org/1999/xlink" x="0px" y="0px"
	 viewBox="0 0 500 500" style="enable-background:new 0 0 500 500;" xml:space="preserve">
<style type="text/css">
	.st0{display:none;}
	.st1{display:inline;fill:url(#SVGID_1_);}
	.st2{opacity:0.23;fill:#D6FFFF;}
	.st3{opacity:0.46;fill:#419CE8;}
	.st4{fill:#D6FFFF;}
	.st5{fill:#B0F0FF;}
	.st6{fill:#FFCB00;}
	.st7{fill:#FFBA00;}
	.st8{fill:#E79A15;}
	.st9{fill:#EFEEEE;}
	.st10{opacity:0.42;fill:#D3E2EC;}
	.st11{fill:#D1D2D3;}
	.st12{fill:#FFFF5F;}
	.st13{fill:#FFD600;}
	.st14{opacity:0.34;fill:#FFFAD2;}
	.st15{fill:#00628D;}
	.st16{fill:#2190C7;}
	.st17{fill:#5EC4E8;}
	.st18{fill:none;stroke:#C4FFFF;stroke-width:12.352;stroke-linecap:round;stroke-miterlimit:10;}
	.st19{opacity:0.12;fill:#00A3FF;}
	.st20{fill:none;stroke:#FFFFFF;stroke-width:1.6996;stroke-miterlimit:10;}
	.st21{fill:none;stroke:#FFFFFF;stroke-width:1.8565;stroke-miterlimit:10;}
	.st22{fill:none;stroke:#FFFFFF;stroke-width:1.1681;stroke-linecap:round;stroke-miterlimit:10;}
	.st23{fill:none;stroke:#FFFFFF;stroke-width:1.2759;stroke-linecap:round;stroke-miterlimit:10;}
	.st24{fill:#FFFFFF;}
</style>
<g id="BACKGROUND" class="st0">
	<linearGradient id="SVGID_1_" gradientUnits="userSpaceOnUse" x1="-13.5297" y1="481.6868" x2="493.8698" y2="35.5975">
		<stop  offset="0" style="stop-color:#5EC4E8"/>
		<stop  offset="1" style="stop-color:#5EDDE8"/>
	</linearGradient>
	<rect class="st1" width="500" height="500"/>
</g>
<g id="OBJECTS">
	<g>
		<circle class="st2" cx="247.18" cy="242.34" r="167.05"/>
		<ellipse class="st3" cx="245.58" cy="414.54" rx="157.61" ry="9.46"/>
		<g>
			<path class="st4" d="M58.24,276.11c-9.09,0.3-7.9-9.47-0.36-10.62c6.59-1.01,14.45,2.6,16.32,3.52
				c-3.03-4.05-5.38-7.69-6.92-10.52c-1.95-1.49-7.91-6.53-9.93-13.82c-2.43-8.77,7.34-9.91,10.24-2.86
				c2.28,5.55,1.17,12.96,0.59,15.87c1.19,2.16,2.93,4.94,5.18,8.11c-0.48-3.49-0.91-9.71,1.18-14.46
				c3.06-6.98,12.8-5.61,10.17,3.09c-2.08,6.88-7.66,11.64-9.92,13.34c2.54,3.43,5.61,7.22,9.15,11.11
				c-0.49-3.45-0.97-9.8,1.16-14.64c3.06-6.98,12.8-5.61,10.17,3.09c-2.03,6.73-7.42,11.43-9.77,13.23
				c3.33,3.55,7.05,7.14,11.1,10.58c-0.51-2.98-1.42-10.35,0.97-15.8c3.06-6.98,12.8-5.61,10.17,3.09
				c-2.16,7.15-8.11,12.02-10.17,13.53c4.45,3.71,9.3,7.22,14.47,10.28c-0.42-2.1-1.84-10.57,0.82-16.64
				c3.06-6.98,12.8-5.61,10.17,3.09c-2.32,7.66-8.98,12.71-10.55,13.81c5.26,3.08,10.87,5.68,16.76,7.57
				c-0.31-1.49-2.04-10.52,0.76-16.91c3.06-6.98,12.8-5.61,10.17,3.09c-2.39,7.9-9.41,13.02-10.69,13.9
				c3.68,1.16,7.47,2.04,11.36,2.57c0.31,0.04,0.54,0.33,0.49,0.65c-0.03,0.26-0.23,0.45-0.47,0.49c-0.06,0.01-0.11,0.01-0.17,0
				c-3.9-0.53-7.68-1.41-11.32-2.54c-1.06,2.19-4.81,9.05-11.57,12.49c-8.1,4.13-11.17-5.22-4.84-9.46
				c4.42-2.96,10.81-3.61,14.28-3.72c-5.16-1.78-10.04-4.08-14.58-6.67c-1.56,1.99-6.63,7.81-13.87,9.74
				c-8.79,2.35-9.83-7.44-2.76-10.27c4.85-1.94,11.11-1.29,14.56-0.69c-5.18-3.13-9.89-6.6-14.05-10.07
				c-1.04,1.39-6.34,8.06-14.19,10.16c-8.79,2.35-9.84-7.44-2.76-10.27c5.98-2.39,14.07-0.86,16.44-0.32
				c-2.49-2.1-4.79-4.2-6.85-6.2c-1.5-1.45-2.94-2.92-4.32-4.37c-1.13,1.5-6.39,8.04-14.15,10.11c-8.79,2.35-9.84-7.44-2.76-10.27
				c5.93-2.37,13.93-0.88,16.38-0.34c-0.01-0.03-0.01-0.06-0.02-0.09c-3.79-4.05-7.1-8.05-9.86-11.72
				C73.37,270.28,66.57,275.84,58.24,276.11z"/>
		</g>
		<g>
			<path class="st4" d="M79.2,378.68c-7,1.17-4.58,8.46,1.36,8.19c5.2-0.24,10.66-4.21,11.95-5.21c-1.69,3.57-2.93,6.72-3.68,9.12
				c-1.26,1.44-5.04,6.22-5.47,12.11c-0.51,7.08,7.15,6.45,8.28,0.61c0.89-4.6-1.1-10.1-1.99-12.24c0.58-1.84,1.48-4.23,2.72-7
				c0.17,2.74,0.8,7.57,3.13,10.89c3.42,4.87,10.66,2.32,7.31-3.93c-2.65-4.94-7.66-7.73-9.65-8.68c1.41-3.02,3.18-6.39,5.29-9.91
				c0.16,2.71,0.77,7.65,3.14,11.02c3.42,4.87,10.66,2.32,7.31-3.93c-2.59-4.83-7.44-7.61-9.51-8.62c2-3.23,4.29-6.55,6.86-9.81
				c0.07,2.36,0.51,8.14,3.18,11.94c3.42,4.87,10.66,2.32,7.31-3.93c-2.76-5.14-8.06-7.95-9.87-8.79c2.83-3.52,6-6.96,9.49-10.1
				c0.01,1.67,0.22,8.37,3.19,12.61c3.42,4.87,10.66,2.32,7.31-3.93c-2.95-5.51-8.83-8.34-10.2-8.94c3.55-3.17,7.44-6.03,11.66-8.37
				c-0.01,1.18,0.06,8.37,3.19,12.82c3.42,4.87,10.66,2.32,7.31-3.93c-3.05-5.68-9.21-8.52-10.32-8.99c2.64-1.46,5.41-2.71,8.3-3.72
				c0.23-0.08,0.36-0.34,0.28-0.57c-0.07-0.19-0.25-0.31-0.44-0.3c-0.04,0-0.09,0.01-0.13,0.02c-2.9,1.01-5.66,2.26-8.27,3.69
				c-1.15-1.51-5.07-6.18-10.78-7.78c-6.84-1.91-7.74,5.72-2.25,7.99c3.84,1.59,8.83,1.09,11.5,0.65
				c-3.68,2.16-7.06,4.67-10.13,7.35c-1.5-1.28-6.28-4.95-12.12-5.32c-7.09-0.44-6.38,7.21-0.53,8.28c4.01,0.74,8.7-0.72,11.25-1.71
				c-3.48,3.19-6.55,6.58-9.2,9.87c-1.01-0.91-6.09-5.19-12.43-5.59c-7.09-0.44-6.38,7.21-0.53,8.28c4.94,0.91,10.9-1.51,12.63-2.29
				c-1.58,1.99-3.02,3.95-4.29,5.8c-0.92,1.34-1.8,2.68-2.63,4.01c-1.09-0.98-6.13-5.16-12.39-5.55c-7.09-0.44-6.38,7.21-0.53,8.28
				c4.9,0.9,10.8-1.47,12.59-2.27c0,0.02,0,0.04,0,0.07c-2.28,3.68-4.19,7.25-5.74,10.49C91.68,380.81,85.62,377.61,79.2,378.68z"/>
		</g>
		<g>
			<path class="st4" d="M141.27,373.5c3.75-0.09,10.18,5.1,9,13.99c-2.77-4.9-6.13-7.17-7.73-5.08c-1.6,2.09,1.84,2.91,3.84,5.24
				c2,2.33,2.46,4.6,2.17,5.97c-0.29,1.37-3.65,6.13-6.74,8.81c1.26-4.88-0.57-12.53-3.49-11.05c-2.92,1.48,3.79,5.91-1.72,14.73
				c-2.12,1.71-7.03,3.16-7.03,3.16s1.86-10.07-1.69-9.3c-3.54,0.77,0.41,6.09-2.31,10.09c-3.04,0.08-11.67,1.2-11.67,1.2
				l-2.47-11.37c0,0,3.28-3.07,6.63-3.45c3.35-0.38,2.87-2.75,0.93-3.1c-1.94-0.35-5.41,0.56-7.87,2.99
				c-0.38-2.99,0.27-7.88,1.06-8.98c0.79-1.09,5.61-5.07,10.3-4.39c1.82,0.27,2.5-0.3,2.65-1.24c0.16-0.94-0.98-1.68-2.76-2
				c-1.78-0.33-5.66,0.29-8.54,2.33c1.25-3.66,4.88-8.31,6.08-9.12s4.96-0.79,8.19,0.93c1.31,0.86,3.14,2.45,4.22,1.21
				c1.07-1.24,0.16-2.1-2.12-3.75c-2.27-1.65-4.41-1.86-5.35-1.85c1.59-1.17,5.86-2.2,9.22-1.44
				C137.43,368.8,140.04,370.77,141.27,373.5z"/>
			<path class="st5" d="M145.9,368.02c-0.19-0.14-0.73-0.52-0.97-0.7l-6.52,8.99l-23.65,3.56c-0.22,0.44-0.43,0.87-0.61,1.3
				l1.63-0.25c2.49-1.14,5.18-1.47,6.58-1.21c0.21,0.04,0.41,0.08,0.6,0.13l14.47-2.18l-3.8,5.24l-19.93,3
				c-0.76,0.59-1.3,1.13-1.53,1.43c0,0,0,0,0,0l20.47-3.09l-3.93,5.42l-17.64,2.66c-0.03,0.4-0.05,0.81-0.07,1.22l16.72-2.52
				l-3.93,5.42l-9.7,1.46c-0.94,0.56-1.7,1.15-2.18,1.53l10.89-1.64l-3.05,4.2l-7.64,1.15l0.25,1.17l6.41-0.97l-5.09,7.02l0.19,0.87
				c0,0,0.27-0.04,0.72-0.09l5.22-7.2l1.5,6.43c0.41-0.04,0.81-0.08,1.2-0.12l-1.77-7.59l2.91-4.02l2.42,10.4
				c0.43-1.03,0.52-2.11,0.49-3.16l-1.98-8.52l3.98-5.49l3.82,16.39c0.36-0.14,0.74-0.3,1.12-0.46l-4.01-17.21l3.98-5.49l4.34,18.63
				c0.33-0.76,0.56-1.48,0.72-2.17l-4.13-17.75l3.84-5.29l5.19,22.29c0.33-0.35,0.66-0.71,0.98-1.07l-5.24-22.5L145.9,368.02z"/>
		</g>
		<g>
			<path class="st4" d="M103,310.27c20.86-6.01,37.43,7.48,37.43,7.48s-6.86,20.24-27.71,26.25c-20.85,6.01-47.81-4.49-47.81-4.49
				S82.15,316.27,103,310.27z"/>
			<path class="st5" d="M122.76,316.66c-1.89-0.9-3.65-1.61-5.17-2.11c-1.51-0.5-2.77-0.8-3.66-0.93c-0.88-0.14-1.37-0.16-1.37-0.16
				s1.87,0.6,4.59,2.11c1.37,0.74,2.96,1.67,4.72,2.74c0.88,0.54,1.8,1.1,2.75,1.68c0.22,0.14,0.46,0.28,0.68,0.42
				c-4.48,1.33-8.78,2.64-12.83,3.91c-0.03-0.02-0.06-0.03-0.1-0.06c-4.49-2.87-9.09-4.61-12.51-5.35
				c-1.72-0.37-3.13-0.51-4.11-0.52c-0.98-0.01-1.51,0.04-1.51,0.04s0.52,0.11,1.46,0.3c0.93,0.22,2.25,0.62,3.83,1.24
				c2.79,1.1,6.35,2.9,10.15,5.23c-4.65,1.47-8.93,2.85-12.72,4.1l-0.21-0.13c-0.38-0.23-0.76-0.46-1.12-0.69
				c-0.75-0.44-1.48-0.85-2.19-1.21c-1.42-0.72-2.77-1.27-3.93-1.62c-1.16-0.36-2.13-0.52-2.8-0.58c-0.67-0.04-1.04-0.04-1.04-0.04
				s0.37,0.07,1.02,0.21c0.64,0.17,1.56,0.46,2.64,0.93c1.08,0.47,2.33,1.13,3.67,1.92c0.67,0.39,1.37,0.83,2.09,1.29
				c0.18,0.12,0.37,0.24,0.55,0.36c-10.36,3.43-16.79,5.76-16.79,5.76s6.68-1.45,17.28-4.06c-0.09,0.2-0.19,0.4-0.28,0.59
				c-0.36,0.77-0.72,1.51-1.08,2.2c-0.71,1.39-1.42,2.61-2.08,3.58c-0.66,0.98-1.28,1.71-1.74,2.19c-0.48,0.46-0.75,0.71-0.75,0.71
				s0.32-0.19,0.86-0.59c0.53-0.41,1.27-1.07,2.06-1.99c0.79-0.92,1.64-2.09,2.46-3.46c0.42-0.68,0.82-1.42,1.22-2.19
				c0.19-0.39,0.39-0.78,0.59-1.18l0.11-0.22c3.88-0.96,8.24-2.06,12.95-3.29c-1.98,3.98-4.04,7.41-5.81,9.82
				c-1.01,1.36-1.91,2.4-2.59,3.08c-0.69,0.66-1.08,1.03-1.08,1.03s0.48-0.24,1.3-0.77c0.82-0.53,1.95-1.4,3.2-2.63
				c2.5-2.45,5.47-6.37,7.75-11.19c0.03-0.05,0.04-0.07,0.06-0.1c4.1-1.09,8.44-2.26,12.94-3.52c-0.12,0.24-0.24,0.48-0.36,0.72
				c-0.5,1-0.98,1.97-1.44,2.89c-0.92,1.84-1.78,3.48-2.54,4.83c-1.5,2.72-2.77,4.22-2.77,4.22s0.41-0.27,1.08-0.86
				c0.68-0.58,1.59-1.5,2.6-2.73c1.02-1.23,2.13-2.76,3.25-4.54c0.56-0.88,1.12-1.83,1.69-2.82c0.45-0.82,0.91-1.66,1.38-2.52
				c1.26-0.36,2.52-0.72,3.8-1.08c2.71-0.78,4.98-1.52,6.84-2.19c0.46-1.06,0.69-1.71,0.69-1.71s-0.54-0.43-1.49-1.08
				c-1.92,0.42-4.23,1.01-6.95,1.79c-1.28,0.37-2.54,0.74-3.79,1.1c-0.85-0.48-1.7-0.95-2.51-1.4
				C124.68,317.61,123.7,317.11,122.76,316.66z"/>
		</g>
		<g>
			<path class="st4" d="M68.47,303.21c8.05,2.62,10.45,10.6,10.45,10.6s-6.64,5.04-14.69,2.42c-8.05-2.62-14.46-11.9-14.46-11.9
				S60.42,300.59,68.47,303.21z"/>
			<path class="st5" d="M73.45,309.6c-0.41-0.71-0.83-1.32-1.21-1.81c-0.38-0.49-0.72-0.86-0.98-1.1c-0.25-0.24-0.41-0.35-0.41-0.35
				s0.47,0.6,1.02,1.68c0.28,0.54,0.59,1.19,0.93,1.92c0.17,0.37,0.34,0.75,0.52,1.14c0.04,0.09,0.09,0.19,0.13,0.28
				c-1.74-0.55-3.41-1.07-5-1.54c-0.01-0.01-0.01-0.02-0.02-0.04c-0.82-1.91-1.93-3.47-2.87-4.46c-0.47-0.49-0.9-0.85-1.21-1.07
				c-0.31-0.22-0.5-0.32-0.5-0.32s0.15,0.15,0.41,0.42c0.25,0.27,0.59,0.69,0.97,1.24c0.66,0.96,1.42,2.33,2.13,3.9
				c-1.82-0.54-3.51-1.03-5-1.46l-0.04-0.09c-0.07-0.16-0.14-0.31-0.21-0.47c-0.15-0.31-0.29-0.6-0.45-0.87
				c-0.3-0.54-0.62-1.01-0.91-1.38c-0.3-0.37-0.58-0.63-0.78-0.8c-0.21-0.16-0.33-0.24-0.33-0.24s0.1,0.1,0.28,0.29
				c0.17,0.19,0.4,0.49,0.65,0.88c0.25,0.39,0.51,0.87,0.76,1.42c0.13,0.27,0.26,0.57,0.39,0.87c0.03,0.08,0.07,0.16,0.1,0.23
				c-4.1-1.15-6.68-1.81-6.68-1.81s2.48,0.99,6.47,2.47c-0.07,0.04-0.15,0.09-0.22,0.13c-0.29,0.17-0.56,0.33-0.83,0.47
				c-0.53,0.29-1.03,0.53-1.46,0.7c-0.43,0.17-0.79,0.27-1.04,0.33c-0.25,0.04-0.4,0.07-0.4,0.07s0.14,0.01,0.41,0
				c0.26-0.02,0.64-0.07,1.1-0.19c0.46-0.12,0.99-0.32,1.55-0.58c0.28-0.13,0.57-0.28,0.87-0.44c0.15-0.08,0.3-0.17,0.45-0.25
				l0.08-0.05c1.46,0.54,3.11,1.13,4.9,1.77c-1.51,0.85-2.92,1.51-4.02,1.9c-0.62,0.22-1.14,0.36-1.51,0.43
				c-0.37,0.06-0.57,0.1-0.57,0.1s0.21,0.03,0.59,0.04c0.38,0.01,0.93-0.03,1.61-0.15c1.34-0.24,3.16-0.86,4.95-1.92
				c0.02-0.01,0.03-0.01,0.04-0.02c1.56,0.55,3.22,1.11,4.95,1.69c-0.09,0.05-0.18,0.1-0.27,0.15c-0.38,0.21-0.75,0.42-1.1,0.62
				c-0.7,0.39-1.33,0.73-1.88,1c-1.08,0.55-1.82,0.76-1.82,0.76s0.19,0,0.54-0.04c0.35-0.04,0.84-0.14,1.44-0.31
				c0.6-0.17,1.29-0.43,2.04-0.75c0.38-0.16,0.76-0.34,1.16-0.54c0.32-0.17,0.66-0.34,1-0.51c0.48,0.16,0.97,0.32,1.46,0.48
				c1.05,0.34,1.94,0.6,2.69,0.79c0.38-0.24,0.59-0.4,0.59-0.4s-0.08-0.26-0.25-0.68c-0.71-0.28-1.59-0.6-2.64-0.94
				c-0.49-0.16-0.98-0.32-1.47-0.47c-0.17-0.34-0.34-0.68-0.5-1C73.87,310.32,73.66,309.95,73.45,309.6z"/>
		</g>
		<g>
			<path class="st4" d="M57.17,355.97c10.04-6.22,20.71-1.6,20.71-1.6s-0.61,11.61-10.64,17.84c-10.04,6.22-25.7,4.7-25.7,4.7
				S47.13,362.19,57.17,355.97z"/>
			<path class="st5" d="M68.46,356.41c-1.12-0.19-2.15-0.3-3.02-0.34c-0.87-0.04-1.57-0.01-2.05,0.05
				c-0.48,0.06-0.74,0.12-0.74,0.12s1.07,0.04,2.71,0.43c0.82,0.18,1.8,0.44,2.88,0.74c0.54,0.15,1.11,0.31,1.69,0.47
				c0.14,0.04,0.28,0.08,0.42,0.12c-2.15,1.36-4.21,2.68-6.14,3.94c-0.02,0-0.03-0.01-0.06-0.02c-2.77-0.84-5.44-1.07-7.34-0.96
				c-0.95,0.06-1.72,0.2-2.23,0.33c-0.51,0.14-0.78,0.24-0.78,0.24s0.29-0.02,0.81-0.06c0.52-0.02,1.27-0.01,2.19,0.08
				c1.62,0.16,3.75,0.58,6.08,1.24c-2.22,1.45-4.25,2.81-6.06,4.03l-0.13-0.04c-0.23-0.07-0.46-0.13-0.69-0.19
				c-0.46-0.12-0.9-0.23-1.33-0.31c-0.85-0.17-1.64-0.26-2.3-0.27c-0.66-0.02-1.19,0.04-1.55,0.11c-0.36,0.08-0.55,0.14-0.55,0.14
				s0.2-0.02,0.56-0.04c0.36-0.01,0.88,0.01,1.52,0.1c0.64,0.09,1.39,0.25,2.21,0.47c0.41,0.11,0.84,0.23,1.28,0.37
				c0.11,0.03,0.23,0.07,0.34,0.11c-4.92,3.33-7.94,5.49-7.94,5.49s3.29-1.75,8.45-4.67c-0.02,0.12-0.04,0.24-0.06,0.35
				c-0.08,0.46-0.15,0.9-0.24,1.31c-0.17,0.83-0.36,1.57-0.56,2.18c-0.2,0.61-0.42,1.08-0.59,1.4c-0.18,0.31-0.29,0.48-0.29,0.48
				s0.14-0.15,0.37-0.43c0.22-0.29,0.51-0.75,0.79-1.34c0.28-0.6,0.55-1.34,0.78-2.18c0.12-0.42,0.22-0.86,0.31-1.33
				c0.04-0.23,0.09-0.47,0.13-0.7l0.02-0.13c1.89-1.07,4.01-2.29,6.3-3.64c-0.45,2.38-1.02,4.48-1.59,6c-0.33,0.86-0.65,1.54-0.9,2
				c-0.27,0.45-0.41,0.7-0.41,0.7s0.21-0.2,0.57-0.59c0.35-0.4,0.81-1.02,1.29-1.85c0.95-1.65,1.92-4.14,2.41-7
				c0.01-0.03,0.01-0.04,0.01-0.06c1.99-1.17,4.09-2.43,6.26-3.75c-0.03,0.14-0.05,0.29-0.08,0.43c-0.11,0.6-0.22,1.17-0.33,1.72
				c-0.21,1.1-0.42,2.08-0.62,2.9c-0.38,1.65-0.83,2.62-0.83,2.62s0.17-0.2,0.44-0.61c0.27-0.4,0.61-1.02,0.96-1.82
				c0.35-0.79,0.71-1.76,1.03-2.86c0.17-0.55,0.32-1.12,0.47-1.72c0.11-0.49,0.23-1.01,0.35-1.52c0.61-0.37,1.22-0.75,1.83-1.13
				c1.3-0.81,2.39-1.53,3.26-2.15c0.08-0.62,0.11-0.99,0.11-0.99s-0.35-0.15-0.94-0.35c-0.94,0.5-2.07,1.15-3.38,1.96
				c-0.62,0.38-1.22,0.76-1.82,1.14c-0.52-0.12-1.03-0.25-1.52-0.36C69.61,356.62,69.02,356.5,68.46,356.41z"/>
		</g>
		<g>
			<path class="st4" d="M440.05,305.04c-14.34,3.42-25.16-6.25-25.16-6.25s5.29-13.52,19.63-16.94c14.34-3.42,32.3,4.55,32.3,4.55
				S454.39,301.61,440.05,305.04z"/>
			<path class="st5" d="M426.85,300.07c1.25,0.67,2.43,1.21,3.44,1.59c1.01,0.39,1.86,0.63,2.45,0.75c0.59,0.12,0.92,0.15,0.92,0.15
				s-1.25-0.46-3.05-1.57c-0.9-0.54-1.96-1.23-3.12-2.01c-0.58-0.39-1.19-0.8-1.82-1.23c-0.15-0.1-0.3-0.2-0.45-0.3
				c3.08-0.76,6.04-1.52,8.83-2.25c0.02,0.01,0.04,0.02,0.07,0.04c2.96,2.09,6.02,3.41,8.32,4.02c1.15,0.31,2.11,0.44,2.77,0.48
				c0.66,0.04,1.02,0.02,1.02,0.02s-0.35-0.09-0.98-0.25c-0.63-0.18-1.51-0.49-2.56-0.96c-1.86-0.83-4.22-2.17-6.72-3.86
				c3.2-0.85,6.15-1.65,8.76-2.38l0.14,0.09c0.25,0.17,0.5,0.34,0.74,0.5c0.49,0.32,0.98,0.62,1.45,0.89
				c0.94,0.54,1.84,0.95,2.61,1.23c0.78,0.28,1.43,0.42,1.88,0.48c0.46,0.05,0.71,0.06,0.71,0.06s-0.25-0.06-0.68-0.17
				c-0.43-0.13-1.04-0.36-1.76-0.71c-0.72-0.36-1.54-0.84-2.43-1.42c-0.44-0.29-0.9-0.61-1.38-0.94c-0.12-0.08-0.24-0.17-0.36-0.26
				c7.14-2,11.57-3.38,11.57-3.38s-4.58,0.78-11.85,2.21c0.07-0.13,0.14-0.26,0.21-0.39c0.27-0.51,0.54-1,0.8-1.46
				c0.53-0.92,1.05-1.72,1.53-2.37c0.48-0.64,0.92-1.12,1.25-1.43c0.34-0.3,0.53-0.46,0.53-0.46s-0.22,0.12-0.61,0.37
				c-0.38,0.26-0.9,0.68-1.46,1.28c-0.57,0.6-1.18,1.37-1.78,2.27c-0.3,0.45-0.6,0.94-0.89,1.45c-0.14,0.26-0.29,0.52-0.44,0.78
				l-0.08,0.15c-2.66,0.53-5.65,1.14-8.89,1.83c1.47-2.64,2.97-4.9,4.25-6.48c0.72-0.89,1.37-1.57,1.85-2.01
				c0.49-0.43,0.77-0.67,0.77-0.67s-0.33,0.15-0.91,0.48c-0.57,0.33-1.36,0.89-2.25,1.68c-1.78,1.58-3.91,4.15-5.61,7.35
				c-0.02,0.03-0.03,0.05-0.04,0.07c-2.82,0.61-5.8,1.27-8.89,1.98c0.09-0.16,0.18-0.32,0.26-0.47c0.37-0.66,0.73-1.3,1.07-1.91
				c0.68-1.22,1.31-2.3,1.88-3.2c1.1-1.8,2.01-2.78,2.01-2.78s-0.28,0.17-0.76,0.55c-0.48,0.37-1.12,0.97-1.85,1.77
				c-0.73,0.8-1.53,1.81-2.35,2.97c-0.41,0.58-0.82,1.21-1.23,1.86c-0.33,0.54-0.67,1.1-1.02,1.67c-0.86,0.2-1.73,0.41-2.61,0.62
				c-1.86,0.44-3.43,0.87-4.71,1.27c-0.35,0.7-0.52,1.14-0.52,1.14s0.35,0.31,0.98,0.78c1.32-0.22,2.9-0.55,4.77-1
				c0.88-0.21,1.75-0.42,2.61-0.63c0.56,0.35,1.12,0.7,1.66,1.03C425.57,299.37,426.22,299.74,426.85,300.07z"/>
		</g>
		<g>
			<path class="st4" d="M425.26,357.13c-8.52-2.16-11.56-10.27-11.56-10.27s6.54-5.68,15.06-3.51c8.52,2.16,15.8,11.35,15.8,11.35
				S433.79,359.29,425.26,357.13z"/>
			<path class="st5" d="M419.66,350.85c0.48,0.7,0.95,1.31,1.38,1.79c0.43,0.48,0.81,0.85,1.09,1.07c0.28,0.23,0.45,0.34,0.45,0.34
				s-0.53-0.59-1.17-1.67c-0.33-0.54-0.7-1.19-1.09-1.92c-0.2-0.37-0.4-0.75-0.62-1.15c-0.05-0.09-0.1-0.19-0.15-0.29
				c1.84,0.45,3.61,0.87,5.29,1.26c0.01,0.01,0.01,0.02,0.02,0.04c0.98,1.92,2.24,3.47,3.28,4.43c0.52,0.48,0.99,0.82,1.33,1.02
				c0.34,0.2,0.54,0.29,0.54,0.29s-0.16-0.14-0.45-0.4c-0.28-0.27-0.66-0.68-1.09-1.22c-0.75-0.95-1.63-2.31-2.48-3.9
				c1.93,0.44,3.7,0.83,5.29,1.17l0.05,0.09c0.09,0.16,0.17,0.32,0.25,0.47c0.17,0.31,0.34,0.6,0.52,0.87
				c0.35,0.54,0.71,1.01,1.04,1.37c0.33,0.36,0.64,0.62,0.86,0.78c0.23,0.15,0.36,0.23,0.36,0.23s-0.11-0.1-0.31-0.28
				c-0.19-0.19-0.45-0.48-0.73-0.87c-0.28-0.39-0.58-0.87-0.89-1.42c-0.16-0.28-0.31-0.57-0.47-0.88c-0.04-0.08-0.08-0.16-0.12-0.24
				c4.32,0.92,7.05,1.42,7.05,1.42s-2.64-0.86-6.87-2.12c0.07-0.05,0.15-0.1,0.22-0.15c0.28-0.19,0.56-0.38,0.83-0.55
				c0.53-0.34,1.03-0.62,1.46-0.83c0.43-0.21,0.8-0.34,1.06-0.41c0.26-0.06,0.41-0.1,0.41-0.1s-0.15,0-0.42,0.03
				c-0.27,0.03-0.66,0.11-1.13,0.27c-0.46,0.16-1,0.4-1.57,0.71c-0.29,0.15-0.58,0.33-0.87,0.52c-0.15,0.1-0.3,0.19-0.45,0.29
				l-0.08,0.05c-1.55-0.46-3.3-0.96-5.2-1.5c1.51-0.99,2.93-1.77,4.04-2.25c0.63-0.27,1.16-0.45,1.53-0.55
				c0.38-0.09,0.59-0.14,0.59-0.14s-0.22-0.01-0.61,0c-0.39,0.02-0.97,0.09-1.66,0.26c-1.38,0.34-3.21,1.11-5,2.33
				c-0.02,0.01-0.03,0.02-0.04,0.03c-1.66-0.46-3.41-0.94-5.25-1.42c0.09-0.06,0.18-0.12,0.27-0.18c0.38-0.25,0.74-0.49,1.09-0.72
				c0.7-0.45,1.33-0.85,1.88-1.17c1.08-0.65,1.83-0.91,1.83-0.91s-0.2,0.01-0.55,0.08c-0.36,0.06-0.86,0.2-1.47,0.42
				c-0.61,0.22-1.31,0.53-2.07,0.92c-0.38,0.19-0.77,0.41-1.17,0.64c-0.32,0.19-0.66,0.4-1,0.6c-0.51-0.13-1.03-0.27-1.55-0.4
				c-1.11-0.28-2.05-0.49-2.84-0.63c-0.38,0.28-0.59,0.46-0.59,0.46s0.1,0.26,0.3,0.68c0.76,0.25,1.69,0.51,2.8,0.8
				c0.52,0.13,1.04,0.26,1.55,0.39c0.2,0.34,0.4,0.68,0.59,1C419.18,350.12,419.42,350.5,419.66,350.85z"/>
		</g>
		<g>
			<path class="st4" d="M374.38,322.21c-2.8-3.5-2.52-13.37,6.79-18.68c-2.66,6.18-2.38,11.02,0.77,11.03
				c3.14,0.01,1.44-3.86,2.21-7.44c0.77-3.59,2.59-5.67,4.1-6.38c1.51-0.72,8.47-0.96,13.26,0.03c-5.55,2.34-11.5,9.61-7.98,11.32
				s2.88-7.88,15.25-9.02c3.16,0.78,8.09,4.4,8.09,4.4s-10.92,5.52-7.62,8.33c3.29,2.81,5.5-4.8,11.27-5.11
				c2.28,2.84,9.58,10.23,9.58,10.23l-9.02,10.58c0,0-5.29-0.9-8.08-3.81c-2.79-2.91-4.69-0.74-3.62,1.36
				c1.07,2.1,4.44,4.74,8.54,5.32c-2.58,2.52-7.69,5.45-9.3,5.48c-1.61,0.04-8.88-1.66-11.62-6.61c-1.06-1.93-2.09-2.16-3.1-1.63
				c-1.01,0.53-0.88,2.14,0.1,4.08c0.98,1.93,4.37,5.17,8.39,6.43c-4.38,1.46-11.44,1.37-13.07,0.81c-1.63-0.56-4.35-4.15-5.04-8.46
				c-0.13-1.87,0.06-4.76-1.9-4.88c-1.96-0.12-2.12,1.37-2.04,4.73c0.08,3.36,1.42,5.53,2.12,6.43c-2.27-0.67-6.33-3.98-8.05-7.73
				C372.69,329.26,372.67,325.35,374.38,322.21z"/>
			<path class="st5" d="M365.83,321.77c0.01,0.29,0.03,1.07,0.04,1.43l13.27-0.31l20.5,19.9c0.58-0.1,1.14-0.22,1.67-0.36
				l-1.41-1.37c-2.88-1.54-5.14-3.86-5.91-5.37c-0.12-0.23-0.22-0.45-0.31-0.66l-12.54-12.18l7.73-0.18l17.27,16.77
				c1.12,0.3,2.02,0.42,2.47,0.41c0,0,0,0,0,0l-17.75-17.23l7.99-0.19l15.29,14.85c0.41-0.26,0.81-0.54,1.21-0.82l-14.5-14.08
				l7.99-0.19l8.41,8.16c1.21,0.49,2.32,0.79,3.03,0.96l-9.44-9.17l6.2-0.14l6.63,6.44l0.93-1.09l-5.56-5.39l10.36-0.24l0.69-0.81
				c0,0-0.23-0.23-0.61-0.62l-10.63,0.25l5.03-6.07c-0.33-0.36-0.66-0.71-0.98-1.05l-5.94,7.17l-5.92,0.14l8.13-9.83
				c-1.29,0.34-2.39,1.03-3.36,1.82l-6.66,8.05l-8.1,0.19l12.82-15.49c-0.4-0.24-0.82-0.49-1.25-0.73l-13.46,16.26l-8.1,0.19
				l14.58-17.61c-0.96,0.24-1.82,0.54-2.58,0.88l-13.88,16.77l-7.81,0.18l17.44-21.06c-0.57-0.06-1.15-0.11-1.73-0.15l-17.6,21.26
				L365.83,321.77z"/>
		</g>
		<path class="st4" d="M394.22,304.02c0.04-0.08-5.34-6.82-14.75-8.24c-4.53-0.72-9.21-0.24-12.96,0.32
			c6.96-2.79,13.59-6.22,19.81-10.21c1.63,1.74,6.1,6.01,13.34,5.92c9.38-0.04,18.68-8.21,18.55-8.24
			c0.02-0.08-6.31-5.09-15.12-4.39c-4.13,0.3-8.12,1.67-11.3,2.96c5.6-4.06,10.83-8.61,15.62-13.58c1.78,1.17,6.22,3.64,11.97,2.31
			c7.65-1.71,13.84-9.9,13.75-9.91c0-0.06-6.1-3.2-13.27-1.1c-3.11,0.89-5.96,2.55-8.25,4.1c3.44-3.97,6.62-8.16,9.51-12.57
			c1.76,0.7,5.73,1.93,10.17,0.03c6.08-2.55,10.08-10.15,10.01-10.15c-0.01-0.04-5.54-1.87-11.23,0.91
			c-2.27,1.09-4.25,2.71-5.87,4.24c1.76-3,3.39-6.08,4.88-9.24c0.05-0.1,0.07-0.21,0.09-0.32c1.98-1.47,5.29-4.59,6.93-9.17
			c2.49-6.9-0.04-13.61-0.04-13.55c-0.02,0.05-5.07,4.62-7.34,10.9c-1.51,4.23-1.51,8.5-1.39,10.96c-0.06,0.09-0.13,0.17-0.18,0.27
			c-1.47,3.1-3.07,6.13-4.79,9.07c0.54-2.12,0.8-4.62,0.31-6.97c-1.29-5.95-6.61-8.64-6.58-8.66c0.02,0.05-2.45,6.04-1.49,11.79
			c0.74,4.28,3.36,7.4,4.74,8.72c-2.84,4.33-5.96,8.45-9.33,12.35c1.19-2.45,2.15-5.54,2.01-8.61c-0.38-7.11-6.12-11.22-6.06-11.24
			c0.01,0.06-3.84,6.34-3.86,13.11c0.01,5.21,2.52,9.5,3.8,11.24c-4.71,4.88-9.84,9.34-15.34,13.34c2.18-2.57,4.34-6.12,4.95-9.97
			c1.25-8.26-4.47-14.32-4.4-14.33c0,0.08-5.69,6.19-7.41,13.91c-1.32,6.1,0.51,11.85,1.48,14.07c-6.11,3.92-12.61,7.29-19.45,10.03
			c3.05-2.13,6.37-5.35,8.03-9.32c3.4-8.29-1.12-16-1.02-15.99c-0.02,0.09-7.37,5-11.19,12.58c-3,6.06-2.63,12.57-2.21,15.08
			c-2.72,0.91-5.48,1.72-8.28,2.42c-0.74,0.19-1.23,0.79-1.09,1.37c0.14,0.57,0.86,0.89,1.62,0.7c2.85-0.72,5.67-1.55,8.43-2.47
			c1.2,2.19,4.75,7.88,12.5,9.61C382.45,310.42,394.36,304.09,394.22,304.02z"/>
		<path class="st4" d="M394.24,342.47c0.04,0.08-5.09,7-14.45,8.76c-4.5,0.87-9.2,0.57-12.96,0.13c7.06,2.54,13.8,5.73,20.16,9.51
			c1.56-1.8,5.88-6.22,13.12-6.39c9.37-0.29,18.96,7.54,18.83,7.58c0.02,0.08-6.13,5.31-14.95,4.92c-4.13-0.15-8.17-1.38-11.4-2.56
			c5.74,3.86,11.13,8.22,16.09,13.02c1.74-1.23,6.08-3.86,11.88-2.73c7.7,1.44,14.18,9.41,14.09,9.42c0,0.06-5.99,3.41-13.22,1.56
			c-3.14-0.78-6.04-2.34-8.39-3.81c3.58,3.84,6.9,7.93,9.94,12.23c1.73-0.77,5.66-2.13,10.16-0.39c6.16,2.33,10.43,9.79,10.37,9.79
			c-0.01,0.04-5.47,2.07-11.26-0.52c-2.3-1.01-4.34-2.56-6.01-4.03c1.86,2.93,3.6,5.96,5.2,9.06c0.05,0.1,0.07,0.21,0.1,0.31
			c2.03,1.4,5.45,4.4,7.25,8.92c2.73,6.81,0.44,13.6,0.44,13.54c-0.02-0.05-5.23-4.44-7.72-10.63c-1.66-4.18-1.81-8.44-1.77-10.91
			c-0.07-0.08-0.14-0.16-0.19-0.26c-1.58-3.05-3.28-6.02-5.11-8.9c0.61,2.1,0.96,4.59,0.55,6.96c-1.08,5.99-6.3,8.87-6.27,8.89
			c0.02-0.05-2.66-5.95-1.91-11.73c0.58-4.3,3.1-7.51,4.43-8.88c-2.99-4.23-6.25-8.24-9.76-12.01c1.28,2.41,2.35,5.46,2.31,8.53
			c-0.13,7.12-5.72,11.43-5.66,11.45c0.01-0.06-4.06-6.2-4.32-12.97c-0.17-5.2,2.18-9.58,3.4-11.37
			c-4.87-4.71-10.16-8.99-15.8-12.79c2.27,2.5,4.55,5.96,5.3,9.79c1.54,8.21-3.97,14.47-3.89,14.48c-0.01-0.08-5.91-5.98-7.9-13.64
			c-1.53-6.05,0.09-11.86,0.99-14.11c-6.24-3.71-12.86-6.84-19.79-9.34c3.12,2.02,6.55,5.12,8.36,9.03
			c3.69,8.17-0.55,16.03-0.46,16.02c-0.03-0.09-7.54-4.74-11.62-12.18c-3.21-5.95-3.07-12.47-2.74-14.99
			c-2.75-0.81-5.53-1.52-8.36-2.13c-0.74-0.16-1.26-0.75-1.14-1.33c0.12-0.58,0.83-0.92,1.59-0.75c2.88,0.62,5.72,1.34,8.51,2.17
			c1.12-2.23,4.47-8.04,12.15-10.05C382.25,336.49,394.37,342.4,394.24,342.47z"/>
		<g>
			<g>
				<path class="st6" d="M201.06,205.12l-63.67,0.75c-5.7,0.07-10.05,5.12-9.27,10.76l17.34,125.55c0.65,4.73,4.72,8.23,9.49,8.17
					l196.39-2.3c4.77-0.06,8.75-3.65,9.29-8.39l12-108.54c0.43-3.78-2.55-7.08-6.35-7.04l-149.67,1.76l-5.38-14.85
					C209.17,207.32,205.27,205.07,201.06,205.12z"/>
				<path class="st7" d="M201.09,208.15l-63.67,0.75c-5.7,0.07-10.05,5.12-9.27,10.76l13.8,125.6l222.25-2.61l8.46-108.5
					c0.43-3.78-2.55-7.08-6.35-7.04l-149.67,1.76l-5.38-14.85C209.21,210.35,205.31,208.1,201.09,208.15z"/>
				<polygon class="st8" points="130.74,243.15 141.96,345.25 364.21,342.64 372.19,240.32 				"/>
			</g>
			<g>
				<g>
					
						<rect x="143.15" y="151.88" transform="matrix(0.9821 -0.1884 0.1884 0.9821 -38.6949 41.8958)" class="st9" width="115.83" height="145.28"/>
					<polygon class="st10" points="244.26,142.27 242.52,142.6 224.49,284.23 255.08,288.12 271.63,284.95 					"/>
					
						<rect x="153.02" y="163.72" transform="matrix(0.9821 -0.1884 0.1884 0.9821 -28.0383 38.782)" class="st11" width="73.99" height="6.36"/>
					
						<rect x="169.15" y="247.82" transform="matrix(0.9821 -0.1884 0.1884 0.9821 -43.5916 43.3264)" class="st11" width="73.99" height="6.36"/>
					
						<rect x="171.56" y="260.37" transform="matrix(0.9821 -0.1884 0.1884 0.9821 -45.9137 44.0049)" class="st11" width="73.99" height="6.36"/>
					
						<rect x="173.96" y="272.93" transform="matrix(0.9821 -0.1884 0.1884 0.9821 -48.236 44.6837)" class="st11" width="73.99" height="6.36"/>
					
						<rect x="173.02" y="173.16" transform="matrix(0.9821 -0.1884 0.1884 0.9821 -29.4895 39.2061)" class="st11" width="36.98" height="3.18"/>
					<g>
						
							<rect x="151.02" y="193.43" transform="matrix(0.9821 -0.1884 0.1884 0.9821 -33.668 35.796)" class="st11" width="40.93" height="3.18"/>
						
							<rect x="152.8" y="202.69" transform="matrix(0.9821 -0.1884 0.1884 0.9821 -35.3808 36.2968)" class="st11" width="40.93" height="3.18"/>
						
							<rect x="154.57" y="211.95" transform="matrix(0.9821 -0.1884 0.1884 0.9821 -37.0928 36.7966)" class="st11" width="40.93" height="3.18"/>
						
							<rect x="156.35" y="221.21" transform="matrix(0.9821 -0.1884 0.1884 0.9821 -38.8052 37.297)" class="st11" width="40.93" height="3.18"/>
						
							<rect x="158.12" y="230.47" transform="matrix(0.9821 -0.1884 0.1884 0.9821 -40.518 37.7978)" class="st11" width="40.93" height="3.18"/>
						
							<rect x="159.9" y="239.73" transform="matrix(0.9821 -0.1884 0.1884 0.9821 -42.23 38.2976)" class="st11" width="40.93" height="3.18"/>
					</g>
					<g>
						
							<rect x="199.53" y="184.13" transform="matrix(0.9821 -0.1884 0.1884 0.9821 -31.0467 44.7674)" class="st11" width="40.93" height="3.18"/>
						
							<rect x="201.31" y="193.39" transform="matrix(0.9821 -0.1884 0.1884 0.9821 -32.7594 45.2684)" class="st11" width="40.93" height="3.18"/>
						
							<rect x="203.08" y="202.65" transform="matrix(0.9821 -0.1884 0.1884 0.9821 -34.4715 45.7681)" class="st11" width="40.93" height="3.18"/>
						
							<rect x="204.86" y="211.91" transform="matrix(0.9821 -0.1884 0.1884 0.9821 -36.1839 46.2684)" class="st11" width="40.93" height="3.18"/>
						
							<rect x="206.63" y="221.16" transform="matrix(0.9821 -0.1884 0.1884 0.9821 -37.8967 46.7694)" class="st11" width="40.93" height="3.18"/>
						
							<rect x="208.41" y="230.42" transform="matrix(0.9821 -0.1884 0.1884 0.9821 -39.6087 47.2691)" class="st11" width="40.93" height="3.18"/>
					</g>
				</g>
				<g>
					
						<rect x="238.88" y="147.58" transform="matrix(0.992 0.1262 -0.1262 0.992 30.1725 -35.7029)" class="st9" width="115.83" height="145.28"/>
					
						<rect x="267.21" y="158.84" transform="matrix(0.992 0.1262 -0.1262 0.992 22.8851 -37.1033)" class="st11" width="73.99" height="6.36"/>
					
						<rect x="256.4" y="243.79" transform="matrix(0.992 0.1262 -0.1262 0.992 33.5212 -35.0594)" class="st11" width="73.99" height="6.36"/>
					
						<rect x="254.79" y="256.47" transform="matrix(0.992 0.1262 -0.1262 0.992 35.1091 -34.7543)" class="st11" width="73.99" height="6.36"/>
					
						<rect x="253.17" y="269.15" transform="matrix(0.992 0.1262 -0.1262 0.992 36.697 -34.4491)" class="st11" width="73.99" height="6.36"/>
					
						<rect x="284.71" y="168.36" transform="matrix(0.992 0.1262 -0.1262 0.992 23.8775 -36.9125)" class="st11" width="36.98" height="3.18"/>
					<g>
						
							<rect x="257.39" y="181.41" transform="matrix(0.992 0.1262 -0.1262 0.992 25.3223 -33.6101)" class="st11" width="40.93" height="3.18"/>
						
							<rect x="256.2" y="190.76" transform="matrix(0.992 0.1262 -0.1262 0.992 26.4933 -33.385)" class="st11" width="40.93" height="3.18"/>
						
							<rect x="255.01" y="200.11" transform="matrix(0.992 0.1262 -0.1262 0.992 27.6637 -33.1594)" class="st11" width="40.93" height="3.18"/>
						
							<rect x="253.82" y="209.46" transform="matrix(0.992 0.1262 -0.1262 0.992 28.8347 -32.9344)" class="st11" width="40.93" height="3.18"/>
						
							<rect x="252.63" y="218.82" transform="matrix(0.992 0.1262 -0.1262 0.992 30.0058 -32.7094)" class="st11" width="40.93" height="3.18"/>
						
							<rect x="251.44" y="228.17" transform="matrix(0.992 0.1262 -0.1262 0.992 31.1768 -32.4843)" class="st11" width="40.93" height="3.18"/>
					</g>
					<g>
						
							<rect x="306.39" y="187.64" transform="matrix(0.992 0.1262 -0.1262 0.992 26.5007 -39.7445)" class="st11" width="40.93" height="3.18"/>
						
							<rect x="305.2" y="196.99" transform="matrix(0.992 0.1262 -0.1262 0.992 27.6717 -39.5195)" class="st11" width="40.93" height="3.18"/>
						
							<rect x="304.01" y="206.35" transform="matrix(0.992 0.1262 -0.1262 0.992 28.8427 -39.2944)" class="st11" width="40.93" height="3.18"/>
						
							<rect x="302.82" y="215.7" transform="matrix(0.992 0.1262 -0.1262 0.992 30.0137 -39.0694)" class="st11" width="40.93" height="3.18"/>
						
							<rect x="301.63" y="225.05" transform="matrix(0.992 0.1262 -0.1262 0.992 31.1847 -38.8444)" class="st11" width="40.93" height="3.18"/>
						
							<rect x="300.44" y="234.4" transform="matrix(0.992 0.1262 -0.1262 0.992 32.3564 -38.6201)" class="st11" width="40.93" height="3.18"/>
					</g>
				</g>
			</g>
			<path class="st12" d="M360.81,405.63l-214.4,2.52c-5.21,0.06-9.65-3.76-10.36-8.92l-18.93-137.07
				c-0.85-6.16,3.9-11.67,10.12-11.75l249.04-2.92c6.22-0.07,11.09,5.33,10.39,11.51l-15.71,137.47
				C370.36,401.65,366.01,405.57,360.81,405.63z"/>
			<path class="st13" d="M360.84,408.67l-214.4,2.52c-5.21,0.06-9.65-3.76-10.36-8.92L117.16,265.2
				c-0.85-6.16,3.9-11.67,10.12-11.75l249.04-2.92c6.22-0.07,11.09,5.33,10.39,11.51l-15.71,137.47
				C370.4,404.68,366.05,408.61,360.84,408.67z"/>
		</g>
		<g>
			
				<ellipse transform="matrix(0.9517 -0.3069 0.3069 0.9517 -66.1721 88.3936)" class="st14" cx="247.98" cy="254.61" rx="63.5" ry="63.5"/>
			
				<rect x="299.29" y="307.78" transform="matrix(0.7425 0.6698 -0.6698 0.7425 292.9351 -131.2041)" class="st15" width="35.67" height="15.29"/>
			
				<rect x="309.59" y="307.78" transform="matrix(0.7425 0.6698 -0.6698 0.7425 292.9312 -131.2039)" class="st16" width="15.07" height="15.29"/>
			<g>
				<path class="st16" d="M319.78,344.98c-3.22-2.91-3.48-7.87-0.57-11.09l17.66-19.57c2.91-3.22,7.87-3.48,11.09-0.57l64.62,58.79
					l-28.59,30.86L319.78,344.98z"/>
				<path class="st15" d="M395.17,413.49l-11.19-10.09l28.59-30.86l10.77,9.72c3.22,2.91,3.48,7.87,0.57,11.09l-17.66,19.57
					C403.36,416.14,398.4,416.4,395.17,413.49z"/>
			</g>
			<g>
				<path class="st17" d="M336.86,314.32l-7.92,8.78l70.33,63.81l13.31-14.37l-64.62-58.79
					C344.73,310.84,339.77,311.09,336.86,314.32z"/>
				<path class="st16" d="M416.03,402.1l7.9-8.75c2.91-3.22,2.65-8.19-0.57-11.09l-10.77-9.72l-13.31,14.37L416.03,402.1z"/>
			</g>
			<g>
				<path class="st16" d="M168.9,258.68c2.25,43.67,39.47,77.26,83.15,75.01c43.67-2.25,77.26-39.47,75.01-83.15
					c-2.25-43.67-39.47-77.26-83.15-75.01C200.24,177.78,166.66,215,168.9,258.68z M311.4,251.35c1.8,35.02-25.13,64.87-60.15,66.68
					c-35.02,1.8-64.87-25.13-66.68-60.15c-1.8-35.02,25.13-64.87,60.15-66.68C279.74,189.39,309.59,216.32,311.4,251.35z"/>
			</g>
			<path class="st18" d="M198.54,251.22c-1.43-20.04,22.22-53.05,57.46-48.42"/>
			<g>
				<path class="st19" d="M282.3,201.2c15.82,47.73-10.46,93.55-50.05,114.94c6.05,1.55,12.44,2.22,19,1.88
					c30.53-1.57,54.91-24.47,59.46-53.52c0.67-4.27,0.92-8.67,0.69-13.16C310.3,230.12,298.9,211.88,282.3,201.2z"/>
				<path class="st15" d="M311.4,251.34c0.23,4.49-0.02,8.89-0.69,13.16c-4.55,29.05-28.93,51.95-59.46,53.52
					c-6.57,0.34-12.95-0.33-19-1.88c-6.66,3.6-13.7,6.51-20.98,8.62c12.15,6.37,26.1,9.69,40.79,8.93
					c43.67-2.25,77.26-39.47,75.01-83.15c-1.75-33.91-24.59-61.73-55.16-71.43c4.53,7.35,7.96,14.74,10.4,22.08
					C298.9,211.88,310.3,230.12,311.4,251.34z"/>
			</g>
			<path class="st17" d="M179.24,258.08c1.95,37.96,34.31,67.15,72.27,65.2c37.96-1.95,67.15-34.31,65.2-72.27
				c-1.95-37.96-34.31-67.15-72.27-65.2C206.48,187.76,177.29,220.12,179.24,258.08z M311.39,251.28
				c1.8,35.02-25.13,64.87-60.15,66.68c-35.02,1.8-64.87-25.13-66.68-60.15c-1.8-35.02,25.13-64.87,60.15-66.68
				C279.74,189.33,309.59,216.26,311.39,251.28z"/>
		</g>
		<g>
			
				<ellipse transform="matrix(0.8074 -0.59 0.59 0.8074 -39.2057 285.6708)" class="st20" cx="417.98" cy="202.89" rx="8.59" ry="8.59"/>
			<path class="st20" d="M466.78,237.05c0,1.76-1.42,3.18-3.18,3.18s-3.18-1.42-3.18-3.18c0-1.76,1.42-3.18,3.18-3.18
				S466.78,235.29,466.78,237.05z"/>
			<path class="st20" d="M395.21,223.2c0,2.63-2.14,4.77-4.77,4.77c-2.63,0-4.77-2.14-4.77-4.77c0-2.63,2.14-4.77,4.77-4.77
				C393.07,218.43,395.21,220.57,395.21,223.2z"/>
			<path class="st20" d="M416.96,161.99c0,1.24-1.01,2.25-2.25,2.25c-1.24,0-2.25-1.01-2.25-2.25c0-1.24,1.01-2.25,2.25-2.25
				C415.96,159.74,416.96,160.75,416.96,161.99z"/>
			<path class="st21" d="M79.42,223.86c0,2.71-2.2,4.91-4.91,4.91c-2.71,0-4.91-2.2-4.91-4.91c0-2.71,2.2-4.91,4.91-4.91
				C77.22,218.95,79.42,221.15,79.42,223.86z"/>
			<circle class="st21" cx="51.06" cy="254.01" r="3.69"/>
			<path class="st21" d="M52.86,179.71c0,2.26-1.83,4.1-4.1,4.1c-2.26,0-4.1-1.83-4.1-4.1c0-2.26,1.83-4.1,4.1-4.1
				C51.02,175.61,52.86,177.45,52.86,179.71z"/>
			<path class="st21" d="M46.11,219.2c0,0.9-0.73,1.64-1.64,1.64s-1.64-0.73-1.64-1.64s0.73-1.64,1.64-1.64
				S46.11,218.29,46.11,219.2z"/>
			<circle class="st21" cx="96.48" cy="160.22" r="2.46"/>
			<path class="st21" d="M56.65,333.8c0,1.36-1.1,2.46-2.46,2.46c-1.36,0-2.46-1.1-2.46-2.46s1.1-2.46,2.46-2.46
				C55.55,331.34,56.65,332.44,56.65,333.8z"/>
			<path class="st20" d="M458.37,212.85c0,0.62-0.5,1.12-1.12,1.12c-0.62,0-1.12-0.5-1.12-1.12s0.5-1.12,1.12-1.12
				C457.86,211.73,458.37,212.23,458.37,212.85z"/>
			<g>
				<g>
					<line class="st22" x1="444.55" y1="175.99" x2="444.55" y2="181.46"/>
					<line class="st22" x1="444.55" y1="186.76" x2="444.55" y2="192.23"/>
				</g>
				<g>
					<line class="st22" x1="452.67" y1="184.11" x2="447.2" y2="184.11"/>
					<line class="st22" x1="441.9" y1="184.11" x2="436.43" y2="184.11"/>
				</g>
			</g>
			<g>
				<g>
					<line class="st22" x1="284.36" y1="69.2" x2="284.36" y2="74.67"/>
					<line class="st22" x1="284.36" y1="79.97" x2="284.36" y2="85.44"/>
				</g>
				<g>
					<line class="st22" x1="292.48" y1="77.32" x2="287.01" y2="77.32"/>
					<line class="st22" x1="281.71" y1="77.32" x2="276.24" y2="77.32"/>
				</g>
			</g>
			<g>
				<g>
					<line class="st22" x1="459.55" y1="307.5" x2="459.55" y2="312.97"/>
					<line class="st22" x1="459.55" y1="318.28" x2="459.55" y2="323.75"/>
				</g>
				<g>
					<line class="st22" x1="467.68" y1="315.63" x2="462.21" y2="315.63"/>
					<line class="st22" x1="456.9" y1="315.63" x2="451.43" y2="315.63"/>
				</g>
			</g>
			<g>
				<g>
					<line class="st22" x1="449.54" y1="254.71" x2="449.54" y2="260.18"/>
					<line class="st22" x1="449.54" y1="265.48" x2="449.54" y2="270.95"/>
				</g>
				<g>
					<line class="st22" x1="457.66" y1="262.83" x2="452.19" y2="262.83"/>
					<line class="st22" x1="446.89" y1="262.83" x2="441.42" y2="262.83"/>
				</g>
			</g>
			<g>
				<g>
					<line class="st22" x1="47.43" y1="343.24" x2="47.43" y2="348.71"/>
					<line class="st22" x1="47.43" y1="354.02" x2="47.43" y2="359.49"/>
				</g>
				<g>
					<line class="st22" x1="55.55" y1="351.37" x2="50.08" y2="351.37"/>
					<line class="st22" x1="44.78" y1="351.37" x2="39.31" y2="351.37"/>
				</g>
			</g>
			<g>
				<g>
					<line class="st22" x1="389.02" y1="126" x2="389.02" y2="131.47"/>
					<line class="st22" x1="389.02" y1="136.78" x2="389.02" y2="142.25"/>
				</g>
				<g>
					<line class="st22" x1="397.14" y1="134.12" x2="391.67" y2="134.12"/>
					<line class="st22" x1="386.37" y1="134.12" x2="380.9" y2="134.12"/>
				</g>
			</g>
			<g>
				<g>
					<line class="st23" x1="127.9" y1="118.27" x2="127.9" y2="124.25"/>
					<line class="st23" x1="127.9" y1="130.04" x2="127.9" y2="136.01"/>
				</g>
				<g>
					<line class="st23" x1="136.77" y1="127.14" x2="130.79" y2="127.14"/>
					<line class="st23" x1="125" y1="127.14" x2="119.03" y2="127.14"/>
				</g>
			</g>
			<g>
				<g>
					<line class="st23" x1="82.49" y1="177.87" x2="82.49" y2="183.85"/>
					<line class="st23" x1="82.49" y1="189.64" x2="82.49" y2="195.62"/>
				</g>
				<g>
					<line class="st23" x1="91.36" y1="186.75" x2="85.38" y2="186.75"/>
					<line class="st23" x1="79.59" y1="186.75" x2="73.61" y2="186.75"/>
				</g>
			</g>
			<g>
				<g>
					<line class="st23" x1="102.65" y1="233.54" x2="102.65" y2="239.52"/>
					<line class="st23" x1="102.65" y1="245.31" x2="102.65" y2="251.29"/>
				</g>
				<g>
					<line class="st23" x1="111.52" y1="242.42" x2="105.55" y2="242.42"/>
					<line class="st23" x1="99.76" y1="242.42" x2="93.78" y2="242.42"/>
				</g>
			</g>
			<path class="st20" d="M188.76,128.67c0,2.81-2.28,5.08-5.08,5.08s-5.08-2.28-5.08-5.08s2.28-5.08,5.08-5.08
				S188.76,125.86,188.76,128.67z"/>
			
				<ellipse transform="matrix(0.923 -0.3847 0.3847 0.923 -16.0774 105.7958)" class="st20" cx="256.38" cy="93.08" rx="8.64" ry="8.64"/>
			<circle class="st20" cx="336.71" cy="129.69" r="4.07"/>
			<circle class="st20" cx="38.43" cy="289.7" r="6.1"/>
			<path class="st20" d="M61.42,398.07c0,3.65-2.96,6.61-6.61,6.61c-3.65,0-6.61-2.96-6.61-6.61c0-3.65,2.96-6.61,6.61-6.61
				C58.46,391.46,61.42,394.42,61.42,398.07z"/>
			<path class="st20" d="M444.52,333.51c0,2.25-1.82,4.07-4.07,4.07s-4.07-1.82-4.07-4.07s1.82-4.07,4.07-4.07
				S444.52,331.27,444.52,333.51z"/>
			<path class="st20" d="M464.55,363.92c0,3.65-2.96,6.61-6.61,6.61s-6.61-2.96-6.61-6.61c0-3.65,2.96-6.61,6.61-6.61
				S464.55,360.27,464.55,363.92z"/>
		</g>
	</g>
</g>
<g id="DESIGNED_BY_FREEPIK">
	<g>
		<g id="XMLID_319_">
			<g id="XMLID_338_">
				<path id="XMLID_346_" class="st24" d="M260.1,465.47c-0.43,0.44-0.8,0.93-1.11,1.45l-0.47-0.24c-0.07-0.3-0.35-0.5-0.66-0.47
					c-0.33,0.04-0.57,0.34-0.53,0.67s0.34,0.57,0.67,0.53c0.07-0.01,0.13-0.03,0.18-0.05l0.45,0.23c-0.25,0.55-0.43,1.14-0.54,1.74
					l0.75,0.13c0.23-1.31,0.85-2.51,1.79-3.47L260.1,465.47z"/>
				<path id="XMLID_345_" class="st24" d="M265.59,463.16c-0.17,0-0.34,0.01-0.51,0.02l-0.07-0.63c0.19-0.15,0.3-0.39,0.27-0.64
					c-0.05-0.39-0.4-0.67-0.8-0.63s-0.67,0.4-0.63,0.8c0.03,0.25,0.19,0.46,0.4,0.56l0.07,0.62c-0.71,0.12-1.4,0.33-2.06,0.65
					l0.33,0.68c0.93-0.45,1.94-0.67,3-0.67c0.5,0,0.99,0.05,1.48,0.16l0.16-0.74C266.69,463.22,266.14,463.16,265.59,463.16z"/>
				<path id="XMLID_344_" class="st24" d="M272.19,465.71c0.33-0.04,0.57-0.34,0.53-0.67c-0.04-0.33-0.34-0.57-0.67-0.53
					c-0.31,0.04-0.54,0.3-0.53,0.61l-0.42,0.36c-0.42-0.43-0.89-0.81-1.41-1.14l-0.4,0.64c1.13,0.71,2.02,1.73,2.56,2.93l0.69-0.31
					c-0.25-0.55-0.57-1.07-0.94-1.55l0.4-0.35C272.06,465.72,272.13,465.72,272.19,465.71z"/>
				<path id="XMLID_343_" class="st24" d="M265.04,473.37c-0.39,0.02-0.77,0.03-1.16,0.03c-0.88,0-1.73-0.06-2.48-0.18
					c-0.39-0.06-0.85-0.15-1.27-0.29c1.05,1.86,3.07,3.13,5.39,3.13c2.86,0,5.26-1.92,5.95-4.5c-0.68,0.45-1.51,0.83-2.46,1.12
					C267.84,473.05,266.46,473.29,265.04,473.37z"/>
				<path id="XMLID_339_" class="st24" d="M265.59,464.68c-3.35,0-6.08,2.67-6.08,5.94c0,0.43,0.05,0.85,0.14,1.26
					c0.67,0.48,2.71,0.89,5.35,0.73c2.88-0.17,5.3-0.96,6.67-2.16c-0.01-0.19-0.02-0.39-0.05-0.58
					C271.24,466.91,268.65,464.68,265.59,464.68z M263.43,471.19c-1.02,0-1.85-0.83-1.85-1.85c0-1.02,0.83-1.85,1.85-1.85
					c1.02,0,1.85,0.83,1.85,1.85C265.28,470.36,264.45,471.19,263.43,471.19z M268.17,470.29c-0.75,0-1.36-0.61-1.36-1.36
					s0.61-1.36,1.36-1.36c0.75,0,1.36,0.61,1.36,1.36S268.92,470.29,268.17,470.29z"/>
			</g>
			<path id="XMLID_336_" class="st24" d="M281.6,466.55c-0.29-0.12-0.81-0.31-1.38-0.24c-0.55,0.07-0.84,0.34-0.84,1.01v0.87h2.23
				v1.72h-2.23v5.45h-1.93v-5.45h-1.34v-1.72h1.34v-0.89c0-1.68,0.9-2.78,2.57-2.78c0.64,0,1.16,0.12,1.59,0.31L281.6,466.55z"/>
			<path id="XMLID_334_" class="st24" d="M286.3,469.88c-0.18-0.03-0.36-0.05-0.53-0.05c-0.9,0-1.51,0.55-1.51,1.61v3.91h-1.93
				v-7.17h1.87v0.78c0.45-0.67,1.14-0.98,2.02-0.98c0.41,0,0.85,0.13,1.09,0.34L286.3,469.88z"/>
			<path id="XMLID_331_" class="st24" d="M293.97,471.76c0,0.22-0.01,0.49-0.04,0.65h-5.08c0.21,1.04,0.93,1.49,1.84,1.49
				c0.62,0,1.3-0.25,1.81-0.69l1.13,1.24c-0.81,0.75-1.85,1.09-3.06,1.09c-2.2,0-3.72-1.5-3.72-3.75c0-2.26,1.48-3.8,3.63-3.8
				C292.54,467.99,293.96,469.52,293.97,471.76z M288.85,471.09h3.18c-0.18-0.92-0.73-1.44-1.56-1.44
				C289.55,469.65,289.02,470.2,288.85,471.09z"/>
			<path id="XMLID_328_" class="st24" d="M301.62,471.76c0,0.22-0.02,0.49-0.04,0.65h-5.08c0.21,1.04,0.93,1.49,1.84,1.49
				c0.62,0,1.3-0.25,1.81-0.69l1.13,1.24c-0.81,0.75-1.85,1.09-3.06,1.09c-2.2,0-3.72-1.5-3.72-3.75c0-2.26,1.48-3.8,3.63-3.8
				C300.2,467.99,301.61,469.52,301.62,471.76z M296.5,471.09h3.18c-0.18-0.92-0.73-1.44-1.56-1.44
				C297.21,469.65,296.67,470.2,296.5,471.09z"/>
			<path id="XMLID_325_" class="st24" d="M309.96,471.76c0,2.15-1.5,3.77-3.47,3.77c-0.96,0-1.64-0.38-2.11-0.93v3.71h-1.92v-10.13
				h1.89v0.79c0.47-0.58,1.15-0.98,2.14-0.98C308.47,467.99,309.96,469.61,309.96,471.76z M304.29,471.76
				c0,1.13,0.75,1.98,1.84,1.98c1.14,0,1.85-0.88,1.85-1.98c0-1.1-0.71-1.98-1.85-1.98C305.03,469.79,304.29,470.63,304.29,471.76z"
				/>
			<path id="XMLID_322_" class="st24" d="M313.07,465.84c0,0.7-0.54,1.23-1.24,1.23c-0.7,0-1.23-0.53-1.23-1.23
				c0-0.7,0.53-1.24,1.23-1.24C312.53,464.59,313.07,465.14,313.07,465.84z M312.81,475.35h-1.93v-7.17h1.93V475.35z"/>
			<path id="XMLID_320_" class="st24" d="M316.03,470.74l2.7-2.55h2.37l-3.48,3.38l3.5,3.8h-2.38l-2.72-2.9v2.9h-1.93V464.7h1.93
				V470.74z"/>
		</g>
		<g>
			<path class="st24" d="M184.41,475.29v-1.05c-0.53,0.72-1.39,1.23-2.39,1.23c-1.85,0-3.15-1.41-3.15-3.71
				c0-2.26,1.29-3.72,3.15-3.72c0.95,0,1.82,0.47,2.39,1.25v-3.76h1.1v9.77H184.41z M184.41,473.37v-3.21
				c-0.4-0.62-1.24-1.14-2.12-1.14c-1.42,0-2.27,1.17-2.27,2.74c0,1.57,0.85,2.72,2.27,2.72
				C183.17,474.48,184.02,473.99,184.41,473.37z"/>
			<path class="st24" d="M186.93,471.74c0-2.05,1.46-3.71,3.49-3.71c2.14,0,3.4,1.67,3.4,3.79v0.28h-5.73
				c0.09,1.33,1.03,2.45,2.55,2.45c0.81,0,1.63-0.32,2.18-0.89l0.53,0.72c-0.7,0.7-1.65,1.08-2.81,1.08
				C188.44,475.46,186.93,473.96,186.93,471.74z M190.4,468.95c-1.51,0-2.26,1.27-2.31,2.36h4.64
				C192.72,470.25,192.01,468.95,190.4,468.95z"/>
			<path class="st24" d="M194.61,474.35l0.57-0.79c0.47,0.54,1.36,1.01,2.33,1.01c1.08,0,1.67-0.51,1.67-1.22
				c0-1.71-4.38-0.66-4.38-3.28c0-1.1,0.95-2.04,2.64-2.04c1.2,0,2.05,0.45,2.62,1.03l-0.51,0.76c-0.42-0.51-1.2-0.89-2.11-0.89
				c-0.97,0-1.57,0.48-1.57,1.11c0,1.55,4.38,0.53,4.38,3.28c0,1.19-0.95,2.14-2.78,2.14C196.31,475.46,195.32,475.11,194.61,474.35
				z"/>
			<path class="st24" d="M201.48,466.47c0-0.41,0.34-0.75,0.73-0.75c0.41,0,0.75,0.34,0.75,0.75c0,0.41-0.34,0.73-0.75,0.73
				C201.81,467.2,201.48,466.88,201.48,466.47z M201.67,475.29v-7.07h1.1v7.07H201.67z"/>
			<path class="st24" d="M204.58,477.11l0.56-0.82c0.59,0.7,1.29,0.97,2.3,0.97c1.17,0,2.27-0.57,2.27-2.12v-1.01
				c-0.51,0.72-1.38,1.26-2.37,1.26c-1.85,0-3.15-1.38-3.15-3.66c0-2.27,1.29-3.68,3.15-3.68c0.95,0,1.8,0.47,2.37,1.25v-1.07h1.1
				v6.87c0,2.34-1.64,3.08-3.37,3.08C206.24,478.16,205.42,477.93,204.58,477.11z M209.71,473.25v-3.09
				c-0.38-0.62-1.23-1.14-2.11-1.14c-1.42,0-2.27,1.13-2.27,2.7c0,1.55,0.85,2.7,2.27,2.7
				C208.48,474.41,209.33,473.87,209.71,473.25z"/>
			<path class="st24" d="M217.41,475.29v-4.63c0-1.24-0.63-1.64-1.58-1.64c-0.86,0-1.68,0.53-2.09,1.1v5.17h-1.1v-7.07h1.1v1.03
				c0.5-0.59,1.46-1.2,2.52-1.2c1.48,0,2.26,0.75,2.26,2.29v4.97H217.41z"/>
			<path class="st24" d="M219.93,471.74c0-2.05,1.46-3.71,3.49-3.71c2.14,0,3.4,1.67,3.4,3.79v0.28h-5.73
				c0.09,1.33,1.03,2.45,2.55,2.45c0.81,0,1.63-0.32,2.18-0.89l0.53,0.72c-0.7,0.7-1.66,1.08-2.81,1.08
				C221.44,475.46,219.93,473.96,219.93,471.74z M223.4,468.95c-1.51,0-2.26,1.27-2.31,2.36h4.64
				C225.72,470.25,225.02,468.95,223.4,468.95z"/>
			<path class="st24" d="M233.35,475.29v-1.05c-0.53,0.72-1.39,1.23-2.39,1.23c-1.85,0-3.15-1.41-3.15-3.71
				c0-2.26,1.29-3.72,3.15-3.72c0.95,0,1.82,0.47,2.39,1.25v-3.76h1.1v9.77H233.35z M233.35,473.37v-3.21
				c-0.4-0.62-1.25-1.14-2.12-1.14c-1.42,0-2.27,1.17-2.27,2.74c0,1.57,0.85,2.72,2.27,2.72
				C232.1,474.48,232.95,473.99,233.35,473.37z"/>
			<path class="st24" d="M239.69,475.29v-9.77h1.1v3.76c0.57-0.78,1.42-1.25,2.39-1.25c1.85,0,3.15,1.46,3.15,3.72
				c0,2.3-1.3,3.71-3.15,3.71c-1,0-1.86-0.51-2.39-1.23v1.05H239.69z M242.9,474.48c1.44,0,2.29-1.16,2.29-2.72
				c0-1.57-0.85-2.74-2.29-2.74c-0.86,0-1.73,0.53-2.11,1.14v3.21C241.17,473.99,242.04,474.48,242.9,474.48z"/>
			<path class="st24" d="M247.53,477.06c0.16,0.07,0.43,0.12,0.6,0.12c0.48,0,0.81-0.16,1.05-0.75l0.47-1.07l-2.96-7.15h1.19
				l2.36,5.8l2.34-5.8h1.2l-3.54,8.51c-0.42,1.03-1.14,1.42-2.08,1.44c-0.23,0-0.6-0.04-0.81-0.1L247.53,477.06z"/>
		</g>
	</g>
</g>
</svg>
