<?xml version="1.0" encoding="utf-8"?>
<!-- Generator: Adobe Illustrator 24.0.0, SVG Export Plug-In . SVG Version: 6.00 Build 0)  -->
<svg version="1.1" id="Layer_1" xmlns="http://www.w3.org/2000/svg" xmlns:xlink="http://www.w3.org/1999/xlink" x="0px" y="0px"
	 viewBox="0 0 3500 1500" style="enable-background:new 0 0 3500 1500;" xml:space="preserve">
<style type="text/css">
	.st0{fill-rule:evenodd;clip-rule:evenodd;fill:#FFFFFF;}
</style>
<g>
	<path class="st0" d="M1092.6,839.9c-7.9-9.3-15.6-18.7-24.5-27c-10.4-9.8-19.9-20.3-28.9-31.4c-2.9-3.5-5.8-6.9-8.8-10.5
		c-5.9,5.8-11.7,11.3-17.4,17c-17.6,17.7-35.1,35.5-52.8,53.1c-6.6,6.6-13.5,12.7-20.2,19.2c-5.5,5.3-10.8,10.8-16.3,16
		c-9.3,8.8-18.7,17.4-28.1,26.2c-11.1,10.4-22.9,20.1-34.9,29.5c-36.7,28.8-77.3,49.6-123.3,59.1c-19.7,4.1-39.5,6.3-59.6,6
		c-69.1-1.2-130.9-22.7-183.5-68c-44.4-38.2-73.6-86.3-88.8-142.9c-7.7-28.7-10.6-58.1-8.4-87.7c5.4-75.8,35.4-140,91.7-191.4
		c30.9-28.3,66.5-48.6,106.5-61c21.1-6.6,42.8-10.5,64.9-12.1c16.3-1.2,32.6-1.1,48.8,0.6c38.7,3.9,75,15.3,109,34.3
		c20.1,11.2,38.6,24.6,55.4,40.4c5.4,5.1,10.9,10.1,16.3,15.2c5.4,5.1,11,10,15.7,15.8c1.8,2.2,3.8,4.3,6.6,6.1
		c6.9-5.9,13.4-12.2,20.5-18.7c0.6,1.2,1.2,2,1.3,2.9c2.7,18.4,5.3,36.7,7.9,55.1c1.8,12.6,3.7,25.3,5.6,37.9c0.1,1,0.1,2,0.2,3.1
		c-1,0-1.6,0-2.1-0.1c-30.6-9.2-61.1-18.5-91.7-27.7c-0.3-0.1-0.5-0.5-1-1c2.2-3.6,6.6-5.4,8.7-9.3c-1-1.2-1.9-2.3-2.9-3.4
		c-16.3-17.3-33.7-33.5-52.9-47.5c-25.5-18.7-54.1-30.5-85.1-36.6c-21-4.1-42.2-5.2-63.4-3.2c-40.4,3.8-76.9,17.9-109.3,42.4
		c-42.4,32.1-69.9,74-82.2,125.8c-4.4,18.8-6.4,37.8-5.4,57.1c2.9,56.8,23.8,105.8,64.2,146c31.7,31.5,70,51.1,114,59.5
		c19,3.6,38.1,4.5,57.3,3.1c38.6-2.9,74.1-15.2,106.2-37.1c12.4-8.5,24.5-17.6,36-27.3c7.3-6.1,14-12.8,20.9-19.3
		c5.7-5.4,11-11.2,16.9-16.4c12.2-10.8,23.1-23,35-34.1c25.9-24.3,50.4-49.9,75.6-74.9c10-9.9,20.2-19.5,30.1-29.4
		c13.9-13.8,27.8-27.7,41.6-41.5c1-1,2.2-2,2.7-3.3c0.9-2,2.5-3.2,4-4.6c3.1-2.7,6.6-5,8.1-9.1c0.3-0.7,1.1-1.1,1.8-1.6
		c9-6.6,17.9-13.2,25.2-21.8c0.8-0.9,1.7-1.8,2.7-2.6c15.2-12.7,29.9-25.9,46.3-37.2c24.2-16.7,50.5-27.9,79.3-32.9
		c16.7-2.9,33.6-3.5,50.5-2c26.9,2.4,52.3,9.5,75.9,22.5c52.9,29.2,85.8,73.6,99.1,132.4c4.4,19.4,4.9,39.2,3.2,59.1
		c-7.9,88.8-75.1,154.8-152.5,171.7c-18.5,4-37.2,5.6-56,4.2c-42.1-3-79.2-18.4-111.6-45.3c-13-10.8-25.4-22.4-37.3-34.4
		c-1.6-1.6-3.4-2.9-5.2-4.3C1093.8,841.7,1093.2,840.8,1092.6,839.9z M1040.5,758.5c-0.4,0.4-0.8,0.8-1.2,1.3
		c-0.5,0.4-1,0.7-1.4,1.1c-0.2,0.2-0.1,0.6-0.1,1c0.4-0.1,0.9,0,1-0.2c0.4-0.5,0.5-1,0.8-1.6c0.4-0.4,0.9-0.8,1.3-1.2
		s0.9-0.8,1.3-1.2s0.9-0.8,1.3-1.2c0.7-0.5,1.4-1.1,2.1-1.6c8.2-7.3,16.2-14.8,23.2-23.3c0.6-0.8,1.3-1.6,1.9-2.4
		c0.9-0.8,2.1-1.6,1.6-4c-1.1,1.5-1.7,2.4-2.4,3.3c-0.7,0.7-1.5,1.3-2.2,2c-6.5,6.6-13,13.2-19.5,19.8c-1.4,1.5-2.7,3.1-4.1,4.6
		c-0.4,0.3-0.8,0.7-1.2,1c-0.4,0.4-0.8,0.8-1.2,1.3C1041.3,757.7,1040.9,758.1,1040.5,758.5z M1078.6,724.4c1.9,3.6,4,6.8,6.2,10.1
		c21,31.3,44.8,60.2,72,86.3c13.7,13.1,28.3,25.2,44.2,35.7c14.1,9.4,29,17.3,45.1,22.8c25.1,8.6,50.4,9.6,76,2
		c17.9-5.3,33.9-14.2,46.3-28.5c19-21.8,23.5-46.5,13.3-73.7c-4.2-11.1-10.2-21.1-17.3-30.5c-1.1-1.4-2.1-2.9-3.2-4.5
		c2.5-3.1,4.9-5.9,7.2-8.8c6.8-8.6,12.8-17.7,16.9-27.9c8.6-21.5,8.2-42.7-3.4-63.1c-6-10.6-14.2-19.2-24.1-26.2
		c-20.2-14.3-42.9-20.7-67.4-21.1c-17.5-0.3-34.4,3.3-50.9,9.1c-25.9,9-49.6,22.2-72,37.9c-28,19.6-53,42.6-76.7,67.1
		C1086.6,715.2,1082.8,719.7,1078.6,724.4z"/>
	<path class="st0" d="M1092.6,839.9c0.6,0.9,1.3,1.8,1.9,2.7c-4.3,4.4-8.6,8.9-12.9,13.4c0.3,0.6,0.3,1.3,0.7,1.7
		c16.7,16.6,33.5,33.1,52.1,47.5c25.9,19.9,55.1,32.8,87.2,39.4c16.2,3.3,32.6,5,49.2,4.6c44.3-1,84.8-14,120.9-39.8
		c46.5-33.2,76-77.8,88.2-133.6c5-23,5.8-46.2,3.1-69.5c-5.5-46.8-24-87.7-55.9-122.3c-29.8-32.5-66.6-53.6-109.4-64.1
		c-20.4-5-41.1-7.1-62-6c-40.9,2.1-78.5,14-112.4,37.2c-21.9,14.9-42.1,31.9-61.7,49.6c-15.8,14.2-31,29.1-45.9,44.2
		c-18.1,18.4-36.6,36.3-55,54.4c-7.8,7.7-15.7,15.2-23.6,22.8c-2.7,2.6-5.1,5.4-7.8,8c-9.5,9.5-19.1,18.8-28.6,28.3
		c-16.8,16.8-33.4,33.8-50.3,50.4c-18.5,18.3-37.7,35.9-58.4,51.6c-9.5,7.2-19.2,14.3-29.3,20.7c-23,14.6-48.1,23.4-75,27.2
		c-16,2.2-32,2.1-48.1,0.6c-62.9-5.9-116.7-43.6-147-91.8c-13-20.7-21.2-43.2-25.5-67.2c-3.3-18.2-3.8-36.6-2-54.9
		c4.2-44.4,21.8-83,52.8-115.3c29.2-30.4,64.9-49,106.1-57.1c12.4-2.4,24.9-3.7,37.5-3.6c39.2,0.3,75.1,11.6,107.6,33.6
		c8.9,6,17.1,12.9,25,20.2c21.2,19.4,41.1,40,60.5,61.1c11.3,12.3,22.6,24.7,33.8,37c1.2,1.4,2.3,2.9,3.2,4c1.2-0.5,1.7-0.5,2-0.8
		c4.3-3.9,8.6-7.7,12.7-11.8c26.6-26.2,53.1-52.5,79.8-78.7c22.7-22.3,45.9-43.9,70.9-63.7c19.3-15.3,39.3-29.4,61.5-40.3
		c26.1-12.8,53.5-21.4,82.3-25.8c16.8-2.5,33.6-3.9,50.6-3.2c64.2,2.5,122.2,22.3,172,63.5c49.9,41.3,82.5,93.7,97.4,156.9
		c6.1,26,8.8,52.4,7.4,79.2c-1.1,20.3-4.6,40.1-10.2,59.6c-14,48.4-39.1,90.3-75.5,125.1c-36.2,34.7-78.8,58-127.5,70.1
		c-16,4-32.3,6.4-48.8,7.7c-16.7,1.3-33.4,1.2-50-0.7c-54.4-6-103.3-25.9-146.2-59.9c-16.4-13-31.2-27.6-46.2-42.1
		c-2.7-2.6-5.3-5.1-8.2-7.8c-3.2,2.2-5.3,5-7.9,7.3c-2.4,2.2-4.3,4.9-7.3,6.7c-0.4-0.8-0.8-1.3-1-1.8c-7-30.7-14-61.5-20.9-92.3
		c-0.2-0.8,0-1.6,0-2.3c1.5-1.2,2.9-0.5,4.2-0.2c27.3,6.2,54.7,12.4,82,18.5C1087.3,838.9,1089.9,839.4,1092.6,839.9z M585.3,721.8
		c-1.6,2.1-2.8,3.7-4.1,5.3c-6.2,8.1-11.4,16.7-15.2,26.1c-6.8,16.6-8.4,33.5-3.1,50.8c4.8,15.5,14.2,27.9,26.9,37.6
		c26.2,20,55.9,26.3,88.2,21.7c13.8-2,26.7-6.7,39.3-12.6c18.4-8.7,35.1-19.9,50.8-32.8c29.4-24.3,55-52.2,78.1-82.5
		c7-9.2,13.7-18.6,19.3-28.7c0.9-1.6,2.3-3,1.8-5.3c-0.8-0.9-1.6-2.1-2.6-3.1c-9.6-10-18.9-20.2-28.8-29.8
		c-21.2-20.6-44.1-39.2-69-55.2c-17.7-11.4-36.3-21.3-56.2-28.4c-21.6-7.7-43.6-12.1-66.7-9.6c-22.6,2.4-42.7,10.4-60.3,24.7
		c-6,4.8-11.2,10.3-15.6,16.7c-12,17.7-15.9,36.9-10.3,57.7c3.8,14.2,10.6,26.8,19.8,38.2C580,715.5,582.5,718.4,585.3,721.8z"/>
	<path class="st0" d="M3137.1,558.6c-1.2-7.2-1.2-25.1,0.1-31.1c1.8-0.1,3.8-0.3,5.7-0.3c58.1,0,116.2-0.1,174.4,0
		c22,0,40.2,13.4,46.1,33.6c1.6,5.3,2,10.7,2,16.3c0,41.4,0,82.8,0,124.2c0,14.2,0,28.4,0,42.7c0,2.4-0.2,4.9-0.3,7.5
		c-1.9,0.2-3.4,0.5-4.8,0.5c-59.4,0-118.7-0.1-178.1,0.1c-23.2,0.1-40.8-18.2-44.5-34.6c-0.8-3.6-1.4-7.4-1.4-11.1
		c-0.1-26.2-0.1-52.4-0.1-78.6c0-1,0.2-1.9,0.4-3.3c1.5-0.3,2.9-0.6,4.3-0.7c2-0.1,4,0,6,0c58.6,0,117.2,0,175.9,0c3,0,6,0,9.3,0
		c0.4-1.7,0.9-3.1,0.9-4.4c0.1-14.7,0.1-29.4,0-44.2c-0.1-9.8-6-15.7-15.8-16.2c-2-0.1-4,0-6,0c-55.4,0-110.8,0-166.1,0
		C3142.4,558.9,3139.7,558.7,3137.1,558.6z M3333,720.3c0-7.9,0-14.8,0-21.8c0-7.2,0.1-14.5,0-21.7c-0.1-6.9,0.6-13.8-0.6-20.8
		c-1.4-0.1-2.3-0.3-3.3-0.3c-53.1,0-106.2,0.1-159.3,0.2c-0.2,0-0.5,0.1-0.7,0.2c-0.2,0.1-0.4,0.3-0.9,0.9c-0.1,1.1-0.2,2.5-0.2,4
		c0,14,0,27.9,0,41.9c0,1.2,0,2.5,0.1,3.7c0.7,7.3,6.3,12.9,13.6,13.6c2,0.2,4,0.1,6,0.1c45.6,0,91.2,0,136.9,0
		C3327,720.3,3329.4,720.3,3333,720.3z"/>
	<path class="st0" d="M2940.7,720.3c0.1,10.9,0.3,20.8-0.1,30.8c-2.6,1.4-5.1,0.9-7.5,0.9c-23.4,0-46.9,0-70.3,0
		c-33.9,0-67.8,0-101.8,0c-4,0-8,0-11.9-0.8c-21-4.1-36.9-23.2-37.3-44.7c-0.3-13.5-0.1-26.9-0.1-40.4c0-29.9,0-59.9,0-89.8
		c0-5.3,0.5-10.5,1.9-15.5c5.3-18.9,23.4-33,43.1-33.6c1.5-0.1,3,0,4.5,0c43.4,0,86.8,0,130.2,0c5.3,0,10.5,0.4,15.5,1.8
		c17.4,4.8,33.7,21.8,33.9,42.8c0.3,26.7,0.1,53.4,0.1,80.1c0,1-0.2,1.9-0.3,2.8c-2.1,1.7-4.5,1.1-6.6,1.1c-21.2,0.1-42.4,0-63.6,0
		c-39.2,0-78.3,0-117.5,0c-2.7,0-5.5,0-8.5,0c-0.3,1.8-0.8,3.1-0.8,4.5c-0.1,14.2-0.1,28.4,0,42.6c0,2.2,0.3,4.5,0.9,6.6
		c1.7,6,6.8,10.2,13,10.7c2.5,0.2,5,0.1,7.5,0.1c55.6,0,111.2,0,166.8,0C2934.3,720.3,2937,720.3,2940.7,720.3z M2908.5,623.1
		c0.1-1.6,0.3-2.8,0.3-4.1c0-14.2,0-28.4,0-42.6c0-1,0-2-0.1-3c-0.9-8.2-6.4-13.7-14.6-14.5c-1.7-0.2-3.5-0.1-5.2-0.1
		c-41.9,0-83.7,0-125.6,0c-2,0-4-0.1-6,0.2c-5.6,0.7-10,3.5-12.3,8.6c-1.2,2.6-1.6,5.8-1.7,8.7c-0.2,14.2-0.1,28.4-0.1,42.6
		c0,1.4,0.3,2.8,0.4,4.1c1.2,0.4,1.9,0.7,2.6,0.7c53.1,0,106.1,0,159.2,0C2906.4,623.8,2907.1,623.5,2908.5,623.1z"/>
	<path class="st0" d="M2013.8,752c-22.4,0-44.9,0-67.3,0c-15.6,0-27.8-6.7-37.3-18.8c-5.8-7.5-8.9-16.1-9.1-25.6c0-1.7,0-3.5,0-5.2
		c0-41.9,0-83.8,0-125.7c0-4,0-8,0.8-11.9c3.8-20.2,22.7-37.6,45.2-37.6c33.2,0,66.3,0,99.5,0c12.5,0,24.9-0.1,37.4,0.1
		c12.5,0.2,23.3,4.8,32.2,13.6c9.1,9,13.8,20,14,32.8c0.1,10,0,19.9,0,29.9c0,33.2,0,66.3,0,99.5c0,5.8-0.6,11.4-2.4,16.9
		c-4.5,14.6-20.6,32.1-43.5,32C2064.9,752,2047.6,752,2013.8,752L2013.8,752z M2014.4,720.3c20.9,0,41.9,0,62.8,0c2,0,4,0,6-0.1
		c6.1-0.3,13.3-6,13.5-13.7c0.1-2.2,0.1-4.5,0.1-6.7c0-40.1,0-80.3,0-120.4c0-2-0.1-4-0.1-6c0.1-6.4-5.1-12.8-12.2-14.1
		c-2.4-0.4-5-0.4-7.4-0.4c-41.9,0-83.7,0-125.6,0c-1.5,0-3-0.1-4.5,0c-8.9,0.6-14.7,6.6-15.2,15.4c-0.1,1.2,0,2.5,0,3.7
		c0,41.1,0,82.3,0,123.4c0,1.7-0.1,3.5,0.1,5.2c0.8,7.2,6.6,12.9,13.8,13.5c2,0.2,4,0.1,6,0.1
		C1972.5,720.3,1993.4,720.3,2014.4,720.3z"/>
	<path class="st0" d="M1665.4,751.3c-6.3,1-24.7,1-30.6-0.1c-0.2-0.6-0.6-1.3-0.6-2c0-73.1,0-146.2,0-219.3c0-0.7,0.4-1.4,0.8-2.4
		c1.9-0.1,3.9-0.4,5.8-0.4c58.4,0,116.8-0.1,175.2,0c22.1,0,40.6,14,45.8,34.8c1.3,5.2,1.6,10.9,1.6,16.3
		c0.1,30.7,0.1,61.4,0.1,92.1c0,24.2,0,48.4,0,72.6c0,2.7-0.1,5.4-0.1,8c-5.6,1.2-23,1.4-31,0.4c-1.5-2.5-0.8-5.3-0.8-7.9
		c-0.1-28.2,0-56.4,0-84.6c0-26.4,0-52.9,0-79.3c0-2,0.1-4-0.1-6c-0.4-7.3-5-12.6-12.1-14.2c-1.9-0.4-4-0.5-5.9-0.5
		c-42.9,0-85.8,0-128.7,0c-2.5,0-5,0.3-7.4,0.9c-6.4,1.8-10.5,6.9-10.9,13.6c-0.2,2.5-0.1,5-0.1,7.5c0,54.1,0,108.3,0,162.4
		C1666.2,746,1666.8,748.8,1665.4,751.3z"/>
	<path class="st0" d="M2186.5,527.2c0,3.7,0,6.5,0,9.2c0,54.1,0,108.3,0,162.4c0,2.2-0.1,4.5,0.1,6.7c0.8,8.9,6.8,14.7,15.7,14.8
		c44.7,0.1,89.3,0.1,134,0c9.6,0,15.6-6.5,15.9-16.1c0.1-2.2,0-4.5,0-6.7c0-53.6,0-107.3,0-160.9c0-2.7,0-5.4,0-8.4
		c5.5-1.7,10.7-0.7,15.8-0.9c4.9-0.2,9.9,0,14.5,0c2,2.5,1.3,4.8,1.4,7c0.1,21.7,0,43.4,0,65.1c0,34.4,0,68.9,0,103.3
		c0,4.2-0.2,8.5-0.9,12.6c-3.7,19.5-22.6,37-45,36.9c-28.2-0.2-56.4,0-84.6,0c-17.2,0-34.4-0.1-51.6,0c-13.5,0.1-24.7-4.9-34-14.6
		c-8.3-8.7-12.5-19.1-12.9-31c-0.1-1.7,0-3.5,0-5.2c0-55.1,0-110.3,0-165.4c0-2.5,0-4.9,0-7.7c5.4-1.7,10.7-0.7,15.8-0.9
		C2175.5,527.1,2180.5,527.2,2186.5,527.2z"/>
	<path class="st0" d="M2552.1,720.6c12.2-21.9,23.7-43.3,35.3-64.7c11.6-21.2,23.1-42.5,34.6-63.7c11.7-21.4,23.3-42.9,34.9-64.1
		c5.7-1,27.2-1.2,36.1-0.4c1,2.3-0.7,3.8-1.6,5.4c-9.3,17-18.8,34.1-28.2,51.1c-29.7,53.6-59.4,107.3-89.1,160.9
		c-1.2,2.2-2.4,4.3-3.8,6.7c-12.3,0-24.4,0-37.1,0c-8.4-14.5-16.3-29.4-24.5-44.2c-8.4-15-16.6-30.1-24.9-45.2
		c-8.2-14.8-16.4-29.7-24.6-44.5c-8.3-15.1-16.6-30.1-24.9-45.2c-8.1-14.7-16.4-29.4-24.5-44.6c1.8-0.5,2.5-0.8,3.1-0.8
		c11,0,21.9,0,33.3,0c1.3,2.3,2.8,4.6,4,7c26.2,48.2,52.4,96.3,78.6,144.5c6.6,12,13.1,24.1,19.7,36.1
		C2549.5,716.6,2550.6,718.2,2552.1,720.6z"/>
	<path class="st0" d="M3010.8,559.1c0,3.3,0,5.7,0,8.2c0,44.4,0,88.8,0,133.2c0,2-0.1,4,0.1,6c0.6,7.3,6.2,13,13.5,13.7
		c2,0.2,4,0.1,6,0.1c23.2,0,46.4,0,69.6,0c2.4,0,4.9,0.2,7.2,0.3c1.3,6.1,1.3,24.2,0.1,31c-1.3,0.1-2.8,0.4-4.2,0.4
		c-26.2,0-52.4-0.1-78.5,0c-22.8,0.1-40.1-17.5-44.1-34.9c-0.6-2.7-1-5.4-1.2-8.1c-0.2-3.2-0.2-6.5-0.2-9.7c0-78.8,0-157.6,0-236.4
		c0-2.7,0-5.5,0-8.4c5.4-1.8,10.6-0.7,15.7-0.9c5-0.2,9.9,0,14.5,0c2.1,2.1,1.5,4.2,1.5,6.1c0,19.7,0,39.4,0,59.1c0,2.5,0,4.9,0,7.1
		c2.7,2,5.3,1.3,7.6,1.3c26.9,0.1,53.9,0,80.8,0c2.7,0,5.4,0.2,8.5,0.3c0.7,10.3,0.2,20.2,0.3,29.9c-2.3,2.4-5,1.5-7.3,1.5
		c-26.9,0.1-53.9,0-80.8,0C3017.3,558.9,3014.6,559,3010.8,559.1z"/>
	<path class="st0" d="M2663.4,970.5c-3.3,0-5.8,0-8.2,0c-0.3-1-0.8-1.6-0.8-2.3c-0.1-17.9-0.1-35.9-0.1-53.8c0-1,0.3-1.9,0.6-3.2
		c2.1-0.1,4-0.2,6.3-0.3c0.8,2.2,1.5,4.3,2.4,6.5c0.5-0.2,1.4-0.2,1.8-0.7c2.8-3,6.1-5.2,10.1-6.1c9.7-2,18.3-0.6,24.5,8.6
		c1-1,1.9-1.8,2.8-2.6c7.4-7.4,16.2-8.2,25.6-5.5c5.7,1.6,9.1,6,10.5,11.7c0.5,2.2,0.8,4.4,0.8,6.7c0.1,12.7,0,25.4,0,38.1
		c0,0.7-0.3,1.4-0.5,2.5c-2.5,0.8-5.1,0.8-8.2-0.1c-0.1-2.2-0.4-4.4-0.4-6.6c0-10.2,0-20.4-0.1-30.7c0-2.7-0.3-5.5-1.1-8.1
		c-1.3-4.2-4.4-6.6-8.9-6.8c-2-0.1-4-0.1-6,0.1c-5.5,0.6-9.4,3.5-11,8.7c-1,3.3-1.5,6.8-1.6,10.2c-0.2,9-0.1,17.9-0.1,26.9
		c0,2-0.2,3.9-0.3,6.2c-1.7,0.2-3.1,0.5-4.6,0.6c-1.2,0-2.4-0.2-4-0.3c-0.2-1.9-0.5-3.6-0.5-5.2c-0.1-10.2,0-20.4-0.1-30.7
		c0-3-0.2-6-0.9-8.9c-1.1-4.7-4.1-7.2-9-7.6c-2-0.2-4-0.2-6,0c-5.4,0.6-9.5,3.5-10.9,8.8c-1.1,4-1.7,8.3-1.8,12.5
		c-0.3,8-0.1,15.9-0.1,23.9C2663.7,965.5,2663.5,967.7,2663.4,970.5z"/>
	<path class="st0" d="M2841.7,970.4c-1-6.5-1-77.6,0-84.2c1-0.2,2.2-0.5,3.4-0.5c1.2-0.1,2.5,0.1,4.1,0.3c0.3,1.4,0.8,2.8,0.8,4.2
		c0.1,7.2,0,14.4,0,21.7c0,1.4,0.1,2.8,0.2,4.1c2.2,0.8,3-0.8,4.2-1.6c7.2-4.9,15-4.9,22.9-2.8c5,1.3,8.8,4.7,11.4,9.2
		c1.5,2.6,2.7,5.4,3.4,8.2c2.2,8.1,2.1,16.3,0,24.4c-4.7,18.5-24.2,25-39.3,13.2c-0.8-0.6-1.5-1.2-2.3-1.9c-2.8,0.9-1.5,4.1-3.9,5.9
		C2845.3,970.4,2843.5,970.4,2841.7,970.4z M2849.9,939.3c0.3,4.4,0.3,7.1,0.6,9.8c0.2,1.5,0.6,2.9,1.1,4.3
		c2.3,7.2,7.2,10.7,15.1,10.9c7.4,0.2,12.5-3,15.1-9.8c2.2-5.7,3-11.6,2.2-17.6c-0.5-3.7-1.3-7.4-2.6-10.8c-2-5-6.1-7.8-11.5-8.1
		c-1.7-0.1-3.5-0.1-5.2,0c-6.9,0.5-11.2,3.7-13,10.4C2850.5,932.5,2850.3,936.7,2849.9,939.3z"/>
	<path class="st0" d="M2441,942.6c-13.6,0.9-26.8-0.2-39.8,0.6c-1,11.7,4.6,19.1,15.3,20.4c5.3,0.7,10.4-0.2,15.5-1.4
		c1.9-0.5,3.8-1,5.7-1.6c1.2,2.7,1.1,5,0.1,7.7c-8.3,4.1-17.2,4.7-26.2,3c-9.9-1.9-16.4-8.2-19.4-17.7c-2.9-9.1-2.6-18.3,0.8-27.2
		c5.4-14.5,18.9-19.2,31.5-15.6c7.8,2.2,12.6,7.7,15.1,15.3C2441.4,931.2,2441.7,936.4,2441,942.6z M2430.8,934.4
		c0.3-10.9-4.5-16.6-13.8-16.6c-9.8-0.1-15.9,6.4-15.6,16.5C2406.8,935.4,2422.7,935.5,2430.8,934.4z"/>
	<path class="st0" d="M3036.7,942.3c-6.8,1.3-13.5,0.4-20.2,0.6c-6.4,0.2-12.9-0.3-19.2,0.3c-1.7,10,3.5,18,12.5,20
		c6,1.3,11.9,0.4,17.8-0.9c1.9-0.4,3.8-1.1,5.8-1.7c1.5,2.4,1.1,4.8,0.4,7.7c-9.8,4.4-20,5.3-30.3,1.8c-7.6-2.5-12.5-8.1-15.1-15.6
		c-3.2-9.5-3-19.2,0.6-28.6c5.5-14.2,19-18.8,31.8-15c6.3,1.9,10.8,6.1,13.5,12.1C3037.1,929.2,3037.9,935.5,3036.7,942.3z
		 M2997.1,934.4c7.7,1.1,23.7,1,29.5-0.2c1-4.4-0.4-8.2-3-11.7c-2.2-2.9-5.2-4.4-8.9-4.7C3004,917,2997.5,922.9,2997.1,934.4z"/>
	<path class="st0" d="M2124.6,942.8c-7.7,0-14.3,0-21,0.1c-6.4,0.1-12.9-0.6-19.2,0.5c-0.9,11.4,4.8,18.8,15.3,20.3
		c5.3,0.7,10.4-0.2,15.5-1.3c1.9-0.4,3.8-1.1,5.6-1.7c1.4,3.1,1.4,3.1,0.8,7.6c-9.9,4.4-20.3,5.4-30.9,1.7
		c-8.4-3-13.3-9.5-15.5-17.9c-2.1-8.4-1.9-16.9,1-25c5-14.1,18.1-20.3,32.5-15.8c8,2.5,12.5,8.7,14.7,16.6c0.7,2.4,0.8,4.9,1,7.4
		C2124.7,937.4,2124.6,939.6,2124.6,942.8z M2114.3,934.7c0.4-11.1-4.6-17-14.1-17c-9.8,0-16.3,6.9-15.8,17.1
		C2090.3,935.8,2107.8,935.8,2114.3,934.7z"/>
	<path class="st0" d="M1729.4,970.2c-0.9,0.2-1.8,0.6-2.8,0.6c-1.7,0-3.4-0.2-5.6-0.3c-0.1-2.4-0.4-4.6-0.4-6.7c0-9.5,0-18.9,0-28.4
		c0-2.7-0.1-5.5-0.6-8.2c-0.9-5.2-4.3-8.3-9.5-9c-1.2-0.2-2.5-0.2-3.7-0.2c-10.4,0-15.7,4.5-17.1,14.8c-0.4,2.9-0.5,5.9-0.5,8.9
		c-0.1,7.2,0,14.4,0,21.7c0,2.2-0.2,4.4-0.3,6.7c-2.9,1.4-5.5,0.9-8.4,0.4c-1.4-4.9-0.6-9.9-0.7-14.8c-0.2-5,0-10,0-14.9
		c0-4.7,0-9.5,0-14.2c0.1-4.9-0.3-9.9,0.3-14.8c1.1-0.3,1.8-0.7,2.5-0.7c1.2-0.1,2.5,0,3.7,0c0.6,0.7,1.2,1.3,1.4,1.9
		c0.6,1.5,1,3.1,1.6,5.3c1.4-1.1,2.2-1.9,3.2-2.7c8.2-6.6,17.3-7,26.8-3.7c5,1.8,8.3,5.5,9.6,10.6c0.7,2.6,1.3,5.4,1.3,8.1
		c0.1,12.4,0.1,24.9,0,37.3C1730,968.5,1729.7,969.2,1729.4,970.2z"/>
	<path class="st0" d="M1880.9,941.2c-0.8,4.4-1.1,8.9-2.4,13.1c-3.3,10.7-12.1,17.1-23.3,17.8c-16.2,1-26.8-9.1-29.1-23.9
		c-0.8-5.5-0.8-10.9,0.2-16.3c2.8-14.2,12.8-23,29-21.9c13.6,0.9,22.8,10.1,24.7,23.7c0.3,2.5,0.3,5,0.5,7.4
		C1880.6,941.1,1880.7,941.1,1880.9,941.2z M1871.5,940.9c-0.5-5.5-1.2-9.5-2.8-13.2c-3.1-7-8.2-10.1-16.7-9.8
		c-7.8,0.2-12.8,3.6-15.2,10.8c-2.6,8-2.6,16.2,0,24.2c2.5,7.6,8.4,11.6,16.4,11.5c7.9-0.1,13.9-4.3,16.1-11.9
		C1870.4,948.8,1870.8,944.8,1871.5,940.9z"/>
	<path class="st0" d="M1968.7,914.7c9.2-4.9,19-6.3,29.2-3.4c5.4,1.6,8.8,5.4,10.2,10.9c0.5,2.2,0.8,4.4,0.8,6.6
		c0.1,12.7,0,25.4,0,38.1c0,1-0.2,1.9-0.4,3.4c-2,0.1-3.9,0.2-6,0.4c-0.8-2.3-1.5-4.3-2.1-6.2c-0.9,0.1-1.5-0.1-1.8,0.1
		c-2.6,1.8-5,4.2-7.9,5.5c-5.9,2.5-12.1,2.7-18.3,0.9c-7-2.1-10.6-7-11.4-14.1c-0.9-8,2.2-14.1,8.8-17.4c4-2.1,8.4-3.2,12.9-3.3
		c4-0.1,8-0.1,11.9-0.2c1.5,0,2.9-0.2,4.7-0.3c0.2-2,0.5-3.6,0.5-5.3c-0.4-9.1-4.6-13-13.9-12.5c-2.9,0.2-5.9,1-8.8,1.6
		c-2.1,0.5-4.2,1.3-6.2,1.9C1969.2,919.5,1968.1,917.6,1968.7,914.7z M1999.3,942.4c-6.8-0.5-13.5-1-19.9,1
		c-1.8,0.6-3.7,1.4-5.2,2.6c-5.2,4.1-4.9,14.5,2.1,17.4c8.8,3.7,20.2-1.4,22.9-10.6C2000.1,949.6,2000.2,946.2,1999.3,942.4z"/>
	<path class="st0" d="M2762.9,939.9c0.4-2.8,0.7-6.8,1.6-10.6c3.4-13.6,14.4-20.6,28.7-19.4c12.8,1.1,21.4,9.2,24,21.9
		c1.3,6.2,1.2,12.4,0,18.5c-2.4,12.4-11.3,20.6-23.3,21.6c-13.9,1.1-24.3-5.2-28.7-17.6c-0.6-1.6-1.2-3.3-1.4-5
		C2763.3,946.6,2763.2,943.9,2762.9,939.9z M2808.6,941.1c-0.2-2.7-0.1-5.5-0.7-8.2c-2.3-10.9-8.4-15.9-19.5-15.1
		c-6.7,0.4-11.3,3.7-13.6,9.8c-3.3,8.7-3.3,17.5-0.1,26.2c2.5,6.8,8.2,10.4,15.7,10.4c7.6,0,13-3.4,15.9-10.1
		C2808,950.1,2808.6,945.7,2808.6,941.1z"/>
	<path class="st0" d="M2266.2,970.8c-3.3-0.2-5.7-0.3-8.4-0.4c-0.2-1.6-0.4-2.8-0.4-4c0-18.2,0-36.3,0-54.6c2.5-1.3,4.6-1.1,7-0.4
		c0.7,1.9,1.4,4,2.3,6.5c1.2-0.9,2.2-1.6,3.1-2.4c8.4-7,17.7-7.1,27.4-3.5c5.4,2,8.2,6.4,9.4,11.7c0.6,2.4,0.9,4.9,0.9,7.4
		c0.1,12,0.1,23.9,0,35.9c0,1-0.3,1.9-0.5,3c-2.8,1.2-5.4,0.9-8.6,0.2c-0.1-2.2-0.3-4.4-0.3-6.5c0-10,0-19.9,0-29.9
		c0-2.2,0-4.5-0.4-6.7c-1-5.2-4.4-8.3-9.7-8.9c-2.2-0.3-4.5-0.3-6.7-0.1c-7.4,0.6-11.9,4.4-13.5,11.7c-0.7,3.4-1.1,6.9-1.2,10.4
		c-0.2,8,0,16-0.1,23.9C2266.4,966,2266.3,967.9,2266.2,970.8z"/>
	<path class="st0" d="M1754.6,911.2c2.3-0.1,4.2-0.2,6.4-0.3c0.8,2.2,1.6,4.3,2.5,6.5c0.6-0.2,1.4-0.3,1.8-0.7c7.1-7.1,15.7-8,25-6
		c7.3,1.6,11.8,6.1,13.3,13.5c0.5,2.4,0.8,4.9,0.8,7.4c0.1,12,0,23.9,0,35.9c0,0.7-0.3,1.4-0.4,2.4c-2.5,1.7-5.2,0.6-8.2,0.8
		c-0.3-1.9-0.7-3.6-0.7-5.2c-0.1-10.2,0-20.4-0.1-30.7c0-2.2,0-4.5-0.3-6.7c-0.8-6-4.4-9.4-10.3-10c-1.7-0.2-3.5-0.2-5.2-0.1
		c-8.2,0.4-13,4.3-14.6,12.3c-0.7,3.4-1,6.9-1.1,10.4c-0.2,7.5-0.1,15-0.1,22.4c0,2.2,0,4.4,0,6.5c-4,1.4-4,1.5-8.6,0.7
		c-1.1-4.8-0.4-9.7-0.5-14.6c-0.1-5,0-10,0-15c0-4.7,0-9.5,0-14.2C1754.4,921.4,1754,916.4,1754.6,911.2z"/>
	<path class="st0" d="M2511.6,970.5c-3,0-5.4,0-8.2,0c-0.2-1.9-0.5-3.6-0.5-5.3c-0.1-10.7,0-21.4-0.1-32.1c0-2.7-0.5-5.5-1.2-8
		c-1.1-4-4.1-6.3-8.1-6.8c-3.4-0.4-7-0.4-10.4,0.2c-5,0.9-8.7,4-10.1,9c-1,3.5-1.6,7.3-1.7,11c-0.3,8.2-0.1,16.4-0.1,24.7
		c0,2.2-0.1,4.4-0.2,6.9c-2.8,1.1-5.4,0.9-8.1,0.4c-0.3-0.9-0.7-1.6-0.7-2.3c0-18.2,0-36.4,0-54.5c0-0.7,0.4-1.4,0.8-2.4
		c1.9,0,3.8,0,5.9,0c0.8,2.1,1.5,4,2.5,6.5c1.6-1.2,2.8-2,3.9-2.9c8.2-6.1,17.1-6.2,26.2-2.9c5,1.8,8.1,5.7,9.4,10.9
		c0.6,2.6,1,5.4,1,8.1c0.1,12,0.1,23.9,0,35.9C2512,967.7,2511.8,968.7,2511.6,970.5z"/>
	<path class="st0" d="M1926.8,970.6c-3.4,0-6.6,0-10.1,0c-3.4-6.1-5.2-12.9-7.8-19.3c-2.7-6.7-5.3-13.4-7.7-20.2
		c-2.3-6.5-5.4-12.7-6.9-19.9c3.1,0,5.8,0,8.9,0c3.7,7.8,6.2,16.1,9.2,24.2c3,8.1,5.8,16.3,9,25.2c3.3-5.6,4.5-11.2,6.5-16.4
		c2.1-5.6,4.1-11.2,6.1-16.8c1.9-5.4,3.9-10.7,5.9-16.2c3.1,0,5.7,0,8.9,0c-0.2,1.5-0.1,2.7-0.5,3.7c-6.8,17.9-13.6,35.8-20.4,53.8
		C1927.8,969.1,1927.4,969.5,1926.8,970.6z"/>
	<path class="st0" d="M2323.3,911.3c1.2-0.2,2.2-0.5,3.2-0.5c1.7,0,3.4,0.2,5.7,0.3c5.8,15.9,11.5,31.8,17.2,47.5
		c1.9,0.5,2.2-0.9,2.6-2c4.5-12.4,8.9-24.8,13.4-37.3c1-2.8,2.2-5.5,3.3-8.3c3.1,0,5.7,0,8.9,0c-0.1,1.2,0,2.1-0.3,2.9
		c-6.9,18.2-13.8,36.3-20.7,54.5c-0.2,0.5-0.5,0.9-0.9,1.6c-3.2,1.5-6.6,0.3-10.1,0.8c-3-4.7-4.2-9.8-6.1-14.6
		c-2-5.1-3.9-10.2-5.9-15.4c-1.9-4.9-3.9-9.7-5.6-14.7C2326.3,921.4,2323.5,916.9,2323.3,911.3z"/>
	<path class="st0" d="M2536.8,918.6c-2.8-0.3-5.2-0.6-7.4-0.8c-1.1-2.1-0.9-3.7,1-4.7c2-1.1,4-2,6.5-3.2c1.3-3.6,2.6-7.6,4.1-11.9
		c0.7-0.2,1.6-0.6,2.6-0.7c0.7-0.1,1.4,0.3,2.4,0.5c0.1,2,0.3,3.9,0.4,5.9c0.1,2,0,4,0,6.3c1.7,0.3,3,0.8,4.4,0.8
		c4,0.1,7.9,0,11.6,0c2.1,2.4,1.7,4.4,0.6,7.1c-5.1,0.1-10.2,0.3-15.8,0.4c-0.3,1.5-0.8,2.9-0.8,4.3c-0.1,10,0,19.9,0,29.9
		c0,1.2,0,2.5,0.3,3.7c1,5.3,4.5,8.2,9.9,8.2c2.2,0,4.4-0.3,7.1-0.4c0.2,1.9,0.3,3.8,0.5,5.7c-3.5,2.8-7.3,2.3-10.9,2.4
		c-3.3,0.1-6.4-0.8-9.2-2.6c-4.1-2.6-5.8-6.7-6.5-11.3c-0.3-2.2-0.2-4.5-0.3-6.7c0-9,0-17.9,0-26.9
		C2537.2,922.6,2536.9,920.7,2536.8,918.6z"/>
	<path class="st0" d="M2060.5,970.5c-4.1,2-8.4,1.9-12.5,1.2c-6.5-0.9-11.1-4.4-12.5-11.1c-0.6-2.7-0.9-5.4-1-8.1
		c-0.1-9,0-17.9-0.1-26.9c0-2.2-0.2-4.4-0.3-7c-2.7-0.3-5.1-0.5-7.2-0.7c-1.5-2.1-1.2-3.7,0.6-4.8c2.1-1.2,4.4-2.2,7-3.4
		c1-3.2,2-6.6,3.1-9.9c0.8-2.4,1.2-2.5,5.8-1.9c0.1,3.8,0.3,7.7,0.5,12.1c1.5,0.3,2.8,0.8,4.2,0.8c4,0.1,7.9,0,11.5,0
		c0.7,0.8,1.3,1.2,1.3,1.6c0.1,1.7,0,3.3,0,5.2c-5.5,1.2-10.8-0.1-16.3,1c-0.3,1.3-0.8,2.7-0.9,4.1c-0.1,9.5-0.1,18.9,0,28.4
		c0,2.2,0.3,4.5,0.9,6.6c1.1,4.1,3.8,6.3,8,6.6c2.7,0.2,5.4,0,8.3,0C2061.6,966.4,2061.8,968.5,2060.5,970.5z"/>
	<path class="st0" d="M2952.6,886c2.8,0,5.2,0,8,0c0.3,1.1,0.9,2.2,0.9,3.3c0,26.1,0,52.2,0,78.3c0,0.7-0.3,1.4-0.5,2.4
		c-2.6,1.3-5.2,0.8-8.1,0.3c-0.2-1.2-0.7-2.4-0.7-3.5c0-25.9,0-51.7,0-77.6C2952.2,888.5,2952.4,887.7,2952.6,886z"/>
	<path class="st0" d="M2915.8,911c2.8,0,5.2,0,8,0c0.3,1.2,0.9,2.3,0.9,3.5c0,17.9,0,35.8,0,53.8c0,0.5-0.2,1-0.3,1.7
		c-2.6,1.9-5.4,1.2-8.1,0.8c-0.4-0.4-0.6-0.6-0.8-0.8c-0.1-0.2-0.3-0.4-0.3-0.7c-0.1-18.4-0.1-36.8-0.2-55.2
		C2915.1,913.3,2915.4,912.5,2915.8,911z"/>
	<path class="st0" d="M1643.4,911c2.9,0,5.3,0,8,0c0.3,1.4,0.7,2.6,0.8,3.7c0,17.7,0,35.3,0,53c0,0.7-0.2,1.4-0.4,2.3
		c-2.8,1.7-5.6,1-8.4,0.7C1642.2,964.3,1642.2,917.8,1643.4,911z"/>
	<path class="st0" d="M2220.5,970.2c-0.9-7.6-0.8-52.4,0.1-58.8c2.5-0.8,5-0.7,7.5-0.1c1.1,5.9,1.3,48,0.5,58.3
		C2225.2,970.9,2225.2,970.9,2220.5,970.2z"/>
	<path class="st0" d="M2585.1,972.2c-4.2,0-6.5-2.7-6.4-7.4c0.1-4.5,2.8-7.5,6.7-7.4s6.6,3.2,6.6,7.6
		C2591.9,969.5,2589.3,972.3,2585.1,972.2z"/>
	<path class="st0" d="M2157.2,965c0,5-2.5,7.6-7.1,7.3c-3.1-0.2-5-1.8-5.8-4.7c-0.2-0.7-0.3-1.4-0.3-2.2c-0.1-4.6,2.8-8,6.9-7.8
		C2154.8,957.6,2157.2,960.4,2157.2,965z"/>
	<path class="st0" d="M2224.7,888.8c3.3,0.2,5.6,3.3,5.3,6.8c-0.3,3.3-3,5.6-6,5.3s-5-3-4.9-6.4
		C2219.3,891.1,2221.8,888.6,2224.7,888.8z"/>
	<path class="st0" d="M1652.7,894.8c0,3.5-2,5.9-5.1,6.1c-3.3,0.2-5.6-2.6-5.5-6.4c0.1-3.4,2.4-5.8,5.4-5.7
		C1650.5,888.9,1652.7,891.4,1652.7,894.8z"/>
	<path class="st0" d="M2925.2,894c-0.1,4.5-2.4,6.9-5.4,6.9s-5.2-2.6-5.2-6c0-3,1.1-4.9,3.6-5.8c2.1-0.8,4-0.3,5.3,1.3
		C2924.5,891.7,2924.9,893.4,2925.2,894z"/>
	<path class="st0" d="M1044.1,755c1.4-1.5,2.7-3.1,4.1-4.6c6.5-6.6,13-13.2,19.5-19.8c0.4,0.4,0.7,0.7,1.1,1.1
		c-7,8.5-15,16-23.2,23.3C1045.1,755,1044.6,755,1044.1,755z"/>
	<path class="st0" d="M1070.7,729.3c-0.6,0.8-1.3,1.6-1.9,2.4c-0.4-0.4-0.7-0.7-1.1-1.1c0.7-0.7,1.5-1.3,2.2-2
		C1070.1,728.8,1070.4,729,1070.7,729.3z"/>
	<path class="st0" d="M1069.9,728.6c0.6-0.9,1.3-1.8,2.4-3.3c0.5,2.4-0.6,3.1-1.6,4C1070.4,729,1070.1,728.8,1069.9,728.6z"/>
	<path class="st0" d="M1039.6,760.2c-0.2,0.5-0.4,1.1-0.8,1.6c-0.2,0.2-0.7,0.1-1,0.2c0-0.3-0.1-0.8,0.1-1c0.4-0.4,0.9-0.8,1.4-1.1
		C1039.3,759.8,1039.6,760.2,1039.6,760.2z"/>
	<path class="st0" d="M1044.1,755c0.5,0,1,0,1.4-0.1c-0.7,0.5-1.4,1.1-2.1,1.6c-0.2-0.2-0.4-0.4-0.6-0.6
		C1043.3,755.7,1043.7,755.3,1044.1,755z"/>
	<path class="st0" d="M1043.5,756.6c-0.4,0.4-0.9,0.8-1.3,1.2c-0.2-0.2-0.3-0.3-0.5-0.5c0.4-0.4,0.8-0.8,1.2-1.3
		C1043.1,756.2,1043.3,756.4,1043.5,756.6z"/>
	<path class="st0" d="M1040.9,759c-0.4,0.4-0.9,0.8-1.3,1.2c0,0-0.3-0.4-0.4-0.4c0.4-0.4,0.8-0.9,1.2-1.3
		C1040.6,758.7,1040.8,758.8,1040.9,759z"/>
	<path class="st0" d="M1040.5,758.5c0.4-0.4,0.8-0.8,1.2-1.3c0.2,0.2,0.3,0.3,0.5,0.5c-0.4,0.4-0.8,0.8-1.3,1.2
		C1040.8,758.8,1040.6,758.7,1040.5,758.5z"/>
</g>
</svg>
